<ttFont>
          <CharString index="0">
            -98 callgsubr
            -182 hlineto
            -12 -25 -1 -14 -13 23 -2 14 return
          </CharString>
          <CharString index="1">
            rmoveto
            14 -4 -10 5 -6 hhcurveto
            -10 -8 -9 -10 -3 hvcurveto
            -41 -135 -111 -440 -62 -172 -9 -24 -11 -11 -29 -3 -41 callsubr
            90 callgsubr
            hvcurveto
            252 117 callgsubr
            -30 1 -41 -3 18 vvcurveto
            30 33 99 19 64 vhcurveto
            271 hlineto
            9 -36 52 -48 callgsubr
            return
          </CharString>
          <CharString index="2">
            172 401 rmoveto
            21 -2 14 -16 -17 -43 -3 -2 -29 vhcurveto
            -46 -3 -17 -4 -12 vvcurveto
            -11 18 0 10 vhcurveto
            12 57 5 14 hhcurveto
            11 3 -6 -11 1 hvcurveto
            3 -60 1 -55 -61 vvcurveto
            -48 0 -67 -4 -51 vhcurveto
            -1 -14 -10 -5 -29 -2 rrcurveto
            -44 -3 -20 -3 -8 vvcurveto
            -12 37 0 32 vhcurveto
            159 hlineto
            14 16 1 12 11 -19 4 -29 hvcurveto
            -62 hlineto
            return
          </CharString>
          <CharString index="3">
            -110 -2 -68 -3 -125 vhcurveto
            -1 -42 -7 -8 -20 -1 -45 -3 rcurveline
            -16 -1 -11 -7 -9 vvcurveto
            -7 8 -3 23 vhcurveto
            13 155 1 10 hhcurveto
            22 12 3 11 12 -15 3 -19 hvcurveto
            -67 142 hlineto
            49 0 45 23 49 vhcurveto
            63 30 57 33 54 hhcurveto
            106 6 -125 -104 -42 -1 -65 -3 -59 hvcurveto
            -1 -26 -16 -3 -55 -5 rrcurveto
            -14 -1 -9 -4 -10 vvcurveto
            -8 7 -4 17 vhcurveto
            12 174 2 12 hhcurveto
            9 8 3 8 15 -26 2 -20 hvcurveto
            -54 hlineto
            return
          </CharString>
          <CharString index="4">
            421 172 rmoveto
            -91 -1 -74 -71 -88 hhcurveto
            -121 0 136 97 hvcurveto
            59 4 90 35 vvcurveto
            42 -6 3 -28 -23 -103 -2 -18 -4 5 -8 12 vhcurveto
            67 hlineto
            31 1 -8 -30 hvcurveto
            -215 vlineto
            -105 40 -102 124 93 49 58 43 19 vhcurveto
            return
          </CharString>
          <CharString index="5">
            85 289 rmoveto
            74 14 46 82 100 hhcurveto
            99 41 -81 -53 -11 -4 -7 -13 hvcurveto
            -287 -34 rmoveto
            37 102 1 32 hhcurveto
            53 54 0 1 34 hvcurveto
            24 1 11 21 21 vvcurveto
            54 -53 119 -127 -119 -95 -103 -148 -134 71 -103 140 vhcurveto
            return
          </CharString>
          <CharString index="6">
            -101 2 -100 -100 -45 -1 -45 -43 vvcurveto
            -73 3 -69 17 -67 vhcurveto
            -94 24 86 -45 107 hhcurveto
            157 110 88 198 hvcurveto
            -89 callgsubr
            return
          </CharString>
          <CharString index="7">
            18 rmoveto
            -3 -6 -2 -11 -8 vvcurveto
            -7 5 -5 9 16 4 6 18 9 vhcurveto
            405 763 75 callgsubr
            -85 -172 30 51 -125 -230 -129 -237 101 191 -190 -359 rrcurveto
            return
          </CharString>
          <CharString index="8">
            333 187 rmoveto
            32 -41 -47 14 -51 hhcurveto
            -101 -67 -54 -73 -70 60 -47 93 62 52 21 38 42 hvcurveto
            -43 12 31 -16 36 hhcurveto
            39 28 19 57 15 -2 8 -11 -7 -2 -4 -8 -1 hvcurveto
            -30 -3 -3 -27 -37 hhcurveto
            return
          </CharString>
          <CharString index="9">
            474 236 rmoveto
            127 -71 109 -139 -135 -96 -103 -139 -142 99 -99 116 106 120 82 165 vhcurveto
            -215 206 rmoveto
            102 70 -86 -121 -149 -106 -66 -75 -76 -96 69 142 135 86 76 95 hvcurveto
            return
          </CharString>
          <CharString index="10">
            rmoveto
            -56 53 -27 45 56 45 42 45 42 -39 36 -33 8 vhcurveto
            24 7 43 30 47 vvcurveto
            38 -28 44 -60 -57 -39 -41 -45 -39 30 -31 28 -10 vhcurveto
            -25 -10 -43 -29 -51 vvcurveto
            37 5 rmoveto
            40 34 25 29 29 33 -24 -40 -40 -32 -25 -33 -37 -23 31 33 vhcurveto
            9 163 rmoveto
            29 16 33 43 43 9 -34 -22 -39 -28 -24 -28 -25 -30 19 38 vhcurveto
            return
          </CharString>
          <CharString index="11">
            rmoveto
            192 88 215 188 138 100 -176 -221 -260 -110 -132 -148 -155 -101 147 235 vhcurveto
            -45 4 rmoveto
            -294 150 -126 149 123 182 98 326 return
          </CharString>
          <CharString index="12">
            rmoveto
            19 -3 10 -11 -14 1 -30 -16 -4 vhcurveto
            -105 -24 -68 -74 -117 hhcurveto
            -173 -85 175 211 208 108 195 156 130 49 -128 -147 -29 2 -30 19 17 2 15 19 hvcurveto
            42 -2 43 42 48 4 61 47 vvcurveto
            9 -7 14 -13 -12 -7 -9 -16 -1 0 -2 5 -83 vhcurveto
            return
          </CharString>
          <CharString index="13">
            111 86 93 105 11 -6 7 -11 -10 -7 -7 -11 -86 -56 -80 -109 -120 -44 102 95 12 1 15 1 14 hvcurveto
            return
          </CharString>
          <CharString index="14">
            0 -27 -12 -17 -3 -12 -11 23 -2 18 vhcurveto
            return
          </CharString>
          <CharString index="15">
            -124 3 -60 3 62 vvcurveto
            31 16 10 34 14 vhcurveto
            -9 22 26 -4 25 hhcurveto
            110 64 81 83 48 -24 44 -36 29 hvcurveto
            25 38 29 17 32 9 rrcurveto
            19 6 14 9 11 vvcurveto
            10 -9 8 -13 -40 -54 -41 -48 -30 vhcurveto
            12 -22 -25 7 -24 hhcurveto
            50 -461 rmoveto
            21 169 -1 -97 -67 -79 -53 -123 hvcurveto
            return
          </CharString>
          <CharString index="16">
            28 -15 -33 37 -77 hhcurveto
            -80 -79 -39 -95 -76 50 -34 83 -19 hvcurveto
            96 -22 54 -13 -61 vvcurveto
            -68 -67 -22 -51 -41 -40 10 28 -30 vhcurveto
            -25 23 -5 21 -3 46 rrcurveto
            24 -2 -5 11 -11 hhcurveto
            -11 -3 -11 -21 hvcurveto
            -24 4 -36 -25 -18 -2 -32 -10 vvcurveto
            return
          </CharString>
          <CharString index="17">
            -33 -11 21 82 hvcurveto
            43 3 71 32 vvcurveto
            131 -49 58 -105 -95 -69 -47 -71 -35 17 -28 31 -37 callgsubr
            vhcurveto
            return
          </CharString>
          <CharString index="18">
            rmoveto
            -77 42 102 -30 84 hhcurveto
            89 139 44 117 112 -201 57 -80 37 hvcurveto
            -80 37 -80 45 132 vvcurveto
            122 96 120 125 108 72 -95 -145 10 vhcurveto
            -29 2 -30 19 17 2 15 19 vhcurveto
            42 -2 26 42 vvcurveto
            return
          </CharString>
          <CharString index="19">
            488 260 rmoveto
            154 -82 41 -70 -67 -61 -37 -61 -31 vhcurveto
            -3 68 rlineto
            22 -1 -7 4 -16 hhcurveto
            -40 -114 -1 -19 -9 31 -2 24 hvcurveto
            69 hlineto
            12 3 -9 -13 hvcurveto
            return
          </CharString>
          <CharString index="20">
            81 75 -2 81 hhcurveto
            27 12 0 33 3 hvcurveto
            7 81 9 140 23 vvcurveto
            16 -1 17 -18 vhcurveto
            return
          </CharString>
          <CharString index="21">
            8 -12 3 -34 vhcurveto
            -151 hlineto
            -32 -9 -3 -11 -11 7 -2 51 -1 hvcurveto
            33 -1 7 -1 14 -25 211 -385 rcurveline
            -17 -39 -18 -31 -16 -21 rrcurveto
            -33 -25 -24 -16 -34 hhcurveto
            -38 -30 21 22 hvcurveto
            return
          </CharString>
          <CharString index="22">
            165 rmoveto
            -36 2 -60 26 -39 vhcurveto
            -27 18 27 -14 39 hhcurveto
            100 42 90 38 6 -1 14 -14 -14 -2 -14 -21 -6 hvcurveto
            return
          </CharString>
          <CharString index="23">
            -49 callsubr
            -61 -78 callgsubr
            54 21 vhcurveto
            return
          </CharString>
          <CharString index="24">
            -25 -9 3 -2 5 return
          </CharString>
          <CharString index="25">
            -50 -5 -30 -4 -13 vvcurveto
            -9 16 -1 18 vhcurveto
            30 30 -25 callgsubr
            -31 vvcurveto
            -32 -1 -59 -2 -29 vhcurveto
            -2 -21 -6 -8 -27 -80 callgsubr
            return
          </CharString>
          <CharString index="26">
            21 1 14 10 -9 5 -42 return
          </CharString>
          <CharString index="27">
            rmoveto
            59 58 38 74 74 60 -37 -49 -53 -70 -45 -79 -69 -48 34 53 vhcurveto
            return
          </CharString>
          <CharString index="28">
            -62 callgsubr
            42 -2 12 hhcurveto
            15 14 3 11 110 callgsubr
            hvcurveto
            -78 hlineto
            -5 -3 4 17 97 1 218 157 77 0 -52 -64 hvcurveto
            -34 1 -101 -112 vvcurveto
            -146 0 -204 -5 -89 vhcurveto
            -1 -17 -20 -11 -41 -2 -23 -1 rcurveline
            -16 -1 -5 -5 -6 vvcurveto
            -7 6 -5 18 vhcurveto
            40 34 1 27 return
          </CharString>
          <CharString index="29">
            28 58 -6 callsubr
            -442 vlineto
            -124 -59 -130 -167 -194 -4 146 159 vhcurveto
            return
          </CharString>
          <CharString index="30">
            -17 12 -21 30 29 16 20 20 18 -13 20 -30 -32 -12 -23 -17 vhcurveto
            return
          </CharString>
          <CharString index="31">
            vvcurveto
            -24 -55 0 -34 -23 -8 -7 -9 -10 14 -2 22 vhcurveto
            184 hlineto
            262 131 199 240 284 -214 98 -169 -81 -59 -1 -2 -66 hvcurveto
            200 -32 rmoveto
            239 105 -156 -191 -230 -103 -175 -241 -24 -38 0 10 hvcurveto
            return
          </CharString>
          <CharString index="32">
            rmoveto
            6 285 0 6 0 vvcurveto
            10 -4 2 -4 -6 -59 -3 -1 -6 vhcurveto
            -7 -9 -4 -7 -10 9 0 7 hvcurveto
            9 22 1 5 hhcurveto
            9 0 -9 -5 hvcurveto
            return
          </CharString>
          <CharString index="33">
            rmoveto
            -14 -60 -53 -33 -46 hvcurveto
            33 -46 -59 53 -14 hhcurveto
            -5 -3 -2 -9 -25 104 -94 23 25 103 94 25 9 -3 2 -5 hvcurveto
            return
          </CharString>
          <CharString index="34">
            -12 -1 -3 -7 -5 hhcurveto
            -245 hlineto
            -12 -5 2 5 hvcurveto
            29 303 312 42 vvcurveto
            9 -9 8 -22 vhcurveto
            -42 -59 -2 -43 hhcurveto
            -64 -17 0 2 -64 hvcurveto
            -17 -6 -8 -23 hvcurveto
            -107 vlineto
            -25 3 -6 12 12 6 16 39 1 vhcurveto
            3 84 rlineto
            return
          </CharString>
          <CharString index="35">
            15 38 3 36 30 56 64 callgsubr
            4 9 9 -9 5 -20 hvcurveto
            return
          </CharString>
          <CharString index="36">
            -12 callsubr
            20 callgsubr
            -12 -27 -3 vhcurveto
            -51 -6 rlineto
            -19 -2 -5 -6 -6 vvcurveto
            -10 11 -4 8 vhcurveto
            24 36 2 25 hhcurveto
            return
          </CharString>
          <CharString index="37">
            31 47 -3 38 hhcurveto
            11 9 6 8 12 -21 6 -21 hvcurveto
            -73 161 hlineto
            108 61 98 101 88 12 -73 -38 4 vhcurveto
            5 -49 1 -88 return
          </CharString>
          <CharString index="38">
            -26 -21 -6 -12 -21 hvcurveto
            -20 -12 -9 -9 -7 vvcurveto
            endchar
          </CharString>
          <CharString index="39">
            rmoveto
            23 -11 5 -6 -11 -8 -13 -20 -40 -8 -114 -5 -53 vhcurveto
            -34 -3 -26 0 -31 hhcurveto
            -362 hlineto
            -16 -4 2 8 10 334 490 110 193 hvcurveto
            4 7 32 50 7 vvcurveto
            19 -25 0 -27 vhcurveto
            return
          </CharString>
          <CharString index="40">
            -64 callgsubr
            hintmask 01110000
            -43 callgsubr
            hintmask 10101000
            -14 callgsubr
            hintmask 10110000
            -50 callsubr
          </CharString>
          <CharString index="41">
            172 rmoveto
            -91 -1 -74 -71 -88 hhcurveto
            -107 -14 104 92 hvcurveto
            122 4 69 30 vvcurveto
            42 -6 3 -28 -23 -103 -2 -18 -4 5 -8 12 vhcurveto
            67 hlineto
            31 1 -8 -30 hvcurveto
            1 -109 2 -95 -83 vvcurveto
            -115 -2 -94 -2 -83 vhcurveto
            -17 12 -7 11 13 7 7 20 64 -3 79 -1 73 vhcurveto
            -34 26 42 -28 58 hhcurveto
            93 49 58 43 19 hvcurveto
            hintmask 10111101
            -48 callsubr
            hintmask 11011110
            -102 callgsubr
            endchar
          </CharString>
          <CharString index="42">
            -40 49 58 -19 58 hhcurveto
            123 182 98 326 132 -35 121 -64 80 hvcurveto
            14 27 17 callsubr
            -39 -8 -3 vhcurveto
            40 -44 -53 24 -62 hhcurveto
            -205 -110 -230 -204 -156 42 -109 62 -68 hvcurveto
            -59 329 rmoveto
            192 88 215 188 51 47 -25 -43 38 vhcurveto
            -65 -131 18 28 -116 -213 -117 -214 70 134 -124 -235 rrcurveto
            -50 67 -28 100 125 vvcurveto
            514 10 rmoveto
            -260 -110 -132 -148 -58 -50 20 38 -41 vhcurveto
            332 627 rlineto
            47 -73 28 -104 -116 vvcurveto
            return
          </CharString>
          <CharString index="43">
            25 55 -107 callsubr
            28 54 -3 -34 hvcurveto
            return
          </CharString>
          <CharString index="44">
            231 -107 199 -182 -205 -110 -230 -204 return
          </CharString>
          <CharString index="45">
            82 2 34 -15 -21 403 34 -34 157 45 216 -36 36 return
          </CharString>
          <CharString index="46">
            rmoveto
            -7 7 -8 7 vhcurveto
            13 32 25 39 hhcurveto
            return
          </CharString>
          <CharString index="47">
            -21 callgsubr
            -130 -1 vvcurveto
            -42 -2 -126 -4 -57 vhcurveto
            -1 -14 -17 -3 -56 -60 callgsubr
            return
          </CharString>
          <CharString index="48">
            -10 -2 -10 -6 -23 29 -9 22 58 69 60 54 44 -47 22 -33 -10 -10 -2 0 hvcurveto
            11 11 85 34 66 vvcurveto
            47 -42 5 -19 vhcurveto
            return
          </CharString>
          <CharString index="49">
            19 -8 3 -11 -19 return
          </CharString>
          <CharString index="50">
            -77 -15 -39 -36 -58 vvcurveto
            -99 111 -49 131 148 102 63 96 111 -137 5 -101 2 vhcurveto
            return
          </CharString>
          <CharString index="51">
            -105 callgsubr
            endchar
          </CharString>
          <CharString index="52">
            rmoveto
            -77 callsubr
            return
          </CharString>
          <CharString index="53">
            34 47 -3 19 hhcurveto
            21 7 4 7 8 -7 9 -33 hvcurveto
            -61 hlineto
            94 -2 188 317 vvcurveto
            2 0 91 1 66 vhcurveto
            return
          </CharString>
          <CharString index="54">
            16 21 11 26 22 -23 11 -13 -71 -9 -76 -24 -87 70 -64 96 149 68 98 195 hvcurveto
            487 vlineto
            25 59 -107 callsubr
            89 callgsubr
            return
          </CharString>
          <CharString index="55">
            -31 -1 -6 -1 -69 vhcurveto
            -2 -87 -2 -12 -1 -43 rrcurveto
            -19 -27 0 -11 -4 -11 -2 -8 -12 13 0 7 vhcurveto
            102 hlineto
            5 9 1 11 12 -12 0 -6 hvcurveto
            return
          </CharString>
          <CharString index="56">
            -3 callgsubr
            -68 454 50 callsubr
            return
          </CharString>
          <CharString index="57">
            7 2 32 2 25 vhcurveto
            -133 22 rmoveto
            -5 -1 2 2 2 4 4 1 2 hvcurveto
            112 148 -12 -157 rlineto
            -2 -46 -48 -1 -5 hhcurveto
            endchar
          </CharString>
          <CharString index="58">
            -58 callsubr
            -76 return
          </CharString>
          <CharString index="59">
            -78 1 4 -25 15 hhcurveto
            44 92 0 21 hvcurveto
            return
          </CharString>
          <CharString index="60">
            -24 -8 -1 -10 -8 7 -9 22 hvcurveto
            return
          </CharString>
          <CharString index="61">
            rmoveto
            25 0 -9 -35 -145 -95 -61 -99 -192 -69 196 189 222 118 181 141 hvcurveto
            return
          </CharString>
          <CharString index="62">
            rmoveto
            34 -15 1 -27 -37 -93 -2 -19 -7 14 -2 22 vhcurveto
            77 hlineto
            17 2 -7 -21 hvcurveto
            return
          </CharString>
          <CharString index="63">
            -68 -67 2 -68 hhcurveto
            -44 -10 0 -41 hvcurveto
            -30 1 -30 -30 -30 -1 -29 -30 vvcurveto
            -20 3 -16 15 15 4 6 49 vhcurveto
            30 1 70 22 vvcurveto
            return
          </CharString>
          <CharString index="64">
            -18 0 -22 20 15 2 21 25 vhcurveto
            return
          </CharString>
          <CharString index="65">
            10 -9 5 -42 vhcurveto
            -191 hlineto
            -12 -25 -1 -14 -13 23 -2 14 hvcurveto
            return
          </CharString>
          <CharString index="66">
            -10 -1 -53 -4 -28 -1 rrcurveto
            -13 -7 -5 -6 return
          </CharString>
          <CharString index="67">
            rmoveto
            73 callsubr
            -23 -38 -52 34 -49 87 69 71 33 144 16 vhcurveto
            3 26 3 52 27 29 3 282 30 vvcurveto
            25 -2 13 -21 -69 -88 -1 -20 -7 12 -3 26 vhcurveto
            80 hlineto
            return
          </CharString>
          <CharString index="68">
            rmoveto
            -21 87 -87 53 callsubr
            94 -19 -11 -8 -3 -19 vhcurveto
            endchar
          </CharString>
          <CharString index="69">
            30 36 -2 22 hhcurveto
            35 -51 callsubr
            return
          </CharString>
          <CharString index="70">
            -29 callsubr
            hvcurveto
            return
          </CharString>
          <CharString index="71">
            5 rrcurveto
            12 1 5 7 7 vvcurveto
            10 -10 3 return
          </CharString>
          <CharString index="72">
            13 7 5 8 return
          </CharString>
          <CharString index="73">
            -35 callsubr
            11 return
          </CharString>
          <CharString index="74">
            0 87 -4 42 6 4 6 3 2 vhcurveto
            21 39 1 -2 5 vvcurveto
            3 -2 6 -10 -9 -4 -6 -4 -2 vhcurveto
            return
          </CharString>
          <CharString index="75">
            950 rmoveto
            -21 87 -54 53 callsubr
            61 -19 -11 -8 -3 -19 vhcurveto
            return
          </CharString>
          <CharString index="76">
            -106 -11 30 184 30 43 181 -30 return
          </CharString>
          <CharString index="77">
            0 58 -36 callsubr
            -16 vhcurveto
            return
          </CharString>
          <CharString index="78">
            2 -19 hhcurveto
            -11 -5 -8 -7 return
          </CharString>
          <CharString index="79">
            rmoveto
            12 11 8 1 9 vvcurveto
            12 -11 2 -3 -3 -9 -3 -7 -10 vhcurveto
            -41 -28 -73 -97 -101 vvcurveto
            -74 39 -29 50 57 46 37 57 40 -22 40 -62 -62 -15 -39 -7 -2 vhcurveto
            2 62 69 88 30 26 rrcurveto
            -40 -280 rmoveto
            -27 -23 18 36 28 14 43 43 31 26 -22 -39 -46 -37 -18 -27 hvcurveto
            endchar
          </CharString>
          <CharString index="80">
            -198 -6 rmoveto
            -89 -75 62 139 116 52 111 127 81 36 -45 -55 15 hvcurveto
            9 -33 2 -42 -26 vvcurveto
            -103 -31 -124 -127 vhcurveto
            endchar
          </CharString>
          <CharString index="81">
            621 253 rmoveto
            165 -95 140 -175 -176 -128 -132 -182 -184 130 -127 151 138 155 104 216 vhcurveto
            -33 -1 rmoveto
            -194 -134 -93 -125 -137 -109 113 166 165 107 115 158 162 78 -122 -150 vhcurveto
            return
          </CharString>
          <CharString index="82">
            19 36 28 37 hhcurveto
            29 14 -18 -19 -31 -35 -12 -61 -26 -15 0 -12 -9 8 -8 37 68 61 26 52 38 -33 25 -44 -28 -20 -10 -19 -32 hvcurveto
            return
          </CharString>
          <CharString index="83">
            -181 253 9 callsubr
            307 285 104 callsubr
            -48 16 callsubr
            121 29 callsubr
          </CharString>
          <CharString index="84">
            56 -20 -58 80 -110 hhcurveto
            -168 -140 -191 -242 return
          </CharString>
          <CharString index="85">
            -52 23 -79 11 -48 vhcurveto
            28 -13 -30 50 -82 hhcurveto
            -80 -73 -47 -82 -77 64 -30 38 -11 hvcurveto
            47 -14 129 -16 -80 vvcurveto
            -50 -50 -28 -67 -51 -45 16 42 -21 vhcurveto
            -8 16 -2 17 -4 20 -15 callsubr
            return
          </CharString>
          <CharString index="86">
            -47 callsubr
            67 hlineto
            return
          </CharString>
          <CharString index="87">
            343 -391 rmoveto
            -71 37 -70 70 62 48 57 87 77 -37 64 -68 -65 -47 -59 -85 vhcurveto
            31 2 rmoveto
            75 40 36 37 34 41 -27 -80 -53 -23 -63 -55 -59 -15 73 39 vhcurveto
            -343 389 rmoveto
            89 53 29 35 35 37 -30 -80 -74 -35 -44 -45 -47 -33 50 60 vhcurveto
            return
          </CharString>
          <CharString index="88">
            -87 callsubr
            -560 -38 rmoveto
            -43 -35 2 -40 hhcurveto
            54 122 138 276 37 82 rrcurveto
            -4 vlineto
            -91 6 -84 -150 vvcurveto
            -68 0 -46 -1 -38 vhcurveto
            -1 -38 -40 0 -38 hhcurveto
            endchar
          </CharString>
          <CharString index="89">
            17 8 -5 -16 hvcurveto
            -110 vlineto
            -57 -2 -191 -6 -70 vhcurveto
            -113 -10 -44 -36 -68 hhcurveto
            -52 -33 21 25 14 6 4 10 1 hvcurveto
            return
          </CharString>
          <CharString index="90">
            14 -6 12 -12 -10 -6 -8 -26 -11 1 -21 1 -17 vhcurveto
            return
          </CharString>
          <CharString index="91">
            -12 callgsubr
            endchar
          </CharString>
          <CharString index="92">
            rrcurveto
            27 -5 -3 7 -10 hhcurveto
            -11 -2 -9 -18 hvcurveto
            -28 5 -28 -25 -19 -3 -19 -13 vvcurveto
            return
          </CharString>
          <CharString index="93">
            7 -6 6 -5 vhcurveto
            endchar
          </CharString>
          <CharString index="94">
            6 -2 3 -9 -24 -93 -118 -29 -26 93 -120 24 9 2 3 6 16 -52 68 -33 53 vhcurveto
            33 53 52 69 16 vvcurveto
            return
          </CharString>
          <CharString index="95">
            40 -5 3 -11 -6 -6 -1 -27 -6 vhcurveto
            return
          </CharString>
          <CharString index="96">
            49 -6 -20 86 -110 hhcurveto
            -72 -59 -37 -64 -35 hvcurveto
            return
          </CharString>
          <CharString index="97">
            4 -20 30 -11 -21 422 32 return
          </CharString>
          <CharString index="98">
            -27 -13 -17 -17 hvcurveto
            endchar
          </CharString>
          <CharString index="99">
            -120 -12 -3 -106 hhcurveto
            -6 -23 0 -13 -16 21 0 11 53 27 0 -42 hvcurveto
            return
          </CharString>
          <CharString index="100">
            16 -183 31 -31 155 413 26 -11 28 return
          </CharString>
          <CharString index="101">
            0 -23 hvcurveto
            return
          </CharString>
          <CharString index="102">
            259 rmoveto
            37 102 1 32 hhcurveto
            53 54 0 1 34 hvcurveto
            24 1 11 21 21 vvcurveto
            54 -53 119 -127 return
          </CharString>
          <CharString index="103">
            33 96 -22 -22 callgsubr
            return
          </CharString>
          <CharString index="104">
            rmoveto
            -13 callgsubr
            return
          </CharString>
          <CharString index="105">
            rmoveto
            -22 -13 -6 -11 -7 2 -4 22 hvcurveto
            428 hlineto
            20 11 7 22 2 hvcurveto
            5 70 11 131 49 vvcurveto
            14 -12 6 -7 -16 -2 -20 -30 -26 -11 -141 -2 -15 vhcurveto
            -23 -3 -15 -8 -22 hhcurveto
            -241 return
          </CharString>
          <CharString index="106">
            42 45 -2 42 hhcurveto
            26 11 8 7 14 -18 0 -13 hvcurveto
            -29 1 -38 -3 18 vvcurveto
            17 62 112 33 64 vhcurveto
            254 hlineto
            -55 -1 -41 -78 vvcurveto
            -28 -19 -8 -62 -26 -13 -3 -14 -11 26 0 20 vhcurveto
            return
          </CharString>
          <CharString index="107">
            -2 12 hhcurveto
            15 14 3 11 return
          </CharString>
          <CharString index="108">
            541 rmoveto
            -26 3 -40 -50 vvcurveto
            -119 hlineto
            73 callgsubr
            -10 9 22 46 2 1 49 hvcurveto
            -1 -39 -2 -55 -24 vvcurveto
            -11 11 -5 7 7 12 7 9 1 vhcurveto
            118 113 vlineto
            return
          </CharString>
          <CharString index="109">
            -116 4 -135 -116 -44 callgsubr
            hlineto
            endchar
          </CharString>
          <CharString index="110">
            -94 -250 31 218 28 110 30 263 30 return
          </CharString>
          <CharString index="111">
            rmoveto
            -15 -1 -6 -5 -7 vvcurveto
            -7 6 -9 17 55 33 -1 -41 vhcurveto
            return
          </CharString>
          <CharString index="112">
            23 -26 8 13 15 19 47 10 vvcurveto
            8 -9 7 -7 -34 -21 -95 -26 -27 17 -17 25 vhcurveto
            return
          </CharString>
          <CharString index="113">
            -1 13 22 -1 73 hhcurveto
            24 5 8 7 13 -13 2 -50 1 hvcurveto
            -61 1 -6 1 24 vvcurveto
            return
          </CharString>
          <CharString index="114">
            -7 -1 4 31 91 0 206 141 70 32 -51 -47 hvcurveto
            return
          </CharString>
          <CharString index="115">
            40 callsubr
            hintmask 01101010
            77 77 1 77 hhcurveto
            hintmask 10101001
            4 callgsubr
            endchar
          </CharString>
          <CharString index="116">
            29 -7 -21 30 -20 21 -20 hstemhm
            hintmask 00010000
            return
          </CharString>
          <CharString index="117">
            103 -109 rmoveto
            9 4 5 12 2 vhcurveto
            return
          </CharString>
          <CharString index="118">
            vvcurveto
            37 -16 1 -31 -31 -132 -1 -25 -11 26 0 2 vhcurveto
            45 24 2 30 hhcurveto
            return
          </CharString>
          <CharString index="119">
            -31 -41 5 -35 vvcurveto
            -18 11 -14 23 40 9 42 31 vhcurveto
            return
          </CharString>
          <CharString index="120">
            19 -7 8 -17 -24 -63 -134 -83 callsubr
            19 84 122 21 vhcurveto
            return
          </CharString>
          <CharString index="121">
            -236 0 120 callsubr
            return
          </CharString>
          <CharString index="122">
            -76 -62 -45 -79 -37 hvcurveto
            -1 -152 rmoveto
            136 80 109 89 55 84 -48 -154 -169 -110 -34 -68 -107 -23 83 77 vhcurveto
            endchar
          </CharString>
          <CharString index="123">
            -37 callsubr
            hintmask 10000000
            27 callgsubr
            hintmask 01000000
            47 return
          </CharString>
          <CharString index="124">
            87 callgsubr
            -8 callgsubr
            return
          </CharString>
          <CharString index="125">
            -78 -44 46 79 84 50 54 81 hvcurveto
            return
          </CharString>
          <CharString index="126">
            26 24 26 hstemhm
            0 151 -43 43 return
          </CharString>
          <CharString index="127">
            396 hlineto
            54 callsubr
            return
          </CharString>
          <CharString index="128">
            -27 -39 -28 -36 -38 -36 14 41 return
          </CharString>
          <CharString index="129">
            29 2 -20 21 -20 hstemhm
            return
          </CharString>
          <CharString index="130">
            hstemhm
            24 160 -41 41 return
          </CharString>
          <CharString index="131">
            -63 callsubr
            vhcurveto
            endchar
          </CharString>
          <CharString index="132">
            33 243 44 168 -20 353 31 return
          </CharString>
          <CharString index="133">
            54 callgsubr
            -39 84 return
          </CharString>
          <CharString index="134">
            -41 -56 28 -40 hhcurveto
            return
          </CharString>
          <CharString index="135">
            -1 rrcurveto
            -17 -11 -6 -9 -13 26 0 17 hvcurveto
            34 39 2 35 34 49 -2 20 hhcurveto
            24 4 3 8 13 -11 6 -15 hvcurveto
            -91 return
          </CharString>
          <CharString index="136">
            -28 callgsubr
            hvcurveto
            hintmask 00010000
            -14 callsubr
          </CharString>
          <CharString index="137">
            51 callgsubr
            301 163 -40 40 return
          </CharString>
          <CharString index="138">
            -32 21 59 -18 45 hhcurveto
            52 111 23 94 77 -73 26 -68 21 hvcurveto
            -62 19 -75 8 71 vvcurveto
            53 41 43 64 40 40 return
          </CharString>
          <CharString index="139">
            -31 -55 -25 1 10 -8 hvcurveto
            -84 105 -65 158 -9 23 39 36 return
          </CharString>
          <CharString index="140">
            hlineto
            -26 -8 -8 -7 -14 21 0 13 hvcurveto
            30 -1 41 3 -18 vvcurveto
            return
          </CharString>
          <CharString index="141">
            -6 -10 -10 -27 -1 return
          </CharString>
          <CharString index="142">
            406 45 vstem
            45 818 4 callsubr
            -66 7 -192 -52 return
          </CharString>
          <CharString index="143">
            56 callgsubr
            7 -6 6 -5 return
          </CharString>
          <CharString index="144">
            10 -31 30 15 28 378 35 return
          </CharString>
          <CharString index="145">
            -41 80 hhcurveto
            94 127 56 173 101 -43 137 -132 return
          </CharString>
          <CharString index="146">
            -122 1 28 -10 -21 22 -21 407 30 return
          </CharString>
          <CharString index="147">
            -18 -28 -3 0 -14 vvcurveto
            -16 15 -3 29 vhcurveto
            return
          </CharString>
          <CharString index="148">
            187 4 -21 407 27 21 27 return
          </CharString>
          <CharString index="149">
            -25 63 -144 282 23 return
          </CharString>
          <CharString index="150">
            23 46 hvcurveto
            -23 46 60 return
          </CharString>
          <CharString index="151">
            782 rmoveto
            34 -14 2 -12 vhcurveto
            -90 hlineto
            -5 -69 0 -19 -11 24 -1 22 hvcurveto
            58 hlineto
            29 16 -7 -20 hvcurveto
            return
          </CharString>
          <CharString index="152">
            63 28 rmoveto
            -39 -3 -9 -7 -12 40 0 21 hvcurveto
            196 hlineto
            32 13 0 13 12 -14 6 -29 hvcurveto
            -97 return
          </CharString>
          <CharString index="153">
            hhcurveto
            56 callgsubr
            return
          </CharString>
          <CharString index="154">
            -2 -11 vvcurveto
            -10 11 -1 7 vhcurveto
            225 hlineto
            11 9 5 7 9 -18 7 -32 hvcurveto
            -65 242 hlineto
            return
          </CharString>
          <CharString index="155">
            30 35 -2 24 hhcurveto
            34 -51 callsubr
            10 return
          </CharString>
          <CharString index="156">
            120 72 40 48 26 20 -12 -22 vhcurveto
            return
          </CharString>
          <CharString index="157">
            hlineto
            7 2 4 16 vhcurveto
            return
          </CharString>
          <CharString index="158">
            68 850 rmoveto
            -7 callgsubr
            return
          </CharString>
          <CharString index="159">
            98 callsubr
            63 callsubr
            return
          </CharString>
          <CharString index="160">
            63 callgsubr
            -76 return
          </CharString>
          <CharString index="161">
            9 5 2 13 vhcurveto
            return
          </CharString>
          <CharString index="162">
            138 80 110 87 57 84 -48 -151 -173 -110 -33 -68 -107 -23 83 74 vhcurveto
            return
          </CharString>
          <CharString index="163">
            -16 1 -273 0 hvcurveto
            -139 -5 -166 -2 -59 vhcurveto
            -1 -30 -6 -7 -19 -3 rrcurveto
            return
          </CharString>
          <CharString index="164">
            14 16 11 17 rrcurveto
            6 9 4 9 5 vvcurveto
            6 -5 5 -7 -5 -5 -3 -6 -4 vhcurveto
            return
          </CharString>
          <CharString index="165">
            31 -16 30 793 30 -30 165 hstemhm
            58 41 return
          </CharString>
          <CharString index="166">
            26 callsubr
            194 return
          </CharString>
          <CharString index="167">
            30 14 28 324 36 399 34 return
          </CharString>
          <CharString index="168">
            16 -5 22 -14 -6 -15 -4 -18 vhcurveto
            return
          </CharString>
          <CharString index="169">
            hstemhm
            -4 176 -42 42 return
          </CharString>
          <CharString index="170">
            32 67 37 8 36 return
          </CharString>
          <CharString index="171">
            462 2 34 -15 -21 238 34 131 34 -34 157 45 216 -36 36 return
          </CharString>
          <CharString index="172">
            -1 -30 -41 -4 -50 hhcurveto
            46 1 44 26 vvcurveto
            14 -14 5 -6 -7 -10 -5 -14 vhcurveto
            return
          </CharString>
          <CharString index="173">
            hlineto
            0 43 -2 23 149 190 60 181 166 -129 60 -162 return
          </CharString>
          <CharString index="174">
            rmoveto
            25 -21 22 -40 -39 -27 -21 -28 -28 28 -20 34 30 35 16 34 vhcurveto
            -63 return
          </CharString>
          <CharString index="175">
            214 -55 31 18 -21 27 31 372 34 return
          </CharString>
          <CharString index="176">
            160 165 -41 157 return
          </CharString>
          <CharString index="177">
            -15 -55 vhcurveto
            -55 3 -270 -132 vvcurveto
            -107 -2 -29 -1 -85 vhcurveto
            -1 -77 return
          </CharString>
          <CharString index="178">
            26 131 23 135 26 hstemhm
            return
          </CharString>
          <CharString index="179">
            17 2 20 5 28 vvcurveto
            return
          </CharString>
          <CharString index="180">
            25 -17 5 -14 -27 -29 return
          </CharString>
          <CharString index="181">
            122 -25 25 207 -20 hstemhm
            165 28 -28 72 hintmask 10110000
            229 return
          </CharString>
          <CharString index="182">
            hhcurveto
            -24 -4 -8 -6 -7 6 -8 22 hvcurveto
            34 hlineto
            43 6 -19 -21 hvcurveto
            return
          </CharString>
          <CharString index="183">
            rrcurveto
            -7 1 3 -16 13 hhcurveto
            11 3 13 11 hvcurveto
            15 1 60 79 vvcurveto
            return
          </CharString>
          <CharString index="184">
            -166 0 107 callgsubr
            return
          </CharString>
          <CharString index="185">
            19 -34 callgsubr
            return
          </CharString>
          <CharString index="186">
            24 125 25 165 -20 hstem
            29 40 114 38 vstem
            159 return
          </CharString>
          <CharString index="187">
            206 -11 32 182 30 26 32 -15 181 -30 30 -12 32 return
          </CharString>
          <CharString index="188">
            24 -5 -21 307 28 hstemhm
            29 41 102 38 hintmask 01111000
            191 return
          </CharString>
          <CharString index="189">
            31 -31 116 105 162 -42 42 return
          </CharString>
          <CharString index="190">
            97 callgsubr
            hstemhm
            return
          </CharString>
          <CharString index="191">
            -34 callsubr
            -15 7 -15 hvcurveto
            return
          </CharString>
          <CharString index="192">
            30 hstemhm
            33 45 284 39 return
          </CharString>
          <CharString index="193">
            30 hstemhm
            -30 171 -38 38 return
          </CharString>
          <CharString index="194">
            -221 32 -32 162 return
          </CharString>
          <CharString index="195">
            31 -21 -21 785 30 return
          </CharString>
          <CharString index="196">
            30 93 callsubr
            return
          </CharString>
          <CharString index="197">
            hhcurveto
            -182 -14 -229 -55 109 callsubr
            hvcurveto
            -64 hlineto
            return
          </CharString>
          <CharString index="198">
            30 -30 148 -116 -21 433 35 -5 -20 22 -20 return
          </CharString>
          <CharString index="199">
            31 118 225 -183 31 121 31 152 34 return
          </CharString>
          <CharString index="200">
            hstemhm
            21 162 return
          </CharString>
          <CharString index="201">
            -19 31 223 31 106 31 142 26 60 31 hstemhm
            return
          </CharString>
          <CharString index="202">
            17 -10 -12 10 hvcurveto
            -40 -85 -5 -92 -87 vvcurveto
            endchar
          </CharString>
          <CharString index="203">
            25 69 74 callgsubr
            return
          </CharString>
          <CharString index="204">
            28 336 26 hstemhm
            119 36 return
          </CharString>
          <CharString index="205">
            23 callsubr
            241 return
          </CharString>
          <CharString index="206">
            22 305 -20 hstemhm
            return
          </CharString>
          <CharString index="207">
            15 33 3 36 hhcurveto
            return
          </CharString>
          <CharString index="208">
            14 vvcurveto
            54 callsubr
            13 51 -2 22 21 return
          </CharString>
          <CharString index="209">
            59 -36 callsubr
            return
          </CharString>
          <CharString index="210">
            -33 46 60 -53 14 hhcurveto
            endchar
          </CharString>
          <CharString index="211">
            rmoveto
            hintmask 10000000
            35 callgsubr
            hintmask 00100000
            -34 return
          </CharString>
          <CharString index="212">
            -18 -3 -40 1 -19 vvcurveto
            -9 10 -2 24 vhcurveto
            return
          </CharString>
          <CharString index="213">
            99 41 -81 -53 -11 -4 -7 -13 hvcurveto
            endchar
          </CharString>
          <CharString index="214">
            30 hstemhm
            18 170 -41 41 return
          </CharString>
          <CharString index="215">
            -16 34 789 31 return
          </CharString>
          <CharString index="216">
            -14 -1 -14 -11 return
          </CharString>
          <CharString index="217">
            hhcurveto
            36 callsubr
            hvcurveto
            return
          </CharString>
          <CharString index="218">
            hstemhm
            97 40 69 callsubr
            return
          </CharString>
          <CharString index="219">
            -9 26 -15 -21 167 23 135 26 return
          </CharString>
          <CharString index="220">
            hstemhm
            144 41 311 157 -40 40 return
          </CharString>
          <CharString index="221">
            -17 -123 -3 -25 hhcurveto
            178 1 51 return
          </CharString>
          <CharString index="222">
            -29 callgsubr
            14 return
          </CharString>
          <CharString index="223">
            117 18 rmoveto
            -3 -6 -2 -11 -8 vvcurveto
            return
          </CharString>
          <CharString index="224">
            rmoveto
            -21 87 -87 78 callsubr
            vhcurveto
            return
          </CharString>
          <CharString index="225">
            vhcurveto
            12 42 0 callsubr
            return
          </CharString>
          <CharString index="226">
            7 -6 8 -5 return
          </CharString>
          <CharString index="227">
            31 760 30 return
          </CharString>
          <CharString index="228">
            34 149 36 return
          </CharString>
        <CharString name=".notdef">
          109 2 22 445 -20 340 29 hstem
          93 29 426 29 vstem
          559 815 rmoveto
          3 -46 -149 0 -60 hhcurveto
          -34 -114 -1 -2 -43 hvcurveto
          -20 -1 -3 -18 -16 vvcurveto
          3 -245 0 -235 -263 vvcurveto
          -28 7 -7 12 vhcurveto
          446 hlineto
          12 7 7 28 263 0 235 3 245 hvcurveto
          16 -4 18 -17 1 vhcurveto
          -418 -791 rmoveto
          -14 -5 4 14 hvcurveto
          714 vlineto
          26 5 7 23 vhcurveto
          369 hlineto
          23 6 -5 -22 hvcurveto
          -717 vlineto
          -14 -6 -7 -13 vhcurveto
          -76 153 rmoveto
          8 -42 51 -53 61 16 callgsubr
          27 -20 -15 24 -16 hhcurveto
          -8 -10 -9 -8 -11 29 -32 38 callgsubr
          -60 55 31 -51 10 hhcurveto
          13 9 9 15 hvcurveto
          endchar
        </CharString>
        <CharString name="A">
          -35 callgsubr
          hstem
          -67 callgsubr
          endchar
        </CharString>
        <CharString name="AE">
          64 callsubr
          hstemhm
          173 231 117 43 0 241 32 112 -45 37 8 36 hintmask 1010110101100000
          966 310 -104 callgsubr
          hintmask 1011001101011000
          -91 callgsubr
          hintmask 1011010101011000
          -43 callsubr
          hintmask 0111001101011000
          -19 callgsubr
          hintmask 1011010101100000
          1 42 41 1 42 hhcurveto
          hintmask 0111010110100000
          -1 callsubr
          hintmask 1011010101100000
          13 callgsubr
          hintmask 0111010101011000
          -19 callsubr
        </CharString>
        <CharString name="AEacute">
          64 callsubr
          -36 187 hstemhm
          173 231 126 114 -80 241 0 63 callsubr
          hintmask 1011000111011100
          644 950 rmoveto
          -49 callsubr
          -60 -78 callgsubr
          53 21 vhcurveto
          322 -640 rmoveto
          34 callsubr
          hvcurveto
          -2 -55 -8 -109 -3 -36 rrcurveto
          -34 -3 -20 -3 -20 hhcurveto
          hintmask 1010110010101100
          -329 365 hlineto
          1 38 38 1 38 38 23 -1 18 hhcurveto
          40 8 -57 -36 -17 8 -12 9 hvcurveto
          hintmask 1010110011011100
          5 10 4 23 hvcurveto
          37 -2 38 38 38 2 37 38 vvcurveto
          14 -1 13 -16 -17 0 -26 -4 -25 0 -65 -17 vhcurveto
          hintmask 1011001010101100
          -91 callgsubr
          hintmask 1011010010101100
          -43 callsubr
          hintmask 0111001010101100
          -19 callgsubr
          hintmask 1011010010101100
          1 42 41 1 42 hhcurveto
          hintmask 0111010010101100
          -1 callsubr
          hintmask 1011010010101100
          13 callgsubr
          hintmask 0111010010101100
          -19 callsubr
        </CharString>
        <CharString name="Aacute">
          -35 callgsubr
          157 -20 hstem
          401 950 rmoveto
          -84 callsubr
          -36 -134 -107 callgsubr
          endchar
        </CharString>
        <CharString name="Abreve">
          -35 callgsubr
          60 25 -25 97 hstemhm
          273 149 hintmask 11110110
          458 948 -39 callgsubr
          hintmask 11111010
          19 callgsubr
          hintmask 11110110
          -33 callgsubr
          -93 -132 -107 callgsubr
          endchar
        </CharString>
        <CharString name="Acircumflex">
          -35 callgsubr
          157 -20 hstem
          464 875 -10 callgsubr
          61 -25 -23 -104 -61 -83 callsubr
          14 69 30 23 36 hvcurveto
          -23 36 70 -30 14 hhcurveto
          -99 -59 -107 callgsubr
          endchar
        </CharString>
        <CharString name="Adieresis">
          -35 callgsubr
          60 83 -69 83 hstemhm
          280 132 hintmask 11110110
          205 931 rmoveto
          -105 callgsubr
          207 -14 rmoveto
          hintmask 11111010
          -105 callgsubr
          -47 -101 -107 callgsubr
          endchar
        </CharString>
        <CharString name="Agrave">
          -35 callgsubr
          157 -20 hstem
          288 -32 callsubr
          77 -134 -107 callgsubr
          endchar
        </CharString>
        <CharString name="Amacron">
          -35 callgsubr
          60 22 callsubr
          hintmask 11110010
          -67 callgsubr
          142 152 rmoveto
          hintmask 11111000
          35 callgsubr
          hintmask 11110100
          -34 -68 -37 callsubr
          hintmask 11111000
          -61 callgsubr
          hintmask 11110010
          -14 callsubr
        </CharString>
        <CharString name="Aogonek">
          120 -202 27 -27 67 80 26 29 25 213 34 563 -20 hstemhm
          499 44 hintmask 01111110
          365 816 -106 callsubr
          67 hlineto
          -19 -14 -22 -25 -35 -58 callgsubr
          hintmask 10111110
          115 callsubr
          6 36 27 23 hvcurveto
          110 hlineto
          23 12 3 11 12 -17 0 -19 -63 -33 5 27 -7 hvcurveto
          -239 752 rmoveto
          39 -146 51 -204 32 -131 rrcurveto
          -1 -41 -43 -1 -41 hhcurveto
          -41 -40 1 1 -41 hvcurveto
          27 122 81 277 17 82 rrcurveto
          endchar
        </CharString>
        <CharString name="Aring">
          -35 callgsubr
          60 20 56 21 hstem
          313 67 vstem
          410 925 67 callsubr
          26 rmoveto
          26 7 -15 -12 -19 -13 -10 -22 -22 -10 13 15 12 9 16 25 hvcurveto
          18 -135 -107 callgsubr
          endchar
        </CharString>
        <CharString name="Aringacute">
          124 -55 26 31 23 -4 -21 238 34 487 23 51 23 -23 139 hstemhm
          319 58 hintmask 11011101
          367 714 rmoveto
          14 -4 -10 5 -6 hhcurveto
          -10 -8 -9 -10 -3 hvcurveto
          -41 -135 -111 -338 -62 -172 -9 -24 -11 -11 -29 -3 -41 callsubr
          hvcurveto
          hintmask 10111101
          90 callgsubr
          vhcurveto
          hintmask 11011101
          1 42 42 1 42 hhcurveto
          hintmask 10111101
          42 42 -2 42 hhcurveto
          26 8 8 7 14 -21 0 -13 hvcurveto
          -30 1 -41 -3 18 vvcurveto
          30 40 99 19 64 vhcurveto
          254 hlineto
          9 -36 62 -48 callgsubr
          35 35 2 36 35 37 -2 35 hhcurveto
          23 12 3 11 12 -17 0 -19 -63 -32 5 27 -8 hvcurveto
          -239 650 rmoveto
          39 -146 41 -102 32 -131 rrcurveto
          -1 -41 -33 -1 -41 hhcurveto
          -41 -33 1 1 -41 hvcurveto
          27 122 74 175 17 82 rrcurveto
          67 156 67 callsubr
          24 rmoveto
          26 2 -13 -12 -19 -8 -7 -22 -22 -6 10 15 12 5 14 25 hvcurveto
          64 117 rmoveto
          hintmask 11011011
          -84 callsubr
          endchar
        </CharString>
        <CharString name="Atilde">
          -35 callgsubr
          74 32 -8 81 callgsubr
          hintmask 11110100
          -67 callgsubr
          -164 148 -61 callsubr
          hintmask 11111010
          -93 callgsubr
          hintmask 11110100
          27 callsubr
          hintmask 11111010
          -69 callsubr
        </CharString>
        <CharString name="B">
          105 0 32 363 34 358 34 hstemhm
          143 40 363 42 -2 44 hintmask 11110100
          50 28 rmoveto
          -17 -12 -6 -10 -12 20 0 31 hvcurveto
          190 hlineto
          193 175 58 162 105 -74 75 -114 21 hvcurveto
          hintmask 11111000
          90 24 56 74 93 vvcurveto
          138 -125 71 -142 -24 -151 -2 -1 -96 vhcurveto
          -15 -11 -4 -10 -8 8 -7 18 57 27 -1 -35 1 hvcurveto
          2 -72 6 -225 -143 -59 -1 -104 -98 vvcurveto
          -23 -52 -1 -40 vhcurveto
          212 367 rmoveto
          hintmask 11110100
          158 166 -19 -154 -180 -226 -10 -177 hvcurveto
          360 vlineto
          1 27 1 2 51 hhcurveto
          2 392 rmoveto
          hintmask 11111000
          135 147 -34 -148 -171 -197 -4 -96 -1 hvcurveto
          -44 -26 1 2 hvcurveto
          351 vlineto
          0 35 4 46 vhcurveto
          endchar
        </CharString>
        <CharString name="C">
          42 callgsubr
          hstem
          41 45 443 40 vstem
          584 214 -95 callsubr
          -16 callsubr
        </CharString>
        <CharString name="CR">
          -223 endchar
        </CharString>
        <CharString name="Cacute">
          42 callgsubr
          -31 164 hstemhm
          41 45 205 114 124 40 hintmask 11011110
          405 949 rmoveto
          -49 callsubr
          -60 -78 callgsubr
          53 21 vhcurveto
          179 -735 -95 callsubr
          hintmask 11101110
          -16 callsubr
        </CharString>
        <CharString name="Ccaron">
          42 callgsubr
          -31 165 hstemhm
          41 45 443 40 hintmask 11011100
          465 26 callgsubr
          -56 -49 -42 callgsubr
          119 -758 -95 callsubr
          hintmask 11101100
          -16 callsubr
        </CharString>
        <CharString name="Ccedilla">
          64 -206 29 52 60 -32 32 51 32 455 -20 354 31 hstemhm
          41 45 372 37 34 40 hintmask 1101111110000000
          584 214 -95 callsubr
          -23 callsubr
          -291 142 -122 141 -6 hvcurveto
          -3 -23 -7 -38 -4 -21 59 callgsubr
          hintmask 1011111110000000
          -25 callsubr
          15 81 rlineto
          165 9 66 137 81 vvcurveto
          endchar
        </CharString>
        <CharString name="Ccircumflex">
          42 callgsubr
          -31 165 hstemhm
          41 45 443 40 hintmask 11011100
          467 875 -10 callgsubr
          61 -25 -23 -104 -61 -83 callsubr
          14 69 30 23 36 hvcurveto
          -23 36 70 -30 14 hhcurveto
          117 -661 -95 callsubr
          hintmask 11101100
          -16 callsubr
        </CharString>
        <CharString name="Cdotaccent">
          42 callgsubr
          51 83 hstem
          41 45 228 75 140 40 vstem
          584 214 -95 callsubr
          -12 callgsubr
          -270 717 rmoveto
          -56 callsubr
        </CharString>
        <CharString name="D">
          113 0 34 752 35 hstem
          142 41 35 callsubr
          -192 -1 -39 -154 -76 callsubr
          738 vlineto
          1 20 22 3 20 hhcurveto
          endchar
        </CharString>
        <CharString name="Dcaron">
          113 0 34 752 35 -35 186 hstemhm
          135 48 -41 41 406 45 hintmask 10110100
          395 972 28 callgsubr
          -350 -154 4 callsubr
          hintmask 11001100
          -66 7 -192 -52 -192 -1 -39 -154 -76 callsubr
          738 vlineto
          1 20 22 3 20 hhcurveto
          endchar
        </CharString>
        <CharString name="Dcroat">
          -71 callgsubr
        </CharString>
        <CharString name="E">
          -62 callsubr
          52 callsubr
          hintmask 1001101011100000
          586 310 -104 callgsubr
          hintmask 1010011011100000
          -91 callgsubr
          hintmask 1010101011100000
          -43 callsubr
          hintmask 1010011011100000
          -92 callgsubr
          hintmask 0110100111100000
          -86 callgsubr
          hintmask 1010101011100000
          13 callgsubr
          hintmask 0110101011100000
          -87 callsubr
          endchar
        </CharString>
        <CharString name="Eacute">
          -62 callsubr
          -36 187 23 callsubr
          84 114 43 63 callsubr
          hintmask 1001001101111000
          382 950 rmoveto
          -84 callsubr
          204 -640 -104 callgsubr
          hintmask 1010010101111000
          -91 callgsubr
          hintmask 1010100101111000
          -43 callsubr
          hintmask 1010010101111000
          -92 callgsubr
          hintmask 0110100011111000
          -86 callgsubr
          hintmask 1010100101111000
          13 callgsubr
          hintmask 0110100101111000
          -87 callsubr
          endchar
        </CharString>
        <CharString name="Ebreve">
          -62 callsubr
          54 25 -25 97 23 callsubr
          36 121 callsubr
          -14 63 callsubr
          hintmask 1010100110110110
          439 948 -39 callgsubr
          hintmask 1010101010110110
          19 callgsubr
          hintmask 1001100110110110
          -33 callgsubr
          147 -638 12 callgsubr
          hintmask 1001101010101110
          40 8 -57 -36 -17 8 -12 9 5 10 4 23 hvcurveto
          37 -2 38 38 38 2 37 38 vvcurveto
          14 -1 13 -16 -17 0 -26 -4 -25 0 -65 -17 vhcurveto
          hintmask 1010011010110110
          -91 callgsubr
          hintmask 1010101010110110
          -43 callsubr
          hintmask 1010011010110110
          -92 callgsubr
          hintmask 0110101001110110
          -86 callgsubr
          hintmask 1010101010110110
          13 callgsubr
          hintmask 0110101010110110
          -87 callsubr
          endchar
        </CharString>
        <CharString name="Ecaron">
          -62 callsubr
          -36 187 98 callsubr
          25 74 37 8 36 hintmask 1001001101110000
          442 972 rmoveto
          -14 -50 -29 -23 -56 hvcurveto
          23 -56 -49 -42 callgsubr
          144 -662 -104 callgsubr
          hintmask 1010010101110000
          -91 callgsubr
          hintmask 1010100101110000
          -43 callsubr
          hintmask 1010010101110000
          -92 callgsubr
          hintmask 0110100011110000
          -86 callgsubr
          hintmask 1010100101110000
          13 callgsubr
          hintmask 0110100101110000
          -87 callsubr
          endchar
        </CharString>
        <CharString name="Ecircumflex">
          -62 callsubr
          -36 187 98 callsubr
          28 71 37 8 36 hintmask 1001001101110000
          445 875 -10 callgsubr
          61 -25 -23 -104 -61 -83 callsubr
          13 60 30 43 callsubr
          -30 14 hhcurveto
          141 -565 -104 callgsubr
          hintmask 1010010101110000
          -91 callgsubr
          hintmask 1010100101110000
          -43 callsubr
          hintmask 1010010101110000
          -92 callgsubr
          hintmask 0110100011110000
          -86 callgsubr
          hintmask 1010100101110000
          13 callgsubr
          hintmask 0110100101110000
          -87 callsubr
          endchar
        </CharString>
        <CharString name="Edieresis">
          -62 callsubr
          54 83 -69 83 23 callsubr
          2 121 callgsubr
          -43 30 69 37 8 36 hintmask 1010100110110110
          186 931 rmoveto
          -105 callgsubr
          207 -14 rmoveto
          hintmask 1001101010110110
          -105 callgsubr
          193 -607 12 callgsubr
          hintmask 1001101010101110
          40 8 -57 -36 -17 8 -12 9 5 10 4 23 hvcurveto
          37 -2 38 38 38 2 37 38 vvcurveto
          14 -1 13 -16 -17 0 -26 -4 -25 0 -65 -17 vhcurveto
          hintmask 1010011010110110
          -91 callgsubr
          hintmask 1010101010110110
          -43 callsubr
          hintmask 1010011010110110
          -92 callgsubr
          hintmask 0110101001110110
          -86 callgsubr
          hintmask 1010101010110110
          13 callgsubr
          hintmask 0110101010110110
          -87 callsubr
          endchar
        </CharString>
        <CharString name="Edotaccent">
          -62 callsubr
          68 83 23 callsubr
          107 75 59 63 callsubr
          hintmask 1001101101111000
          586 310 -104 callgsubr
          hintmask 1010011101111000
          -91 callgsubr
          hintmask 1010101101111000
          -43 callsubr
          hintmask 1010011101111000
          -92 callgsubr
          hintmask 0110101011111000
          -86 callgsubr
          hintmask 1010101101111000
          13 callgsubr
          hintmask 0110101101111000
          -87 callsubr
          -295 621 rmoveto
          -56 callsubr
        </CharString>
        <CharString name="Egrave">
          -62 callsubr
          -36 187 23 callsubr
          85 114 42 63 callsubr
          hintmask 1001001101111000
          269 -32 callsubr
          317 -640 -104 callgsubr
          hintmask 1010010101111000
          -91 callgsubr
          hintmask 1010100101111000
          -43 callsubr
          hintmask 1010010101111000
          -92 callgsubr
          hintmask 0110100011111000
          -86 callgsubr
          hintmask 1010100101111000
          13 callgsubr
          hintmask 0110100101111000
          -87 callsubr
          endchar
        </CharString>
        <CharString name="Emacron">
          -62 callsubr
          54 29 2 -20 21 -20 52 callsubr
          hintmask 1001101001011100
          586 310 -104 callgsubr
          hintmask 1010011001011100
          -91 callgsubr
          hintmask 1010101001011100
          -43 callsubr
          hintmask 1010011001011100
          -92 callgsubr
          hintmask 0110101000111100
          -86 callgsubr
          hintmask 1010101001011100
          13 callgsubr
          hintmask 0110100011011100
          -87 callsubr
          -120 597 rmoveto
          hintmask 1010101001011100
          35 callgsubr
          hintmask 1010100101011100
          -34 -68 -37 callsubr
          hintmask 1010101001011100
          -61 callgsubr
          hintmask 1010100011011100
          -14 callsubr
        </CharString>
        <CharString name="Eng">
          227 -219 36 107 70 6 28 746 30 -16 33 hstemhm
          144 41 183 35 -35 120 8 157 -40 40 hintmask 1111011010000000
          403 -110 rmoveto
          18 39 callgsubr
          hintmask 1111010110000000
          16 21 12 24 21 -17 13 -24 -49 -30 -52 -56 -84 67 -21 61 127 32 91 250 hvcurveto
          62 -2 81 329 vvcurveto
          2 0 15 2 138 vhcurveto
          24 63 1 19 17 21 1 14 -42 callsubr
          hintmask 1110111001000000
          89 callgsubr
          -671 vlineto
          -49 88 -206 356 -147 257 rrcurveto
          34 -19 -5 6 -16 hhcurveto
          -108 hlineto
          -37 -11 -4 -12 -15 13 -2 52 30 31 -15 -52 hvcurveto
          -19 3 -238 -113 -146 -1 -38 -93 vvcurveto
          -44 -30 -2 -46 -13 -16 -4 -10 -12 21 -2 20 vhcurveto
          192 116 callgsubr
          -76 707 hlineto
          425 -732 rlineto
          -154 -7 -20 -35 -90 hhcurveto
          -30 -60 4 69 hvcurveto
          endchar
        </CharString>
        <CharString name="Eogonek">
          82 -149 27 -27 67 82 36 367 34 -34 157 45 216 -36 36 23 callsubr
          64 44 133 63 callsubr
          hintmask 1010110101111000
          586 310 -104 callgsubr
          hintmask 1011001101111000
          -91 callgsubr
          hintmask 1011010101111000
          -43 callsubr
          hintmask 1011001101111000
          -92 callgsubr
          hintmask 0111010011111000
          -86 callgsubr
          1 76 76 1 76 hhcurveto
          -20 -14 -27 -26 -38 -58 callgsubr
          hintmask 1011010101111000
          115 callsubr
          7 40 31 22 hvcurveto
          -1 73 69 0 75 hhcurveto
          27 12 0 33 3 hvcurveto
          7 81 9 140 23 vvcurveto
          16 -1 17 -18 vhcurveto
          endchar
        </CharString>
        <CharString name="Eth">
          -71 callgsubr
        </CharString>
        <CharString name="Etilde">
          -62 callsubr
          68 32 -8 36 2 -20 52 callsubr
          hintmask 1001101011011100
          586 310 -104 callgsubr
          hintmask 1010011011011100
          -91 callgsubr
          hintmask 1010101011011100
          -43 callsubr
          hintmask 1010011011011100
          -92 callgsubr
          hintmask 0110101010111100
          -86 callgsubr
          hintmask 1010101011011100
          13 callgsubr
          hintmask 0110100101011100
          -87 callsubr
          -440 593 -61 callsubr
          hintmask 1010101011011100
          -93 callgsubr
          hintmask 1010100101011100
          27 callsubr
          hintmask 1010101011011100
          -69 callsubr
        </CharString>
        <CharString name="Euro">
          60 -14 32 251 31 135 31 1 -20 21 -20 21 -20 358 31 hstemhm
          98 45 -45 230 212 40 hintmask 1110001011000000
          577 166 rmoveto
          19 -3 10 -11 -14 1 -30 -16 -4 vhcurveto
          -105 -24 -65 -26 -88 hhcurveto
          -134 -64 105 146 -21 hvcurveto
          60 68 1 31 hhcurveto
          15 4 13 6 7 -6 7 -5 hvcurveto
          -32 -61 -3 -55 hhcurveto
          -23 hlineto
          -4 33 -1 35 36 vvcurveto
          31 vlineto
          63 72 1 33 hhcurveto
          15 4 13 6 hvcurveto
          hintmask 1100011101000000
          7 -6 7 -5 vhcurveto
          hintmask 1110001101000000
          -32 -61 -3 -55 hhcurveto
          -26 hlineto
          183 14 77 158 141 hhcurveto
          109 56 -80 -107 -29 2 -30 19 17 2 15 19 188 -110 55 -96 hvcurveto
          hintmask 1101001101000000
          -154 -105 -159 -212 -17 hvcurveto
          hintmask 1100101101000000
          -21 -20 1 -9 hhcurveto
          -11 -5 -9 -7 hvcurveto
          hintmask 1110001101000000
          -7 7 -10 9 vhcurveto
          48 -30 hlineto
          -38 2 -34 3 -32 vhcurveto
          -22 -21 1 -10 112 callgsubr
          58 hlineto
          -200 31 103 -83 121 hhcurveto
          160 56 96 84 hvcurveto
          endchar
        </CharString>
        <CharString name="F">
          11 0 28 376 34 -34 156 45 216 -36 36 93 callsubr
          -39 39 242 32 67 37 hintmask 1011010110000000
          140 72 rmoveto
          -41 -1 -33 -3 -57 hhcurveto
          -17 -11 -6 -9 -13 26 0 17 hvcurveto
          245 hlineto
          15 5 5 6 13 -11 6 -15 hvcurveto
          -117 hlineto
          14 -3 107 54 54 1 88 54 vvcurveto
          2 38 39 1 38 hhcurveto
          27 28 -1 -1 27 hvcurveto
          16 -1 28 -16 -78 vvcurveto
          -18 1 6 -10 10 hhcurveto
          12 3 10 28 hvcurveto
          32 -2 33 33 33 2 32 33 vvcurveto
          21 0 26 -15 -19 0 -21 -26 -13 0 -60 -14 vhcurveto
          hintmask 1100110110000000
          -10 -66 -2 -37 hhcurveto
          -37 -36 0 2 -39 hvcurveto
          345 301 vlineto
          27 12 -3 -38 hvcurveto
          -93 vlineto
          hintmask 1101001110000000
          -24 1 -22 19 17 0 30 16 vhcurveto
          122 vlineto
          35 -6 13 -28 vhcurveto
          -70 -70 -2 -70 -85 -85 2 -85 hhcurveto
          -18 -20 -1 -14 -6 4 -9 18 72 20 -12 -27 hvcurveto
          -100 6 -63 -100 vvcurveto
          -139 -1 -139 -3 -139 vhcurveto
          endchar
        </CharString>
        <CharString name="G">
          74 -14 25 callsubr
          hstemhm
          41 45 443 40 -28 28 hintmask 11111010
          516 269 -46 callsubr
          hintmask 11111100
          -99 callgsubr
          endchar
        </CharString>
        <CharString name="Gbreve">
          74 -14 25 callsubr
          37 25 -25 97 hstemhm
          41 45 155 121 callsubr
          69 40 -28 28 hintmask 1111011111000000
          460 948 -39 callgsubr
          hintmask 1111101111000000
          19 callgsubr
          hintmask 1111011110100000
          -33 callgsubr
          56 -679 -46 callsubr
          hintmask 1111101111000000
          -99 callgsubr
          endchar
        </CharString>
        <CharString name="Gcircumflex">
          74 -14 25 callsubr
          -31 165 hstemhm
          41 45 443 40 -28 28 hintmask 11101101
          466 875 -10 callgsubr
          61 -25 -23 -104 -61 -83 callsubr
          14 49 30 23 56 hvcurveto
          -23 56 50 -30 14 hhcurveto
          50 -606 -46 callsubr
          hintmask 11110110
          -99 callgsubr
          endchar
        </CharString>
        <CharString name="Gcommaaccent">
          75 -202 136 52 25 callsubr
          hstemhm
          42 45 218 82 -46 46 143 40 -28 28 hintmask 1111111001000000
          517 269 -46 callsubr
          hintmask 1111111010000000
          -99 callgsubr
          -212 -369 rmoveto
          hintmask 1111110110000000
          -94 callgsubr
          vhcurveto
          hintmask 1111111010000000
          -9 callsubr
        </CharString>
        <CharString name="Gdotaccent">
          74 -14 25 callsubr
          51 83 hstemhm
          41 45 226 75 142 40 -28 28 hintmask 1111111010000000
          516 269 -46 callsubr
          hintmask 1111111100000000
          -99 callgsubr
          -204 662 rmoveto
          -56 callsubr
        </CharString>
        <CharString name="H">
          68 callsubr
          340 30 -16 89 callsubr
          -41 41 294 150 -40 40 hintmask 1011101010000000
          629 752 rmoveto
          25 69 -107 callsubr
          28 42 -6 callsubr
          -315 vlineto
          -1 3 -132 -1 -68 hhcurveto
          -68 -68 0 2 -68 hvcurveto
          327 vlineto
          hintmask 1011011010000000
          25 59 -107 callsubr
          89 callgsubr
          hintmask 0111100101000000
          -116 4 -135 -95 callgsubr
          -5 7 -25 hvcurveto
          -96 370 hlineto
          1 68 68 1 68 hhcurveto
          68 132 -2 0 hvcurveto
          -382 vlineto
          -46 -37 0 -27 -12 -17 -3 -12 vhcurveto
          hintmask 1011101010000000
          -11 23 -2 18 vhcurveto
          208 -41 callgsubr
          29 -10 207 189 76 2 221 54 vvcurveto
          endchar
        </CharString>
        <CharString name="Hbar">
          68 callsubr
          133 35 172 30 -16 89 callsubr
          -45 45 294 150 -40 40 hintmask 1011110101000000
          686 606 rmoveto
          -9 -22 0 -1 -27 hvcurveto
          64 1 58 25 vvcurveto
          25 69 -107 callsubr
          28 42 -6 callsubr
          -149 vlineto
          -1 -73 -89 -1 -33 -22 -104 1 -80 hhcurveto
          162 vlineto
          hintmask 1011101101000000
          25 59 -107 callsubr
          hvcurveto
          hintmask 0111110010100000
          28 52 0 -23 -52 0 -55 1 -56 hvcurveto
          -54 hlineto
          -11 -5 -9 -8 -8 7 -10 9 hvcurveto
          55 hlineto
          1 -58 1 -58 -53 -116 -4 -102 -109 vvcurveto
          -46 -46 -93 callsubr
          212 hlineto
          -34 callsubr
          -5 7 -25 hvcurveto
          -96 370 hlineto
          1 68 68 1 68 hhcurveto
          68 132 -2 0 hvcurveto
          -382 vlineto
          -46 -37 0 -27 -12 -17 -3 -12 vhcurveto
          hintmask 1011110101000000
          -11 23 -2 18 vhcurveto
          208 -41 callgsubr
          29 -10 207 189 vvcurveto
          170 51 vlineto
          15 4 14 6 8 -6 7 -5 hvcurveto
          -299 -169 rmoveto
          -68 -68 0 2 -68 hvcurveto
          131 vlineto
          116 171 1 114 hhcurveto
          -132 vlineto
          -1 3 -132 -1 -68 hhcurveto
          endchar
        </CharString>
        <CharString name="Hcircumflex">
          68 callsubr
          340 30 -16 30 151 -20 93 callsubr
          -41 41 294 150 -40 40 hintmask 1011101101000000
          508 876 -10 callgsubr
          60 -25 -23 -104 -60 -83 callsubr
          14 59 29 43 callsubr
          -29 14 hhcurveto
          121 -124 rmoveto
          25 69 -107 callsubr
          28 42 -6 callsubr
          -315 vlineto
          -1 3 -132 -1 -68 hhcurveto
          -68 -68 0 2 -68 hvcurveto
          327 vlineto
          hintmask 1011011101000000
          25 59 -107 callsubr
          89 callgsubr
          hintmask 0111101010100000
          -116 4 -135 -95 callgsubr
          -5 7 -25 hvcurveto
          -96 370 hlineto
          1 68 68 1 68 hhcurveto
          68 132 -2 0 hvcurveto
          -382 vlineto
          -46 -37 0 -27 -12 -17 -3 -12 vhcurveto
          hintmask 1011101101000000
          -11 23 -2 18 vhcurveto
          208 -41 callgsubr
          29 -10 207 189 76 2 221 54 vvcurveto
          endchar
        </CharString>
        <CharString name="I">
          14 callsubr
          hstemhm
          21 162 vstemhm
          -72 callgsubr
          hintmask 11100000
          2 callsubr
        </CharString>
        <CharString name="IJ">
          256 -14 34 -20 31 136 70 554 89 callsubr
          130 82 callsubr
          hintmask 0101100000000000
          -72 callgsubr
          -116 4 -135 -116 -44 callgsubr
          hlineto
          hintmask 1011010100000000
          161 100 rmoveto
          20 39 callgsubr
          hintmask 1011001100000000
          -53 callsubr
          hintmask 1011010010000000
          9 callgsubr
        </CharString>
        <CharString name="Iacute">
          14 callsubr
          151 -20 93 callsubr
          -85 114 hintmask 11101000
          212 950 rmoveto
          -84 callsubr
          hintmask 11110000
          -29 -184 rmoveto
          25 59 -107 callsubr
          89 callgsubr
          2 callsubr
        </CharString>
        <CharString name="Ibreve">
          14 callsubr
          54 25 -25 97 93 callsubr
          -133 34 58 41 50 36 hintmask 11011001
          269 948 -39 callgsubr
          hintmask 11100111
          19 callgsubr
          hintmask 11010111
          -33 callgsubr
          hintmask 11101001
          -86 -182 rmoveto
          25 59 -107 callsubr
          89 callgsubr
          2 callsubr
        </CharString>
        <CharString name="Icircumflex">
          14 callsubr
          151 -20 hstemhm
          28 155 -41 41 -41 141 hintmask 11100100
          275 875 -10 callgsubr
          61 -25 hvcurveto
          hintmask 11110000
          -23 -104 -61 -83 callsubr
          13 60 30 43 callsubr
          -30 14 hhcurveto
          -92 -109 rmoveto
          25 59 -107 callsubr
          89 callgsubr
          hintmask 11101000
          2 callsubr
        </CharString>
        <CharString name="Idieresis">
          14 callsubr
          54 83 -69 83 hstemhm
          16 75 51 41 40 75 hintmask 11011110
          16 931 rmoveto
          -105 callgsubr
          207 -14 rmoveto
          hintmask 11101110
          -105 callgsubr
          -40 -151 rmoveto
          25 59 -107 callsubr
          89 callgsubr
          2 callsubr
        </CharString>
        <CharString name="Idotaccent">
          14 callsubr
          68 83 93 callsubr
          -62 75 hintmask 11110000
          -72 callgsubr
          -116 4 -135 -116 -44 callgsubr
          hlineto
          hintmask 11101000
          -62 900 rmoveto
          -56 callsubr
        </CharString>
        <CharString name="Igrave">
          14 callsubr
          150 -20 93 callsubr
          -84 114 hintmask 11101000
          99 949 rmoveto
          -21 87 -53 53 callsubr
          60 -19 -11 -8 -3 -19 vhcurveto
          hintmask 11110000
          84 -183 rmoveto
          25 59 -107 callsubr
          89 callgsubr
          2 callsubr
        </CharString>
        <CharString name="Imacron">
          14 callsubr
          54 22 callsubr
          21 162 -41 167 hintmask 11100100
          -72 callgsubr
          hintmask 11100010
          -116 4 -135 -95 callgsubr
          -15 7 -15 hvcurveto
          hintmask 11001100
          -96 hlineto
          113 876 rmoveto
          hintmask 11100100
          35 callgsubr
          hintmask 11010100
          -34 -68 -37 callsubr
          hintmask 11100100
          -61 callgsubr
          hintmask 11001100
          -14 callsubr
        </CharString>
        <CharString name="Iogonek">
          -236 -149 27 -27 67 82 31 760 89 callsubr
          -103 44 18 41 hintmask 10111000
          -72 callgsubr
          hintmask 01110110
          -116 4 -135 -90 callgsubr
          47 hlineto
          -19 -14 -25 -25 -37 -58 callgsubr
          hintmask 10110110
          115 callsubr
          6 38 29 23 hvcurveto
          130 116 callgsubr
          hintmask 10111000
          -96 hlineto
          endchar
        </CharString>
        <CharString name="Itilde">
          14 callsubr
          68 32 -8 36 2 -20 93 callsubr
          hintmask 11101100
          -72 callgsubr
          hintmask 11010100
          -116 4 -135 -116 -44 callgsubr
          hlineto
          -191 872 -61 callsubr
          hintmask 11101100
          -93 callgsubr
          hintmask 11010100
          27 callsubr
          hintmask 11101100
          -69 callsubr
        </CharString>
        <CharString name="J">
          -59 -14 34 147 70 554 30 hstemhm
          -2 82 callsubr
          hintmask 11110100
          29 131 rmoveto
          20 39 callgsubr
          hintmask 11101100
          -53 callsubr
          hintmask 11110010
          9 callgsubr
        </CharString>
        <CharString name="Jcircumflex">
          -59 -14 34 147 70 554 30 151 -20 hstemhm
          -2 82 callsubr
          -42 149 hintmask 1111100010000000
          480 875 -10 callgsubr
          61 -25 -23 -104 -61 -83 callsubr
          14 59 31 43 callsubr
          -31 14 hhcurveto
          -451 -744 rmoveto
          20 39 callgsubr
          hintmask 1111011000000000
          -53 callsubr
          hintmask 1111100100000000
          9 callgsubr
        </CharString>
        <CharString name="K">
          160 -36 32 4 30 740 25 -4 89 callsubr
          340 199 hintmask 11011100
          -72 callgsubr
          hintmask 11101100
          -116 4 -135 -95 callgsubr
          -15 6 -15 hvcurveto
          -96 305 hlineto
          35 35 rlineto
          -133 104 192 -273 36 hhcurveto
          94 78 0 19 13 -15 0 -31 -55 -54 1 11 -10 hvcurveto
          -109 119 -200 268 0 vvcurveto
          106 116 143 146 96 92 21 20 50 -1 48 2 rrcurveto
          13 7 5 6 10 -11 4 -12 hvcurveto
          -257 33 callsubr
          -20 -251 -257 -89 -82 vhcurveto
          endchar
        </CharString>
        <CharString name="K.salt">
          178 -47 30 -30 126 -79 28 375 33 334 25 -4 30 hstemhm
          23 162 -44 44 -44 152 375 35 hintmask 1011011001000000
          185 766 rmoveto
          25 59 0 12 vhcurveto
          hintmask 1011010011000000
          16 -81 callsubr
          hvcurveto
          -182 hlineto
          hintmask 1011011001000000
          -12 -25 -1 -14 -13 23 -2 25 hvcurveto
          hintmask 1011100101000000
          70 0 -1 -92 hvcurveto
          -50 3 -219 -25 vvcurveto
          -25 -3 -193 -2 -114 vhcurveto
          -1 -42 -28 -1 -62 28 callsubr
          305 hlineto
          66 68 226 -7 31 -100 8 -76 rlinecurve
          -103 11 -22 -164 116 hhcurveto
          38 44 18 79 hvcurveto
          hintmask 0101101001000000
          12 -1 17 -17 -14 -2 -12 -13 -1 vhcurveto
          hintmask 1011101001000000
          -47 -3 -15 -24 -27 hhcurveto
          -70 10 155 82 -7 hvcurveto
          -6 63 -28 150 -239 3 128 131 110 112 74 70 16 15 37 3 66 3 rrcurveto
          15 1 5 4 7 vvcurveto
          9 -11 4 -12 vhcurveto
          -257 hlineto
          -27 -7 -8 -7 -14 23 0 11 18 53 0 -12 -27 -248 -250 -92 -86 hvcurveto
          endchar
        </CharString>
        <CharString name="Kcommaaccent">
          160 -202 136 30 32 4 30 740 25 -4 89 callsubr
          143 82 -46 46 115 199 hintmask 1110111010000000
          -72 callgsubr
          hintmask 1111011010000000
          -116 4 -135 -95 callgsubr
          -15 6 -15 hvcurveto
          -96 305 hlineto
          35 35 rlineto
          -133 104 192 -273 36 hhcurveto
          94 78 0 19 13 -15 0 -31 -55 -54 1 11 -10 hvcurveto
          -109 119 -200 268 0 vvcurveto
          106 116 143 146 96 92 21 20 50 -1 48 2 rrcurveto
          13 7 5 6 10 -11 4 -12 hvcurveto
          -257 33 callsubr
          -20 -251 -257 -89 -82 vhcurveto
          143 -491 rmoveto
          hintmask 1111010110000000
          -94 callgsubr
          vhcurveto
          hintmask 1111011010000000
          -9 callsubr
        </CharString>
        <CharString name="L">
          -19 0 36 755 107 callsubr
          294 37 hintmask 11101000
          53 28 rmoveto
          -87 callgsubr
          hintmask 11011000
          -6 callgsubr
        </CharString>
        <CharString name="Lacute">
          -19 0 36 755 30 150 -20 hstemhm
          18 170 -83 114 -72 41 294 37 hintmask 11101010
          219 949 rmoveto
          -49 callsubr
          -60 -78 callgsubr
          53 21 vhcurveto
          -166 -921 rmoveto
          hintmask 11110010
          -87 callgsubr
          hintmask 11100110
          -6 callgsubr
        </CharString>
        <CharString name="Lcaron">
          -18 0 36 725 30 -30 211 hstemhm
          19 170 -41 142 193 37 hintmask 11010100
          54 -5 callgsubr
          700 -53 callgsubr
          hintmask 10101100
          -81 6 -48 -179 -126 -2 -199 -33 vvcurveto
          -30 -49 0 -43 vhcurveto
          228 944 28 callgsubr
          endchar
        </CharString>
        <CharString name="Lcommaaccent">
          -19 -204 136 68 36 755 107 callsubr
          65 82 -46 46 147 37 hintmask 11110101
          253 -102 rmoveto
          hintmask 11110011
          -94 callgsubr
          vhcurveto
          hintmask 11110101
          -27 -13 -17 -17 hvcurveto
          -200 130 rmoveto
          -87 callgsubr
          hintmask 11101101
          -6 callgsubr
        </CharString>
        <CharString name="Ldot">
          -20 0 36 283 78 394 107 callsubr
          105 87 102 37 hintmask 11110110
          293 357 -55 callsubr
          -240 -329 rmoveto
          -87 callgsubr
          hintmask 11101110
          -6 callgsubr
        </CharString>
        <CharString name="Lslash">
          -21 0 36 355 33 367 30 hstemhm
          16 170 -41 41 294 37 hintmask 11110100
          51 -5 callgsubr
          355 hlineto
          49 49 1 35 hhcurveto
          21 6 14 6 7 -8 8 -7 hvcurveto
          -42 -37 -3 -66 hhcurveto
          342 vlineto
          -64 callsubr
          hintmask 11101100
          -80 6 -77 -173 vvcurveto
          -41 -42 2 -22 hhcurveto
          -15 -7 -10 -7 -7 10 -11 12 hvcurveto
          105 hlineto
          -126 -2 -176 -31 vvcurveto
          -30 -49 0 -43 vhcurveto
          endchar
        </CharString>
        <CharString name="M">
          438 -41 31 3 -21 28 31 -23 -21 814 -20 hstemhm
          146 41 601 41 hintmask 01101110
          974 753 rmoveto
          20 2 8 6 7 vvcurveto
          13 -14 0 -21 vhcurveto
          -136 hlineto
          -48 5 -5 -37 -13 hvcurveto
          -53 -150 -161 -389 -57 -155 -49 156 -203 434 -39 126 rrcurveto
          36 -11 -7 4 -19 hhcurveto
          -111 hlineto
          -10 -38 0 -20 hvcurveto
          -30 126 35 -48 -114 3 -120 -121 vvcurveto
          -107 -2 -106 -69 callgsubr
          673 hlineto
          49 -129 187 -421 59 -161 rrcurveto
          -14 5 7 -7 7 hhcurveto
          11 8 11 5 2 hvcurveto
          40 85 119 308 107 281 rrcurveto
          -629 vlineto
          hintmask 00011110
          -46 -37 0 -27 vhcurveto
          hintmask 01101110
          -12 -17 -3 -12 hvcurveto
          hintmask 10101110
          -11 23 -2 18 vhcurveto
          210 hlineto
          hintmask 01101110
          -35 callsubr
          hvcurveto
          hintmask 10101110
          11 -15 7 -15 vhcurveto
          -102 hlineto
          59 -5 211 120 157 4 100 61 vvcurveto
          21 2 23 29 3 vhcurveto
          41 4 28 0 41 4 rrcurveto
          endchar
        </CharString>
        <CharString name="N">
          41 callgsubr
          17 -20 113 callsubr
          hintmask 01101100
          610 6 -81 callgsubr
          hintmask 10011010
          -96 callgsubr
          endchar
        </CharString>
        <CharString name="NULL">
          -561 endchar
        </CharString>
        <CharString name="Nacute">
          41 callgsubr
          168 -20 hstemhm
          144 41 145 124 42 157 -40 40 hintmask 01111110
          454 950 rmoveto
          -58 callsubr
          -86 -61 -83 callsubr
          19 97 54 21 vhcurveto
          156 -944 -81 callgsubr
          hintmask 10111101
          -96 callgsubr
          endchar
        </CharString>
        <CharString name="Ncaron">
          41 callgsubr
          -30 198 113 callsubr
          hintmask 01011100
          504 26 callgsubr
          -46 -59 -42 callgsubr
          106 -966 rmoveto
          -13 8 7 -4 9 hhcurveto
          7 14 2 15 hvcurveto
          -1 94 -1 181 87 vvcurveto
          163 2 64 2 154 vhcurveto
          96 callsubr
          vhcurveto
          hintmask 10101100
          -42 callsubr
          hintmask 10101010
          -96 callgsubr
          endchar
        </CharString>
        <CharString name="Ncommaaccent">
          227 -203 136 67 88 callsubr
          17 -20 hstemhm
          144 41 198 82 -46 46 31 157 -40 40 hintmask 1011011010000000
          610 6 -81 callgsubr
          hintmask 1100111001000000
          -96 callgsubr
          198 -839 rmoveto
          hintmask 1101010110000000
          -94 callgsubr
          vhcurveto
          hintmask 1101011010000000
          -9 callsubr
        </CharString>
        <CharString name="Ndotaccent">
          41 callgsubr
          85 83 hstemhm
          144 41 168 75 68 157 -40 40 hintmask 01111110
          610 6 -81 callgsubr
          hintmask 10111101
          -96 callgsubr
          168 193 rmoveto
          -56 callsubr
        </CharString>
        <CharString name="Ntilde">
          41 callgsubr
          85 32 -8 36 2 -20 113 callsubr
          hintmask 0111011100000000
          610 6 -81 callgsubr
          hintmask 1010101010000000
          -96 callgsubr
          37 165 -61 callsubr
          hintmask 1011011100000000
          -93 callgsubr
          hintmask 1010101100000000
          27 callsubr
          hintmask 1011011100000000
          -69 callsubr
        </CharString>
        <CharString name="O">
          108 callsubr
          hstem
          41 45 514 45 vstem
          86 400 -23 callgsubr
        </CharString>
        <CharString name="OE">
          544 -16 34 -18 36 367 34 -34 157 45 216 -36 36 -14 31 hstemhm
          41 45 514 46 241 63 callsubr
          hintmask 1010100111110000
          41 404 rmoveto
          -294 150 -126 149 86 116 48 142 61 vhcurveto
          -110 vlineto
          hintmask 0101100111110000
          -53 0 -11 58 vhcurveto
          33 40 2 81 81 32 -2 81 hhcurveto
          27 12 0 33 3 hvcurveto
          7 81 9 140 23 vvcurveto
          16 -1 17 -18 34 callsubr
          vhcurveto
          -2 -55 -8 -109 -3 -36 rrcurveto
          -34 -3 -20 -3 -20 hhcurveto
          -329 365 hlineto
          1 38 38 1 38 38 23 -1 18 hhcurveto
          40 8 -57 -36 -17 8 -12 9 5 10 4 23 hvcurveto
          37 -2 38 38 38 2 37 38 vvcurveto
          14 -1 13 -16 -17 0 -26 -4 -25 0 -65 -17 vhcurveto
          hintmask 1010010111110000
          -91 callgsubr
          hintmask 1010100111110000
          -43 callsubr
          hintmask 1010010111110000
          134 vlineto
          28 -10 8 -18 vhcurveto
          -118 -10 -2 -99 -50 -33 2 -42 hhcurveto
          -44 0 -35 -36 -34 0 -33 1 -36 hvcurveto
          hintmask 1010001111110000
          114 -47 -84 77 -113 hhcurveto
          -205 -110 -230 -204 hvcurveto
          45 -4 rmoveto
          192 88 215 188 138 100 -176 -221 -260 -110 -132 -148 -155 -101 147 235 vhcurveto
          endchar
        </CharString>
        <CharString name="Oacute">
          40 callgsubr
          210 114 190 45 hintmask 10111100
          410 950 rmoveto
          -84 callsubr
          -324 -550 -96 callsubr
          vhcurveto
          hintmask 11011100
          24 callsubr
        </CharString>
        <CharString name="Obreve">
          108 callsubr
          37 25 -25 97 hstemhm
          41 45 162 121 callsubr
          133 45 hintmask 11011111
          467 948 -39 callgsubr
          hintmask 11101111
          19 callgsubr
          hintmask 11011111
          -33 callgsubr
          -381 -548 -23 callgsubr
        </CharString>
        <CharString name="Ocircumflex">
          40 callgsubr
          514 45 hintmask 10111000
          473 875 -10 callgsubr
          61 -25 -23 -104 -61 -83 callsubr
          13 60 30 43 callsubr
          -30 14 hhcurveto
          -387 -475 -96 callsubr
          vhcurveto
          hintmask 11011000
          24 callsubr
        </CharString>
        <CharString name="Odieresis">
          108 callsubr
          37 83 -69 83 hstemhm
          41 45 128 121 callgsubr
          104 45 hintmask 11011111
          214 931 rmoveto
          -105 callgsubr
          207 -14 rmoveto
          hintmask 11101111
          -105 callgsubr
          -335 -517 -23 callgsubr
        </CharString>
        <CharString name="Ograve">
          40 callgsubr
          211 114 189 45 hintmask 10111100
          297 -32 callsubr
          -211 -550 -96 callsubr
          vhcurveto
          hintmask 11011100
          24 callsubr
        </CharString>
        <CharString name="Ohungarumlaut">
          40 callgsubr
          146 114 40 114 100 45 hintmask 10111110
          346 950 rmoveto
          -84 callsubr
          154 hmoveto
          -84 callsubr
          -414 -550 -96 callsubr
          vhcurveto
          hintmask 11011110
          24 callsubr
        </CharString>
        <CharString name="Omacron">
          108 callsubr
          37 22 callsubr
          41 45 514 45 hintmask 11001110
          86 400 -96 callsubr
          -63 callsubr
          vhcurveto
          453 503 rmoveto
          hintmask 11100110
          35 callgsubr
          hintmask 11010110
          -34 -68 -37 callsubr
          hintmask 11100110
          -61 callgsubr
          hintmask 11001110
          -14 callsubr
        </CharString>
        <CharString name="Oogonek">
          124 -169 27 -27 67 87 33 789 31 hstemhm
          40 45 184 44 286 45 hintmask 01111110
          40 404 rmoveto
          -282 138 -127 142 -10 vhcurveto
          -20 -13 -31 -27 -41 -58 callgsubr
          hintmask 10111110
          118 callgsubr
          7 43 34 22 hvcurveto
          122 8 168 102 313 vvcurveto
          -63 callsubr
          vhcurveto
          45 -4 rmoveto
          192 88 215 188 138 100 -176 -221 -260 -110 -132 -148 -155 -101 147 235 vhcurveto
          endchar
        </CharString>
        <CharString name="Oslash">
          -16 34 -16 -21 826 31 hstemhm
          41 45 514 45 hintmask 10111000
          116 callsubr
          hintmask 01111000
          -7 5 -5 9 16 4 6 18 9 vhcurveto
          20 38 rlineto
          hintmask 10111000
          -65 callsubr
          endchar
        </CharString>
        <CharString name="Oslashacute">
          -16 34 -16 -21 826 69 callgsubr
          230 114 170 45 hintmask 10101110
          116 callsubr
          hintmask 01101110
          -7 5 -5 9 16 4 6 18 9 vhcurveto
          20 38 rlineto
          hintmask 10101110
          -65 callsubr
          -170 540 rmoveto
          hintmask 10011110
          -49 callsubr
          -60 -78 callgsubr
          53 21 vhcurveto
          endchar
        </CharString>
        <CharString name="Otilde">
          108 callsubr
          51 32 -8 81 callgsubr
          41 45 514 45 hintmask 11010110
          86 400 -96 callsubr
          -63 callsubr
          vhcurveto
          135 499 -61 callsubr
          hintmask 11101110
          -93 callgsubr
          hintmask 11010110
          27 callsubr
          hintmask 11101110
          -69 callsubr
        </CharString>
        <CharString name="P">
          38 0 31 323 34 401 32 hstem
          141 42 360 45 vstem
          45 callsubr
          325 66 callsubr
          vhcurveto
          -111 -38 -3 -96 75 callsubr
          -70 6 -115 -127 -163 -1 -43 113 callgsubr
          759 32 callgsubr
        </CharString>
        <CharString name="Q">
          -90 32 11 65 789 31 hstem
          41 45 514 45 vstem
          203 -68 rmoveto
          -7 7 -5 7 vhcurveto
          19 56 33 49 38 53 -43 51 hhcurveto
          55 47 19 18 9 -3 7 -7 -6 -11 -4 -6 -16 hvcurveto
          -8 -21 -21 -3 -18 hhcurveto
          -34 -48 32 11 -38 hvcurveto
          122 12 161 104 307 vvcurveto
          -63 callsubr
          -274 130 -129 138 -15 vhcurveto
          -21 -4 -22 -7 -19 -9 rrcurveto
          -29 -13 -15 -11 -10 vvcurveto
          -117 468 rmoveto
          192 88 215 188 138 100 -176 -221 -260 -110 -132 -148 -155 -101 147 235 vhcurveto
          endchar
        </CharString>
        <CharString name="R">
          96 -44 60 callsubr
          hstemhm
          24 159 -41 41 360 45 hintmask 11111010
          543 588 -83 callgsubr
          168 -175 59 -122 hvcurveto
          -8 callsubr
          hintmask 11110110
          -66 callgsubr
          endchar
        </CharString>
        <CharString name="R.salt">
          113 -96 30 66 28 345 35 379 34 hstemhm
          25 159 -47 47 360 45 hintmask 11111010
          589 602 rmoveto
          170 -157 49 -175 vhcurveto
          -43 -73 -3 -58 hhcurveto
          -34 -24 -1 -13 -15 23 0 9 hvcurveto
          hintmask 11110110
          57 22 -1 -41 1 hvcurveto
          2 -112 4 -204 -19 vvcurveto
          -19 -4 -258 -1 -63 vhcurveto
          -1 -42 -30 -1 -60 28 callsubr
          343 hlineto
          239 37 -104 -78 8 hvcurveto
          -103 11 -26 -184 124 hhcurveto
          40 43 19 79 12 -1 16 -17 -14 -2 -12 -7 hvcurveto
          -29 -2 -4 -48 -41 hhcurveto
          -77 18 169 88 -7 hvcurveto
          -11 135 -73 34 -56 24 rrcurveto
          119 21 97 63 134 vvcurveto
          -45 -5 rmoveto
          -165 -187 -24 -131 vhcurveto
          -3 -37 2 -2 hhcurveto
          370 vlineto
          0 31 7 48 77 204 -18 -172 vhcurveto
          endchar
        </CharString>
        <CharString name="Racute">
          96 -44 60 callsubr
          -34 185 hstemhm
          24 159 -41 41 49 114 197 45 hintmask 1110110110000000
          346 950 rmoveto
          -84 callsubr
          197 -362 -83 callgsubr
          hvcurveto
          hintmask 1111010110000000
          168 -175 59 -122 vhcurveto
          -8 callsubr
          hintmask 1111001110000000
          -66 callgsubr
          endchar
        </CharString>
        <CharString name="Rcaron">
          96 -44 60 callsubr
          -34 185 hstemhm
          24 159 -41 41 360 45 hintmask 11101101
          419 26 callgsubr
          -46 -59 -42 callgsubr
          124 -384 -83 callgsubr
          hvcurveto
          hintmask 11110101
          168 -175 59 -122 vhcurveto
          -8 callsubr
          hintmask 11110011
          -66 callgsubr
          endchar
        </CharString>
        <CharString name="Rcommaaccent">
          96 -202 136 22 60 callsubr
          hstemhm
          24 159 -41 41 117 82 -46 46 161 45 hintmask 1111110101000000
          543 588 -83 callgsubr
          168 -175 59 -122 hvcurveto
          -8 callsubr
          hintmask 1111101101000000
          -66 callgsubr
          87 -452 rmoveto
          hintmask 1111110011000000
          -94 callgsubr
          vhcurveto
          hintmask 1111110101000000
          -9 callsubr
        </CharString>
        <CharString name="S">
          31 -16 30 793 30 hstemhm
          58 41 411 30 -30 42 hintmask 11110000
          84 91 -89 callsubr
          hintmask 11101000
          -97 callgsubr
          endchar
        </CharString>
        <CharString name="Sacute">
          58 callsubr
          160 114 137 30 -30 42 hintmask 10111100
          373 950 rmoveto
          -84 callsubr
          -289 -859 -89 callsubr
          hintmask 11011010
          -97 callgsubr
          endchar
        </CharString>
        <CharString name="Scaron">
          58 callsubr
          411 30 -30 42 hintmask 10111000
          433 26 callgsubr
          -46 -59 -42 callgsubr
          -349 -881 -89 callsubr
          hintmask 11010100
          -97 callgsubr
          endchar
        </CharString>
        <CharString name="Schwa">
          73 -11 33 308 38 436 33 hstemhm
          29 47 -33 49 455 45 hintmask 11101100
          539 334 rmoveto
          -137 -20 -82 -175 -139 hhcurveto
          -138 -68 173 99 20 5 13 19 hvcurveto
          428 41 rmoveto
          -51 -160 -2 -45 hhcurveto
          -74 -75 0 -2 -47 hvcurveto
          -34 -1 -15 -37 -36 vvcurveto
          -94 74 -207 177 165 133 179 257 233 -99 179 -195 vhcurveto
          hintmask 11110100
          -124 -145 -115 -163 -19 8 -12 15 14 10 12 19 129 113 116 112 167 79 -200 -165 -21 -2 -26 -1 -24 hvcurveto
          endchar
        </CharString>
        <CharString name="Scircumflex">
          58 callsubr
          411 30 -30 42 hintmask 10111000
          436 875 -10 callgsubr
          61 -25 -23 -104 -61 -83 callsubr
          13 60 30 43 callsubr
          -30 14 hhcurveto
          -352 -784 -89 callsubr
          hintmask 11010100
          -97 callgsubr
          endchar
        </CharString>
        <CharString name="T">
          48 0 31 754 36 hstem
          16 37 229 41 232 37 vstem
          278 785 rmoveto
          -116 4 -152 -116 -44 callgsubr
          754 195 hlineto
          35 2 -11 -38 hvcurveto
          -116 vlineto
          -42 2 -13 17 10 8 4 40 vhcurveto
          21 -1 41 22 21 1 42 22 vvcurveto
          39 -6 4 -32 vhcurveto
          -90 -70 -2 -90 -90 -70 2 -90 hhcurveto
          -32 -6 -4 -39 hvcurveto
          -22 1 -42 -21 -22 -1 -41 -21 vvcurveto
          -40 8 -4 10 17 2 13 42 vhcurveto
          116 vlineto
          38 2 11 35 vhcurveto
          endchar
        </CharString>
        <CharString name="Tbar">
          48 0 31 386 36 332 36 hstemhm
          16 37 229 41 -41 167 106 37 hintmask 11111010
          278 785 rmoveto
          -100 3 -125 1 -107 vhcurveto
          -38 -55 2 -15 hhcurveto
          -11 -5 -12 -7 -7 7 -12 9 hvcurveto
          108 -16 hlineto
          -116 -4 -102 -109 vvcurveto
          -46 -46 -93 callsubr
          212 hlineto
          hintmask 11110110
          84 callsubr
          hintmask 11111010
          -96 386 hlineto
          45 44 1 23 hhcurveto
          15 4 15 6 7 -6 10 -5 hvcurveto
          -29 -43 -3 -48 hhcurveto
          332 195 vlineto
          35 2 -11 -38 hvcurveto
          -116 vlineto
          -42 2 -13 17 10 8 4 40 vhcurveto
          21 -1 41 22 21 1 42 22 vvcurveto
          39 -6 4 -32 vhcurveto
          -90 -70 -2 -90 -90 -70 2 -90 hhcurveto
          -32 -6 -4 -39 hvcurveto
          -22 1 -42 -21 -22 -1 -41 -21 vvcurveto
          -40 8 -4 10 17 2 13 42 vhcurveto
          116 vlineto
          38 2 11 35 vhcurveto
          endchar
        </CharString>
        <CharString name="Tcaron">
          48 0 31 754 36 -36 187 hstemhm
          16 37 119 151 -41 41 232 37 hintmask 10111010
          419 972 rmoveto
          -14 -60 -30 -23 -46 hvcurveto
          23 -46 -60 30 -13 hhcurveto
          -5 -3 -2 -9 -25 104 -61 23 25 103 61 25 9 -3 2 -5 hvcurveto
          -141 -187 rmoveto
          hintmask 11010110
          -116 4 -152 -116 -44 callgsubr
          754 195 hlineto
          35 2 -11 -38 hvcurveto
          -116 vlineto
          -42 2 -13 17 10 8 4 40 vhcurveto
          21 -1 41 22 21 1 42 22 vvcurveto
          39 -6 4 -32 vhcurveto
          -90 -70 -2 -90 -90 -70 2 -90 hhcurveto
          -32 -6 -4 -39 hvcurveto
          -22 1 -42 -21 -22 -1 -41 -21 vvcurveto
          -40 8 -4 10 17 2 13 42 vhcurveto
          116 vlineto
          38 2 11 35 vhcurveto
          endchar
        </CharString>
        <CharString name="Thorn">
          48 0 31 151 34 399 34 142 89 callsubr
          -42 42 360 45 hintmask 11111010
          45 callsubr
          153 66 callsubr
          -49 -34 0 -1 -32 vhcurveto
          112 vlineto
          31 41 0 25 19 23 1 14 15 -30 0 -10 vhcurveto
          -33 -119 -2 -46 75 callsubr
          hintmask 11110110
          -70 6 -158 -127 -163 -1 -1 113 callgsubr
          587 32 callgsubr
        </CharString>
        <CharString name="U">
          -11 callgsubr
          30 callsubr
          hintmask 11110100
          170 766 rmoveto
          25 63 -107 callsubr
          89 callgsubr
          hintmask 11101100
          -101 callgsubr
          hintmask 11110010
          -40 callgsubr
        </CharString>
        <CharString name="Uacute">
          80 callgsubr
          -39 39 154 114 33 163 -40 40 hintmask 1111101100000000
          438 950 rmoveto
          -84 callsubr
          -268 -184 rmoveto
          25 63 -107 callsubr
          89 callgsubr
          hintmask 1111011100000000
          -101 callgsubr
          hintmask 1111101010000000
          -40 callgsubr
        </CharString>
        <CharString name="Ubreve">
          -11 callgsubr
          54 25 -25 97 51 callgsubr
          106 121 callsubr
          -24 163 -40 40 hintmask 1110110110100000
          495 948 -39 callgsubr
          hintmask 1111010110100000
          19 callgsubr
          hintmask 1110110110100000
          -33 callgsubr
          -325 -182 rmoveto
          25 63 -107 callsubr
          89 callgsubr
          hintmask 1111001101000000
          -101 callgsubr
          hintmask 1111010110100000
          -40 callgsubr
        </CharString>
        <CharString name="Ucircumflex">
          80 callgsubr
          -39 39 301 163 -40 40 hintmask 11111010
          501 875 -10 callgsubr
          61 -25 -23 -104 -61 -83 callsubr
          13 60 30 43 callsubr
          -30 14 hhcurveto
          -331 -109 rmoveto
          25 63 -107 callsubr
          89 callgsubr
          hintmask 11110110
          -101 callgsubr
          hintmask 11111001
          -40 callgsubr
        </CharString>
        <CharString name="Udieresis">
          -11 callgsubr
          54 83 -69 83 51 callgsubr
          72 121 callgsubr
          -53 163 -40 40 hintmask 1110110110100000
          242 931 rmoveto
          -105 callgsubr
          207 -14 rmoveto
          hintmask 1111010110100000
          -105 callgsubr
          -279 -151 rmoveto
          25 63 -107 callsubr
          89 callgsubr
          hintmask 1111001101000000
          -101 callgsubr
          hintmask 1111010110100000
          -40 callgsubr
        </CharString>
        <CharString name="Ugrave">
          80 callgsubr
          424 40 vstemhm
          170 766 rmoveto
          25 63 -107 callsubr
          89 callgsubr
          hintmask 11111100
          -101 callsubr
          -78 callsubr
          155 627 -39 callsubr
        </CharString>
        <CharString name="Uhungarumlaut">
          194 -14 32 719 30 -30 235 -181 30 51 callgsubr
          80 114 40 114 -47 163 -40 40 hintmask 1010101101000000
          364 950 rmoveto
          -84 callsubr
          154 hmoveto
          -84 callsubr
          -348 -184 rmoveto
          hintmask 1101101101000000
          25 63 -107 callsubr
          89 callgsubr
          hintmask 1101011010000000
          -101 callgsubr
          hintmask 1101101101000000
          -40 callgsubr
        </CharString>
        <CharString name="Umacron">
          -11 callgsubr
          54 29 2 -20 21 -20 30 callsubr
          hintmask 1111001010000000
          170 766 rmoveto
          25 63 -107 callsubr
          89 callgsubr
          hintmask 1111000110000000
          -101 callgsubr
          hintmask 1110011001000000
          -78 callsubr
          352 584 rmoveto
          hintmask 1111001010000000
          35 callgsubr
          hintmask 1110101010000000
          -34 -68 -37 callsubr
          hintmask 1111001010000000
          -61 callgsubr
          hintmask 1110011010000000
          -14 callsubr
        </CharString>
        <CharString name="Uogonek">
          194 -172 27 -27 67 92 31 719 30 24 30 51 callgsubr
          129 44 128 163 -40 40 hintmask 1011110110000000
          170 766 rmoveto
          25 63 -107 callsubr
          89 callgsubr
          hintmask 0111101110000000
          -101 2 -100 -100 -45 -1 -45 -43 vvcurveto
          -73 3 -69 17 -67 vhcurveto
          23 -91 82 -45 102 -3 rrcurveto
          -18 -11 -40 -28 -46 -58 callgsubr
          hintmask 1011110110000000
          -29 callgsubr
          16 9 50 43 19 hvcurveto
          142 10 97 89 186 -89 callgsubr
          hvcurveto
          hintmask 1011110101000000
          -40 callgsubr
        </CharString>
        <CharString name="Uring">
          -11 callgsubr
          12 139 -20 20 51 callgsubr
          150 30 67 30 24 163 -40 40 hintmask 1111010111000000
          170 766 rmoveto
          25 63 -107 callsubr
          89 callgsubr
          hintmask 1111001111000000
          -101 callgsubr
          hintmask 1111010110100000
          -78 callsubr
          277 581 -4 callgsubr
          hintmask 1110110111000000
          -32 callgsubr
          endchar
        </CharString>
        <CharString name="Utilde">
          -11 callgsubr
          68 32 -8 36 2 -20 30 callsubr
          hintmask 1111011010000000
          170 766 rmoveto
          25 63 -107 callsubr
          89 callgsubr
          hintmask 1111010110000000
          -101 callgsubr
          hintmask 1110101001000000
          -78 callsubr
          46 580 -61 callsubr
          hintmask 1111011010000000
          -93 callgsubr
          hintmask 1110101010000000
          27 callsubr
          hintmask 1111011010000000
          -69 callsubr
        </CharString>
        <CharString name="V">
          121 -7 -21 769 25 29 26 hstem
          343 52 rmoveto
          0 -191 674 45 -4 callsubr
          -217 hlineto
          -23 -12 -3 -11 -12 17 0 19 63 33 -5 -27 7 hvcurveto
          217 -772 rlineto
          -14 4 10 -5 6 hhcurveto
          10 8 9 10 3 hvcurveto
          41 135 111 399 62 172 9 24 11 11 29 3 10 1 41 4 28 1 rrcurveto
          13 7 5 6 10 -11 4 -12 hvcurveto
          -243 33 callsubr
          -53 -186 -616 0 vhcurveto
          endchar
        </CharString>
        <CharString name="W">
          14 callgsubr
          hstem
          950 701 -106 callgsubr
        </CharString>
        <CharString name="Wacute">
          14 callgsubr
          151 -20 hstem
          615 950 rmoveto
          -84 callsubr
          335 -249 -106 callgsubr
        </CharString>
        <CharString name="Wcircumflex">
          14 callgsubr
          151 -20 hstem
          678 875 -10 callgsubr
          61 -25 -23 -104 -61 -83 callsubr
          13 60 30 43 callsubr
          -30 14 hhcurveto
          272 -174 -106 callgsubr
        </CharString>
        <CharString name="Wdieresis">
          14 callgsubr
          54 83 -69 83 hstemhm
          494 132 hintmask 11110110
          419 931 rmoveto
          -105 callgsubr
          207 -14 rmoveto
          hintmask 11111010
          -105 callgsubr
          324 -216 -106 callgsubr
        </CharString>
        <CharString name="Wgrave">
          14 callgsubr
          151 -20 hstem
          502 -32 callsubr
          448 -249 -106 callgsubr
        </CharString>
        <CharString name="X">
          118 -37 26 11 25 748 26 -7 29 hstemhm
          185 242 -139 209 -209 236 hintmask 11100010
          192 754 rmoveto
          26 96 -20 -22 callgsubr
          -217 hlineto
          -23 -12 -3 -11 -12 17 0 19 63 34 -6 -26 13 hvcurveto
          165 -329 -168 -343 -12 -23 -8 -12 -29 -3 rlinecurve
          -10 -1 -53 45 callgsubr
          hintmask 11101000
          -30 1 -41 -3 18 17 152 306 2 vvcurveto
          hintmask 11100010
          0 187 -347 -21 vvcurveto
          hintmask 11011000
          -17 -97 15 -23 23 callgsubr
          217 hlineto
          23 12 3 11 12 -17 0 -19 -63 -37 7 25 -13 hvcurveto
          -205 393 178 338 12 23 8 12 29 3 rlinecurve
          10 1 33 4 28 1 rrcurveto
          13 7 5 6 10 -11 4 -12 hvcurveto
          -225 hlineto
          -26 -8 -8 -7 -14 21 0 13 hvcurveto
          hintmask 11100100
          50 21 0 -16 -21 -131 -235 -29 -66 hvcurveto
          0 -145 280 20 vvcurveto
          endchar
        </CharString>
        <CharString name="Y">
          37 callgsubr
          hstem
          254 239 vstem
          158 763 rmoveto
          -4 callsubr
          -218 hlineto
          -23 -12 -3 -11 -12 17 0 19 63 26 -7 -25 14 hvcurveto
          92 -167 14 -37 87 -196 rrcurveto
          -281 vlineto
          -46 -46 -93 callsubr
          209 -41 callgsubr
          121 -3 182 0 vhcurveto
          40 91 91 173 58 110 12 23 8 12 29 3 10 1 53 4 28 1 rrcurveto
          13 7 5 6 10 -11 4 -12 hvcurveto
          -245 33 callsubr
          -34 -141 -244 -25 -59 vhcurveto
          42 callsubr
          vvcurveto
          endchar
        </CharString>
        <CharString name="Yacute">
          37 callgsubr
          158 -20 hstem
          254 239 vstem
          385 949 rmoveto
          -49 callsubr
          -60 -78 callgsubr
          53 21 vhcurveto
          -227 -186 rmoveto
          -4 callsubr
          -218 hlineto
          -23 -12 -3 -11 -12 17 0 19 63 26 -7 -25 14 hvcurveto
          92 -167 14 -37 87 -196 rrcurveto
          -281 vlineto
          -46 -46 -93 callsubr
          209 -41 callgsubr
          121 -3 182 0 vhcurveto
          40 91 91 173 58 110 12 23 8 12 29 3 10 1 53 4 28 1 rrcurveto
          13 7 5 6 10 -11 4 -12 hvcurveto
          -245 33 callsubr
          -34 -141 -244 -25 -59 vhcurveto
          42 callsubr
          vvcurveto
          endchar
        </CharString>
        <CharString name="Ycircumflex">
          37 callgsubr
          159 -20 hstem
          254 239 vstem
          448 875 -10 callgsubr
          61 -25 -23 -104 -61 -83 callsubr
          13 60 30 43 callsubr
          -30 14 hhcurveto
          -290 -112 rmoveto
          -4 callsubr
          -218 hlineto
          -23 -12 -3 -11 -12 17 0 19 63 26 -7 -25 14 hvcurveto
          92 -167 14 -37 87 -196 rrcurveto
          -281 vlineto
          -46 -46 -93 callsubr
          209 -41 callgsubr
          121 -3 182 0 vhcurveto
          40 91 91 173 58 110 12 23 8 12 29 3 10 1 53 4 28 1 rrcurveto
          13 7 5 6 10 -11 4 -12 hvcurveto
          -245 33 callsubr
          -34 -141 -244 -25 -59 vhcurveto
          42 callsubr
          vvcurveto
          endchar
        </CharString>
        <CharString name="Ydieresis">
          37 callgsubr
          62 83 -69 83 hstemhm
          158 238 -132 132 -132 229 hintmask 11101010
          189 931 rmoveto
          -105 callgsubr
          207 -14 rmoveto
          hintmask 11110100
          -105 callgsubr
          -238 -154 rmoveto
          -4 callsubr
          -218 hlineto
          -23 -12 -3 -11 -12 17 0 19 63 26 -7 -25 14 hvcurveto
          92 -167 14 -37 87 -196 rrcurveto
          -281 vlineto
          -46 -46 -93 callsubr
          209 -41 callgsubr
          121 -3 182 0 vhcurveto
          40 91 91 173 58 110 12 23 8 12 29 3 10 1 53 4 28 1 rrcurveto
          13 7 5 6 10 -11 4 -12 hvcurveto
          -245 hlineto
          -26 -8 -8 -7 -14 21 0 13 hvcurveto
          hintmask 11110001
          -31 callgsubr
          hintmask 11110100
          42 callsubr
          vvcurveto
          endchar
        </CharString>
        <CharString name="Ygrave">
          37 callgsubr
          159 -20 hstem
          254 239 vstem
          272 -32 callsubr
          -114 -187 rmoveto
          -4 callsubr
          -218 hlineto
          -23 -12 -3 -11 -12 17 0 19 63 26 -7 -25 14 hvcurveto
          92 -167 14 -37 87 -196 rrcurveto
          -281 vlineto
          -46 -46 -93 callsubr
          209 -41 callgsubr
          121 -3 182 0 vhcurveto
          40 91 91 173 58 110 12 23 8 12 29 3 10 1 53 4 28 1 rrcurveto
          13 7 5 6 10 -11 4 -12 hvcurveto
          -245 33 callsubr
          -34 -141 -244 -25 -59 vhcurveto
          42 callsubr
          vvcurveto
          endchar
        </CharString>
        <CharString name="Ytilde">
          37 callgsubr
          76 32 -8 81 callgsubr
          254 239 hintmask 11101010
          158 763 rmoveto
          -4 callsubr
          -218 hlineto
          -23 -12 -3 -11 -12 17 0 19 63 26 -7 -25 14 hvcurveto
          92 -167 14 -37 87 -196 rrcurveto
          -281 vlineto
          -46 -46 -93 callsubr
          209 -41 callgsubr
          121 -3 182 0 vhcurveto
          40 91 91 173 58 110 12 23 8 12 29 3 10 1 53 4 28 1 rrcurveto
          13 7 5 6 10 -11 4 -12 hvcurveto
          -245 33 callsubr
          -34 -141 -244 -25 -59 vhcurveto
          42 callsubr
          vvcurveto
          2 140 -61 callsubr
          hintmask 11110110
          -93 callgsubr
          hintmask 11101010
          27 callsubr
          hintmask 11110110
          -69 callsubr
        </CharString>
        <CharString name="Z">
          72 callgsubr
          2 -20 hstemhm
          22 69 -37 37 411 76 -36 36 hintmask 10011001
          578 281 -68 callsubr
          hintmask 10101010
          -68 -68 -2 -68 hhcurveto
          hintmask 10010110
          -44 callsubr
          hintmask 10101010
          32 3 11 39 vhcurveto
          320 hlineto
          30 callgsubr
          8 callsubr
        </CharString>
        <CharString name="Zacute">
          72 callgsubr
          -34 187 hstemhm
          22 69 -37 37 155 114 142 76 -36 36 hintmask 1001101010000000
          360 950 rmoveto
          -84 callsubr
          218 -669 -68 callsubr
          hintmask 1010011100000000
          -68 -68 -2 -68 -44 callsubr
          32 3 11 39 vhcurveto
          320 hlineto
          30 callgsubr
          hintmask 1010101100000000
          40 callsubr
          hintmask 0110101100000000
          77 77 1 77 hhcurveto
          hintmask 1010101010000000
          4 callgsubr
          endchar
        </CharString>
        <CharString name="Zcaron">
          72 callgsubr
          -34 187 hstemhm
          22 69 -37 37 411 76 -36 36 hintmask 10011001
          420 26 callgsubr
          -46 -59 -42 callgsubr
          158 -691 -68 callsubr
          hintmask 10100110
          -68 -68 -2 -68 -44 callsubr
          32 3 11 39 vhcurveto
          320 hlineto
          30 callgsubr
          hintmask 10101010
          8 callsubr
        </CharString>
        <CharString name="Zdotaccent">
          72 callgsubr
          70 83 hstemhm
          22 69 -37 37 178 75 158 76 -36 36 hintmask 1011011010000000
          578 281 -68 callsubr
          -68 -68 -2 -68 -44 callsubr
          32 3 11 39 vhcurveto
          320 hlineto
          hintmask 1011101100000000
          30 callgsubr
          40 callsubr
          hintmask 0111101100000000
          77 77 1 77 hhcurveto
          hintmask 1011101010000000
          4 callgsubr
          -309 650 rmoveto
          -56 callsubr
        </CharString>
        <CharString name="a">
          -31 callsubr
          30 95 callgsubr
          hintmask 1110100010000000
          -99 callsubr
          hintmask 1110001100000000
          -90 callsubr
          hintmask 1101010100000000
          -65 callgsubr
          hintmask 1110100100000000
          -266 -81 -80 callsubr
          endchar
        </CharString>
        <CharString name="a.salt">
          -82 -11 28 188 28 214 28 hstemhm
          28 40 -10 32 248 33 89 23 hintmask 11110110
          337 187 rmoveto
          32 -41 -47 14 -58 hhcurveto
          -93 -70 -54 -73 -70 60 -47 92 63 54 21 38 42 hvcurveto
          -43 12 29 -16 37 hhcurveto
          41 25 19 64 7 -4 9 -7 -9 -3 -5 -7 -47 -25 -10 -17 -32 -15 17 81 hvcurveto
          54 3 80 36 vvcurveto
          129 -47 59 -105 -54 -51 -17 -46 -31 vhcurveto
          hintmask 11101110
          1 8 3 16 12 vvcurveto
          15 -4 12 -10 -12 -6 -12 -14 vhcurveto
          -79 1 -42 -15 vvcurveto
          -11 3 -13 11 13 4 16 7 81 39 54 96 74 39 -62 -98 -26 -1 -74 0 vhcurveto
          hintmask 11110110
          -269 -80 rmoveto
          57 59 41 74 75 61 -39 -49 -53 -71 -47 -82 -67 -49 36 54 vhcurveto
          endchar
        </CharString>
        <CharString name="aacute">
          -31 callsubr
          213 26 callsubr
          16 114 64 37 -37 147 hintmask 1110100101000000
          -99 callsubr
          hintmask 1110001110000000
          -90 callsubr
          hintmask 1101010110000000
          -65 callgsubr
          hintmask 1101100110000000
          -266 -81 -80 callsubr
          203 512 17 callgsubr
          endchar
        </CharString>
        <CharString name="abreve">
          -31 callsubr
          30 53 25 -25 103 54 callgsubr
          13 32 151 36 7 37 -37 147 hintmask 1110101011010000
          -99 callsubr
          hintmask 1110100111100000
          -90 callsubr
          -11 2 -9 2 16 vvcurveto
          hintmask 1101011011100000
          94 callgsubr
          -266 -81 -80 callsubr
          260 483 -39 callgsubr
          hintmask 1110101011100000
          21 callsubr
          vhcurveto
          hintmask 1110011011100000
          -46 callgsubr
        </CharString>
        <CharString name="acircumflex">
          -31 callsubr
          213 95 callgsubr
          hintmask 1110100010000000
          -99 callsubr
          hintmask 1110001100000000
          -90 callsubr
          hintmask 1101010100000000
          -65 callgsubr
          hintmask 1101100100000000
          -266 -81 -80 callsubr
          266 404 -10 callgsubr
          94 -25 -23 -104 -94 -83 callsubr
          14 59 53 33 46 hvcurveto
          103 callsubr
        </CharString>
        <CharString name="acute">
          -407 531 -21 170 -20 hstem
          131 653 rmoveto
          13 callsubr
          endchar
        </CharString>
        <CharString name="adieresis">
          -31 callsubr
          30 53 83 -60 83 54 callgsubr
          -21 66 141 75 -22 22 -22 37 -37 147 hintmask 1110101010001000
          -99 callsubr
          hintmask 1110100100010000
          -33 -11 21 82 hvcurveto
          43 3 71 32 vvcurveto
          131 -49 58 -105 -95 -69 -47 -71 -35 17 -28 31 vhcurveto
          hintmask 1110101011000000
          -37 callgsubr
          hvcurveto
          hintmask 1101100100100000
          -65 callgsubr
          hintmask 1110011011000000
          -266 -81 -80 callsubr
          7 469 rmoveto
          -105 callgsubr
          207 -23 rmoveto
          hintmask 1110101011000000
          -56 callsubr
        </CharString>
        <CharString name="ae">
          80 callsubr
          59 callsubr
          44 79 callgsubr
          hintmask 1110011001100000
          380 -5 callsubr
          -79 -68 -45 -74 -37 vhcurveto
          hintmask 1101000011100000
          47 callgsubr
          hintmask 1110100101100000
          44 callgsubr
          hintmask 1110011001010000
          -101 -67 -54 -73 -70 60 -47 93 59 67 18 75 63 hvcurveto
          -57 34 59 -36 83 hhcurveto
          -94 callsubr
          -313 -153 -80 callsubr
          317 183 rmoveto
          74 14 46 82 100 hhcurveto
          hintmask 1110101001100000
          106 callsubr
        </CharString>
        <CharString name="aeacute">
          80 callsubr
          -32 195 26 callsubr
          164 114 -84 44 79 callgsubr
          hintmask 1110010100101000
          380 -5 callsubr
          -79 -68 -45 -74 -37 vhcurveto
          hintmask 1101000001101000
          47 callgsubr
          hintmask 1110100010011000
          44 callgsubr
          hintmask 1110001100010100
          -101 -67 -54 -73 -70 60 -47 93 59 67 18 75 63 hvcurveto
          -57 34 59 -36 83 hhcurveto
          -94 callsubr
          -313 -153 -80 callsubr
          317 183 rmoveto
          74 14 46 82 100 hhcurveto
          hintmask 1110001100101000
          99 41 -81 -53 -11 -4 -7 -13 hvcurveto
          -249 325 17 callgsubr
          endchar
        </CharString>
        <CharString name="agrave">
          -31 callsubr
          213 54 callgsubr
          239 37 -37 147 hintmask 11101001
          -99 callsubr
          hintmask 11100110
          -90 callsubr
          -11 2 -9 2 16 vvcurveto
          hintmask 11011001
          94 callgsubr
          -266 -81 -80 callsubr
          90 512 -39 callsubr
        </CharString>
        <CharString name="amacron">
          -31 callsubr
          30 53 29 2 -20 21 -20 95 callgsubr
          hintmask 1110100100010000
          -99 callsubr
          hintmask 1110100001100000
          -90 callsubr
          hintmask 1101100010100000
          -65 callgsubr
          hintmask 1110001100100000
          -266 -81 -80 callsubr
          287 436 rmoveto
          hintmask 1110100100100000
          35 callgsubr
          hintmask 1110010100100000
          -34 -68 -37 callsubr
          hintmask 1110100100100000
          -61 callgsubr
          hintmask 1110001100100000
          -14 callsubr
        </CharString>
        <CharString name="ampersand">
          147 -9 31 -20 -21 378 98 350 31 hstemhm
          38 45 62 45 183 44 -14 144 -33 33 hintmask 1011111010000000
          434 359 rmoveto
          19 17 14 18 27 7 4 8 13 16 -22 -68 -58 -22 -67 -28 -44 hvcurveto
          -56 81 -99 123 -40 93 rrcurveto
          59 57 89 87 109 vvcurveto
          93 -65 32 -57 -78 -72 -60 -101 -66 31 -70 37 -72 vhcurveto
          -61 -77 -114 -64 -146 vvcurveto
          -146 115 -45 87 96 75 55 62 50 vhcurveto
          hintmask 0111110100000000
          -55 46 54 -72 34 hhcurveto
          94 41 0 19 13 -15 0 -31 -55 -29 1 2 -4 hvcurveto
          -22 11 -53 61 -36 52 rrcurveto
          31 55 31 75 63 vvcurveto
          83 -31 41 -42 -19 -52 -17 -49 -12 11 -20 20 vhcurveto
          -199 75 rmoveto
          76 -136 65 -88 64 -78 rrcurveto
          hintmask 1011111010000000
          -46 -29 -67 -64 -103 hhcurveto
          -60 -98 22 144 96 44 50 108 100 hvcurveto
          138 275 rmoveto
          -102 -67 -53 -59 -61 vhcurveto
          -33 66 -24 62 55 vvcurveto
          78 47 53 56 56 24 -54 -44 vhcurveto
          endchar
        </CharString>
        <CharString name="aogonek">
          -106 -164 27 -27 67 86 30 184 30 43 181 -30 30 68 callgsubr
          54 -54 147 hintmask 0111101001000000
          333 187 rmoveto
          32 -41 -47 14 -51 hhcurveto
          -101 -67 -54 -73 -70 60 -47 93 62 52 21 38 42 hvcurveto
          10 -36 23 -17 28 -4 rrcurveto
          -20 -13 -32 -27 -42 -58 callgsubr
          hintmask 1011101000100000
          106 callgsubr
          44 35 22 hvcurveto
          hintmask 1011101000010000
          30 5 20 21 48 vvcurveto
          15 -2 8 -11 -7 -2 -4 -8 -1 vhcurveto
          -30 -3 -3 -27 -37 hhcurveto
          hintmask 1011100011000000
          -90 callsubr
          hintmask 1011010101000000
          -65 callgsubr
          hintmask 1011101001000000
          -266 -81 -80 callsubr
          endchar
        </CharString>
        <CharString name="apostrophe">
          -241 658 193 hstem
          160 851 rmoveto
          58 callgsubr
        </CharString>
        <CharString name="aring">
          -31 callsubr
          102 -19 139 -20 20 26 callsubr
          12 30 67 30 55 37 -37 147 hintmask 1110101001101000
          -99 callsubr
          hintmask 1110100011110000
          -90 callsubr
          hintmask 1101010101110000
          -65 callgsubr
          hintmask 1110101001110000
          -266 -81 -80 callsubr
          212 475 -4 callgsubr
          hintmask 1101011001110000
          -32 callgsubr
          endchar
        </CharString>
        <CharString name="aringacute">
          -31 callsubr
          102 -19 139 -20 20 -20 184 26 callsubr
          12 30 -9 106 -30 30 55 37 -37 147 hintmask 1110100100101010
          -99 callsubr
          hintmask 1110100001101100
          -90 callsubr
          hintmask 1101010010101100
          -65 callgsubr
          hintmask 1110100100010100
          -266 -81 -80 callsubr
          212 475 rmoveto
          36 -21 32 -40 vhcurveto
          hintmask 1110100100101100
          -39 -27 -30 -40 -41 28 -28 34 hvcurveto
          hintmask 1101010100101100
          30 35 23 48 hvcurveto
          -32 callgsubr
          71 162 rmoveto
          hintmask 1110001100010100
          -88 callgsubr
          endchar
        </CharString>
        <CharString name="asciicircum">
          -246 531 -21 130 -20 hstem
          277 510 -10 callgsubr
          94 -25 -23 -104 -94 -83 callsubr
          14 59 53 33 46 hvcurveto
          103 callsubr
        </CharString>
        <CharString name="asciitilde">
          -163 523 22 callgsubr
          hintmask 01100000
          30 537 -61 callsubr
          hintmask 10010000
          -93 callgsubr
          hintmask 01100000
          27 callsubr
          hintmask 10010000
          -69 callsubr
        </CharString>
        <CharString name="asterisk">
          -240 617 119 -39 39 -39 124 hstemhm
          41 202 -161 161 hintmask 00101000
          213 821 rmoveto
          -18 -21 -55 -27 -14 hvcurveto
          38 -27 -11 44 -19 hhcurveto
          -13 -8 -5 -17 -14 30 -23 27 -31 hvcurveto
          hintmask 01010000
          1 -22 -26 4 -22 hhcurveto
          -19 -9 -8 -13 -14 17 -4 11 19 32 7 2 19 hvcurveto
          hintmask 10001000
          -14 -16 -43 -34 -19 vvcurveto
          -13 6 -7 16 20 31 71 7 4 vhcurveto
          -6 7 39 -72 17 hhcurveto
          11 10 5 13 27 -57 39 -4 5 hvcurveto
          hintmask 01010000
          -1 7 48 -8 23 hhcurveto
          9 10 8 10 15 -9 6 -11 -18 -52 -4 -1 -5 hvcurveto
          1 8 48 42 18 vvcurveto
          hintmask 00110000
          10 -5 12 -15 vhcurveto
          endchar
        </CharString>
        <CharString name="at">
          104 -84 32 101 36 284 30 108 34 hstem
          47 36 92 42 209 32 130 33 vstem
          588 236 rmoveto
          -111 -36 -40 -46 -46 0 41 0 vhcurveto
          -1 37 -1 37 37 vvcurveto
          51 1 52 2 52 vhcurveto
          10 -9 9 -8 -8 -10 -9 -11 -8 1 -12 1 -11 vhcurveto
          93 callgsubr
          49 34 22 26 21 hvcurveto
          -20 8 18 -23 45 hhcurveto
          62 56 49 134 hvcurveto
          164 -1 -95 140 -174 hhcurveto
          -176 -128 -132 -182 -184 131 -127 150 24 6 9 8 8 -4 7 -25 -138 -108 113 166 165 107 115 158 161 78 -122 -149 1 hvcurveto
          -162 -61 rmoveto
          -31 -20 -65 -73 103 callgsubr
          vhcurveto
          endchar
        </CharString>
        <CharString name="atilde">
          -31 callsubr
          30 66 32 -12 -21 25 36 2 -20 95 callgsubr
          hintmask 1110000010001000
          -99 callsubr
          hintmask 1110000000110000
          -90 callsubr
          hintmask 1101000001010000
          -65 callgsubr
          hintmask 1110000010010000
          -266 -81 -80 callsubr
          hintmask 0000011000000000
          -9 431 -61 callsubr
          hintmask 0000100100000000
          -93 callgsubr
          hintmask 0000011000000000
          27 callsubr
          hintmask 0000100100000000
          -69 callsubr
        </CharString>
        <CharString name="b">
          -66 -9 31 -13 -21 439 31 329 31 hstemhm
          -80 190 -40 40 307 43 hintmask 10111010
          110 44 callsubr
          hintmask 01110110
          -40 1 -116 -106 vvcurveto
          -301 -8 -42 -1 -131 vhcurveto
          114 callgsubr
          hintmask 10111010
          -36 22 35 38 callsubr
          15 callsubr
        </CharString>
        <CharString name="backslash">
          -56 2 -21 840 -20 hstem
          478 18 rmoveto
          -190 359 101 -191 -129 237 -125 230 30 -51 -85 172 rrcurveto
          7 -3 -17 40 -24 hhcurveto
          -12 -3 -6 -8 -10 9 -19 5 -10 hvcurveto
          405 -763 rlineto
          -18 9 4 -6 16 hhcurveto
          9 5 5 7 8 -2 11 -3 6 hvcurveto
          endchar
        </CharString>
        <CharString name="bar">
          -340 -124 -21 985 -20 hstem
          91 40 vstem
          131 802 rmoveto
          61 callsubr
          1 -147 0 -177 -146 -147 -1 -186 -146 vvcurveto
          60 callgsubr
          -2 143 0 184 143 143 2 173 144 vvcurveto
          endchar
        </CharString>
        <CharString name="braceleft">
          -248 -58 31 375 52 -26 26 408 30 -3 -20 hstemhm
          125 42 -42 179 hintmask 10110100
          167 201 rmoveto
          0 -1 173 -111 111 1 205 0 vhcurveto
          174 vlineto
          9 0 42 53 4 vhcurveto
          66 6 rlineto
          hintmask 11010010
          105 callgsubr
          hintmask 10101100
          -20 -46 -3 -15 hhcurveto
          -78 -2 -72 -16 hvcurveto
          -77 1 -55 -35 vvcurveto
          -180 -66 0 -15 -25 -17 -8 -18 vhcurveto
          hintmask 11010100
          -18 13 -8 23 15 74 -9 -139 vhcurveto
          -168 vlineto
          -79 26 -11 42 vhcurveto
          31 hlineto
          21 55 2 13 14 -60 2 -4 -59 -12 0 54 hvcurveto
          endchar
        </CharString>
        <CharString name="braceright">
          -248 -58 30 -27 20 415 26 -26 52 375 31 hstemhm
          9 179 -42 42 hintmask 10101010
          146 579 rmoveto
          0 1 -173 111 -111 -1 -205 0 vhcurveto
          -174 vlineto
          -9 0 -42 -53 -4 vhcurveto
          -66 -6 rlineto
          hintmask 10011100
          -15 -1 -3 -8 -3 vvcurveto
          -10 8 -2 11 vhcurveto
          hintmask 01101010
          20 46 3 15 hhcurveto
          78 2 72 16 hvcurveto
          77 -1 55 35 vvcurveto
          180 66 0 15 25 17 8 18 vhcurveto
          hintmask 10011010
          18 -13 8 -23 -15 -74 9 139 vhcurveto
          168 vlineto
          79 -26 11 -42 vhcurveto
          -31 hlineto
          -21 -55 -2 -13 -14 60 -2 4 59 12 0 -54 hvcurveto
          endchar
        </CharString>
        <CharString name="bracketleft">
          115 callgsubr
          93 39 -39 194 hintmask 11001000
          110 835 rmoveto
          -12 -1 -9 -18 -16 vvcurveto
          4 -209 0 -16 -209 vvcurveto
          -65 0 -259 -1 -65 vhcurveto
          -28 7 -7 12 vhcurveto
          100 hlineto
          21 55 2 13 14 -60 2 -4 hvcurveto
          hintmask 10110000
          -59 -32 0 17 hvcurveto
          786 vlineto
          9 2 20 19 1 vhcurveto
          118 8 rlineto
          105 callgsubr
          hintmask 11010000
          -20 -85 0 -3 -55 hvcurveto
          endchar
        </CharString>
        <CharString name="bracketright">
          115 callgsubr
          11 194 -39 39 hintmask 11010000
          188 835 rmoveto
          hintmask 10101000
          3 -55 -85 0 -20 hhcurveto
          -11 -8 -2 -10 -3 3 -8 15 -1 hvcurveto
          118 -8 rlineto
          19 -1 2 -20 -9 vvcurveto
          -786 vlineto
          -17 -32 0 -59 vhcurveto
          hintmask 11010000
          -4 -60 -2 -14 -13 55 -2 21 hvcurveto
          100 hlineto
          12 7 7 28 hvcurveto
          -1 65 0 259 65 vvcurveto
          209 0 16 4 209 vhcurveto
          16 -9 18 -12 1 vhcurveto
          endchar
        </CharString>
        <CharString name="breve">
          -312 510 25 -25 103 hstemhm
          15 121 callsubr
          hintmask 01110000
          234 589 -39 callgsubr
          hintmask 10110000
          21 callsubr
          vhcurveto
          hintmask 01110000
          -46 callgsubr
        </CharString>
        <CharString name="brokenbar">
          -340 -125 -21 986 -20 hstem
          91 40 vstem
          131 817 rmoveto
          8 -7 15 -13 -6 -14 -9 -8 vhcurveto
          1 -69 0 -75 -69 -68 -1 -74 -68 vvcurveto
          -15 9 -5 10 12 9 7 17 vhcurveto
          67 -2 70 67 66 2 76 67 vvcurveto
          -2 -525 rmoveto
          8 -5 14 -13 -6 -14 -4 -15 vhcurveto
          -69 1 -73 -69 -68 -1 -73 -68 vvcurveto
          -15 9 -6 10 12 7 4 19 vhcurveto
          67 -2 71 67 66 2 77 67 vvcurveto
          endchar
        </CharString>
        <CharString name="bullet">
          -276 282 153 hstem
          73 140 vstem
          213 360 rmoveto
          40 -23 35 -44 -43 -30 -33 -44 -45 31 -31 37 34 38 26 52 vhcurveto
          endchar
        </CharString>
        <CharString name="c">
          -96 -6 32 426 30 29 -20 hstem
          33 47 304 33 vstem
          386 428 rmoveto
          -76 callgsubr
        </CharString>
        <CharString name="c.salt">
          -98 -6 30 290 168 -28 28 hstemhm
          33 51 250 81 -47 47 hintmask 10110100
          424 128 rmoveto
          -15 -20 -13 -16 -7 -7 rrcurveto
          -41 -39 -49 -20 -53 hhcurveto
          -102 -62 80 123 131 73 96 106 54 51 -23 -28 hvcurveto
          hintmask 11011000
          -23 -34 3 -32 vvcurveto
          -22 15 -15 22 26 18 23 33 63 -66 49 -83 -134 -99 -113 -144 -128 88 -103 116 55 64 25 39 45 vhcurveto
          14 12 57 callsubr
          endchar
        </CharString>
        <CharString name="c_h">
          391 -61 30 25 32 -5 -21 399 29 24 30 255 85 callsubr
          125 40 266 40 hintmask 1101111111000000
          868 293 rmoveto
          -11 callsubr
          339 vlineto
          17 0 84 -92 -67 -45 -45 -109 -67 17 -71 8 -33 vhcurveto
          3 -12 0 -6 2 -4 rrcurveto
          48 -38 -40 14 -46 hhcurveto
          -136 -99 -114 -140 -132 87 -102 126 93 -73 callgsubr
          156 92 vvcurveto
          118 51 7 20 30 24 -15 -56 vhcurveto
          1 -174 0 -61 -25 vvcurveto
          -139 -4 -136 -2 -59 vhcurveto
          -1 -30 -8 -8 -18 -2 rrcurveto
          -50 -5 -30 -4 -13 vvcurveto
          hintmask 1011111111000000
          -9 15 -1 18 vhcurveto
          32 29 3 31 -74 callgsubr
          endchar
        </CharString>
        <CharString name="c_k">
          384 -59 30 23 32 -9 -21 408 27 21 30 255 85 callsubr
          125 40 hintmask 1101111110000000
          566 666 rmoveto
          17 0 84 -92 -67 -45 -45 -108 -67 17 -72 8 -33 vhcurveto
          2 -9 0 -9 2 -5 rrcurveto
          49 -38 -38 14 -47 hhcurveto
          -136 -99 -114 -140 -132 87 -102 126 93 -73 callgsubr
          156 92 vvcurveto
          118 51 7 21 30 22 -14 -56 1 vhcurveto
          1 -81 1 -148 -45 vvcurveto
          -63 -2 -113 -3 -142 vhcurveto
          -1 -41 -4 -4 -39 -7 rrcurveto
          -43 -7 -11 -2 -8 vvcurveto
          -8 11 -4 24 vhcurveto
          hintmask 1011111110000000
          17 27 2 34 hhcurveto
          hintmask 1101111110000000
          33 49 -2 15 hhcurveto
          24 10 5 7 7 -12 8 -30 hvcurveto
          -61 164 hlineto
          53 50 rlineto
          36 callgsubr
          105 43 0 17 10 -15 3 -31 -55 -25 1 10 -8 hvcurveto
          -38 callgsubr
          6 6 -3 -4 -12 -67 -67 -96 -82 hvcurveto
          endchar
        </CharString>
        <CharString name="c_p">
          394 -202 28 168 32 -16 -21 451 42 -30 30 -11 -20 211 85 callsubr
          128 37 310 44 hintmask 1100101111100000
          566 591 rmoveto
          70 -38 31 -53 -68 -45 -52 -78 vhcurveto
          -55 22 -60 -11 vvcurveto
          37 -40 -31 9 -40 hhcurveto
          -143 -97 -114 -140 -132 87 -102 125 94 -73 callgsubr
          81 92 vvcurveto
          118 51 7 20 30 24 70 callsubr
          -4 -7 -57 -5 rrcurveto
          -35 -3 -11 47 callsubr
          hintmask 1010011111100000
          48 callgsubr
          -1 -134 rmoveto
          hintmask 1101001111100000
          52 callgsubr
        </CharString>
        <CharString name="c_t">
          223 -11 30 -30 148 -122 -21 432 36 -10 30 -24 -20 224 85 callsubr
          125 38 -38 250 hintmask 0101001110100000
          522 -85 callsubr
          hintmask 1001001111000000
          -36 callgsubr
          274 vlineto
          54 3 62 0 102 callsubr
          -16 vhcurveto
          hintmask 1000011111000000
          50 callgsubr
          0 2 98 21 vvcurveto
          83 -31 32 -57 -78 -38 -59 -72 vhcurveto
          -54 22 -60 -11 vvcurveto
          hintmask 0010101111000000
          37 -40 -31 9 -40 hhcurveto
          -143 -97 -114 -140 -132 87 -102 125 94 -73 callgsubr
          81 93 vvcurveto
          117 50 7 24 36 15 -15 -80 vhcurveto
          -29 -2 -103 -11 vvcurveto
          endchar
        </CharString>
        <CharString name="cacute">
          -96 -6 32 426 30 -30 188 hstemhm
          33 47 119 114 71 33 hintmask 10111100
          313 618 17 callgsubr
          73 -190 rmoveto
          hintmask 11011100
          -76 callgsubr
        </CharString>
        <CharString name="caron">
          -246 510 20 89 21 hstem
          277 640 -74 callsubr
          endchar
        </CharString>
        <CharString name="ccaron">
          -54 callgsubr
          hintmask 10111000
          -18 221 -74 callsubr
          endchar
        </CharString>
        <CharString name="ccedilla">
          -96 -181 29 52 60 -32 32 34 32 426 30 29 -20 hstemhm
          33 47 281 37 -14 33 hintmask 1101111100000000
          386 428 rmoveto
          44 -29 -41 10 -50 hhcurveto
          -134 -99 -113 -144 -120 76 -98 114 -12 hvcurveto
          -2 -17 -4 -27 -4 -22 59 callgsubr
          hintmask 1011111100000000
          -25 callsubr
          11 63 78 2 61 36 40 69 rlinecurve
          6 10 4 11 6 vvcurveto
          8 -6 7 -7 -9 -5 -4 -11 -7 vhcurveto
          -69 -41 -48 -33 -65 hhcurveto
          -109 -64 78 123 131 77 94 106 hvcurveto
          hintmask 1101111010000000
          89 32 -52 -81 -16 7 -5 10 10 6 11 11 34 0 94 1 36 hvcurveto
          14 -6 13 -11 -11 -6 -13 -15 -18 1 -22 1 -15 vhcurveto
          endchar
        </CharString>
        <CharString name="ccircumflex">
          -54 callgsubr
          -22 91 rmoveto
          -34 callgsubr
          hvcurveto
          hintmask 10111000
          -1 callgsubr
        </CharString>
        <CharString name="cdotaccent">
          -96 -6 32 426 30 56 83 hstem
          33 47 142 75 87 33 vstem
          222 580 rmoveto
          -105 callgsubr
          164 -152 rmoveto
          -76 callgsubr
        </CharString>
        <CharString name="cedilla">
          -333 -181 29 52 60 -32 32 47 -20 hstemhm
          171 37 hintmask 11011000
          35 7 rmoveto
          -2 -12 -4 -38 -6 -28 59 callgsubr
          hintmask 10111000
          -25 callsubr
          13 72 -19 4 rlineto
          endchar
        </CharString>
        <CharString name="cent">
          -86 52 -21 129 30 288 166 -27 27 162 -20 hstemhm
          39 51 148 38 62 80 -46 46 hintmask 1101111010000000
          276 768 rmoveto
          16 -4 22 -14 -6 -14 -4 -18 vhcurveto
          -52 1 -46 -44 vvcurveto
          -117 -16 -83 -106 -131 vvcurveto
          -126 85 -101 114 -2 vhcurveto
          -101 vlineto
          -19 8 -9 11 13 6 8 26 40 0 30 -1 28 vhcurveto
          43 8 41 22 35 31 14 11 57 callsubr
          -15 -20 -13 -16 -7 -7 -33 -34 -33 -20 -41 -5 rrcurveto
          -1 56 -2 46 89 vvcurveto
          88 2 71 1 76 vhcurveto
          51 -2 46 -23 -26 vvcurveto
          hintmask 1110111100000000
          -23 -34 3 -32 vvcurveto
          -21 15 -15 22 25 18 23 32 61 -62 48 -81 2 vhcurveto
          1 39 0 40 45 vvcurveto
          -186 -377 rmoveto
          118 59 90 90 15 vhcurveto
          -226 vlineto
          -91 0 -49 -1 -58 vhcurveto
          -93 7 -55 77 117 vvcurveto
          endchar
        </CharString>
        <CharString name="circumflex">
          -246 531 -21 130 -20 hstem
          277 510 -10 callgsubr
          94 -25 -23 -104 -94 -83 callsubr
          14 59 53 33 46 hvcurveto
          103 callsubr
        </CharString>
        <CharString name="colon">
          -350 -3 78 224 78 hstem
          62 87 vstem
          62 35 -55 callsubr
          302 vmoveto
          -77 callsubr
          endchar
        </CharString>
        <CharString name="comma">
          -374 -66 136 hstemhm
          52 82 -46 46 hintmask 11000000
          52 36 rmoveto
          hintmask 10100000
          -94 callgsubr
          vhcurveto
          hintmask 11000000
          -9 callsubr
        </CharString>
        <CharString name="copyright">
          109 -67 32 100 30 290 30 109 34 hstem
          47 36 92 42 209 41 121 33 vstem
          -26 callsubr
          -160 124 rmoveto
          93 callgsubr
          58 45 27 50 29 hvcurveto
          4 7 3 8 4 vvcurveto
          6 -2 8 -12 -8 -4 -6 -8 -5 vhcurveto
          -49 -29 -28 -17 -46 hhcurveto
          103 callgsubr
          -11 10 -4 8 7 9 8 8 24 0 77 1 26 hvcurveto
          10 -9 9 -8 -8 -10 -9 -11 -13 1 -16 1 -11 vhcurveto
          endchar
        </CharString>
        <CharString name="currency">
          -34 197 30 -28 -21 354 29 16 -20 hstemhm
          66 73 -44 44 244 44 -44 79 hintmask 10101010
          427 383 rmoveto
          37 -10 36 -18 29 vhcurveto
          hintmask 10011001
          25 23 38 35 19 vvcurveto
          10 -12 5 -7 -8 -3 -2 -58 -57 vhcurveto
          hintmask 10101010
          27 -27 -37 17 -42 hhcurveto
          -43 -41 -17 -28 -31 hvcurveto
          hintmask 10011010
          39 -38 -22 22 -7 hhcurveto
          -10 -11 -8 -11 -10 28 -29 34 -34 hvcurveto
          hintmask 10100110
          -21 -29 -12 -37 -41 vvcurveto
          -43 11 -38 20 -29 vhcurveto
          hintmask 10101010
          -33 -33 -27 -29 -9 vvcurveto
          hintmask 01101010
          -11 11 -8 10 7 22 21 38 37 vhcurveto
          hintmask 10101010
          -26 28 37 -14 39 hhcurveto
          34 43 15 32 34 hvcurveto
          hintmask 01101001
          -63 63 1 -3 11 hhcurveto
          7 12 5 10 17 -43 41 -25 23 hvcurveto
          hintmask 10101010
          20 28 13 37 44 vvcurveto
          -162 149 rmoveto
          67 51 -59 -91 -112 -78 -43 -47 -57 -62 45 107 102 64 51 62 hvcurveto
          endchar
        </CharString>
        <CharString name="d">
          98 callgsubr
          297 77 callgsubr
          hintmask 10111100
          439 27 rmoveto
          -2 163 -1 112 23 40 3 332 74 11 callsubr
          hintmask 01111010
          22 18 -1 -17 hvcurveto
          -340 vlineto
          -18 callgsubr
          hintmask 10111100
          6 callsubr
          hintmask 01111100
          -27 callsubr
        </CharString>
        <CharString name="dagger">
          -230 16 -21 418 29 398 -20 hstem
          146 40 vstem
          283 445 rmoveto
          -26 -33 -3 -40 hhcurveto
          127 2 99 134 vvcurveto
          61 callsubr
          1 -138 0 -105 -133 vvcurveto
          -33 -43 2 -17 10 callgsubr
          93 hlineto
          -145 -1 -115 -144 vvcurveto
          60 callgsubr
          -2 143 0 116 143 vvcurveto
          91 hlineto
          36 callsubr
          hvcurveto
          endchar
        </CharString>
        <CharString name="daggerdbl">
          -229 6 -21 317 29 139 29 -28 -20 389 -20 hstemhm
          146 38 -38 148 hintmask 11101100
          283 334 rmoveto
          -26 -33 -3 -40 hhcurveto
          139 vlineto
          hintmask 11011010
          35 34 1 22 110 callsubr
          hintmask 11101100
          -26 -33 -3 -40 hhcurveto
          102 2 88 113 vvcurveto
          61 callsubr
          1 -117 0 -96 -106 vvcurveto
          -33 -43 2 -17 10 callgsubr
          93 -139 hlineto
          -33 -43 2 -17 10 callgsubr
          93 hlineto
          -1 -101 0 -96 -106 vvcurveto
          60 callgsubr
          -2 105 0 96 99 vvcurveto
          35 34 1 22 hhcurveto
          hintmask 11101010
          36 callsubr
          hvcurveto
          endchar
        </CharString>
        <CharString name="dcaron">
          98 callgsubr
          238 135 -76 77 callgsubr
          66 78 -52 52 hintmask 1011011010000000
          505 816 rmoveto
          hintmask 1011011001000000
          5 callgsubr
          hintmask 1010111010000000
          70 callgsubr
          -66 -789 rmoveto
          -2 163 -1 112 23 40 3 332 74 11 callsubr
          hintmask 0111010110000000
          22 18 -1 -17 hvcurveto
          -340 vlineto
          -18 callgsubr
          hintmask 1011011010000000
          6 callsubr
          hintmask 0111011010000000
          -27 callsubr
        </CharString>
        <CharString name="dcroat">
          98 callgsubr
          100 33 164 77 callgsubr
          hintmask 10111110
          439 27 rmoveto
          -2 163 -1 112 23 vvcurveto
          23 1 118 1 111 vhcurveto
          35 33 1 20 hhcurveto
          15 4 14 6 119 callsubr
          -26 -31 -2 -1 -39 hvcurveto
          1 70 0 63 28 11 callsubr
          hintmask 01111101
          22 18 -1 -17 hvcurveto
          -146 vlineto
          -36 -58 2 -17 hhcurveto
          73 callgsubr
          -11 9 hvcurveto
          111 -161 hlineto
          -18 callgsubr
          hintmask 10111110
          6 callsubr
          hintmask 01111110
          -27 callsubr
        </CharString>
        <CharString name="degree">
          -325 669 21 124 23 hstem
          37 37 88 37 vstem
          199 754 rmoveto
          44 -26 39 -51 -51 -34 -37 -48 -50 36 -33 43 39 44 27 58 vhcurveto
          -80 60 rmoveto
          33 10 -30 -31 -38 -17 -25 -29 -28 -14 26 36 35 12 27 33 hvcurveto
          endchar
        </CharString>
        <CharString name="dieresis">
          -219 510 83 -60 83 hstemhm
          30 121 callgsubr
          hintmask 01110000
          30 575 rmoveto
          -105 callgsubr
          207 -23 rmoveto
          hintmask 10110000
          -56 callsubr
        </CharString>
        <CharString name="divide">
          -172 219 78 94 34 96 78 hstem
          155 87 vstem
          155 257 -55 callsubr
          302 vmoveto
          -77 callsubr
          179 -129 rmoveto
          0 callgsubr
          15 4 13 6 119 callsubr
          hvcurveto
          endchar
        </CharString>
        <CharString name="dollar">
          39 -44 -21 50 30 -10 -21 474 -20 318 30 54 -20 hstemhm
          57 41 194 37 180 30 -30 42 hintmask 1101111110000000
          83 91 rmoveto
          38 -71 90 -31 80 -4 rrcurveto
          -36 vlineto
          60 callgsubr
          11 -1 11 11 vvcurveto
          89 6 120 45 109 vvcurveto
          86 -119 53 -91 37 vhcurveto
          188 0 121 2 126 vhcurveto
          101 -7 77 -111 -121 vvcurveto
          -29 2 -30 19 17 2 15 19 vhcurveto
          42 -2 26 42 vvcurveto
          hintmask 1011111101000000
          48 4 51 47 vvcurveto
          9 -7 14 -13 -12 -7 -9 -16 -1 3 -41 5 -83 vhcurveto
          -38 108 -63 52 -88 5 rrcurveto
          16 vlineto
          61 callsubr
          -32 vlineto
          -122 -8 -112 -73 -131 vvcurveto
          -195 149 -54 86 -32 vhcurveto
          -93 -1 -93 -93 vvcurveto
          -130 7 -71 79 80 vvcurveto
          29 -3 30 -19 -17 -2 -15 -19 vhcurveto
          -42 2 -13 -42 -29 -4 -57 -15 vvcurveto
          -9 7 -14 13 12 7 9 16 1 -3 81 0 vhcurveto
          209 245 rmoveto
          -89 34 -105 51 144 vvcurveto
          104 74 76 119 10 vhcurveto
          1 -124 0 -118 -177 vvcurveto
          37 -57 rmoveto
          83 -34 86 -39 -61 vvcurveto
          hintmask 1101111110000000
          -77 -81 -47 -87 -6 vhcurveto
          -1 88 0 88 88 vvcurveto
          endchar
        </CharString>
        <CharString name="dotaccent">
          -426 538 83 hstem
          30 75 vstem
          30 580 rmoveto
          -56 callsubr
        </CharString>
        <CharString name="dotlessi">
          15 callgsubr
          hstem
          132 40 vstem
          -105 callsubr
          endchar
        </CharString>
        <CharString name="dotlessj">
          -336 87 callsubr
          468 31 83 callgsubr
          -34 34 hintmask 01110100
          -37 -89 -40 callsubr
          hintmask 10110010
          -18 callsubr
          hintmask 10101100
          72 callsubr
          endchar
        </CharString>
        <CharString name="e">
          -20 callgsubr
          hstemhm
          34 45 79 callgsubr
          hintmask 11111000
          -102 callsubr
          hintmask 11110100
          -94 callsubr
          endchar
        </CharString>
        <CharString name="eacute">
          -20 callgsubr
          -32 195 hstemhm
          34 45 108 114 84 43 -20 34 hintmask 11101110
          -102 callsubr
          hintmask 11011101
          -94 callsubr
          220 359 17 callgsubr
          endchar
        </CharString>
        <CharString name="ebreve">
          -20 callgsubr
          33 25 -25 103 hstemhm
          34 45 60 121 callsubr
          27 43 -20 34 hintmask 1111011110000000
          -102 callsubr
          hintmask 1110111101000000
          -94 callsubr
          277 330 -39 callgsubr
          hintmask 1111011110000000
          21 callsubr
          vhcurveto
          hintmask 1110111110000000
          -46 callgsubr
        </CharString>
        <CharString name="ecaron">
          -20 callgsubr
          -32 195 hstemhm
          34 45 79 callgsubr
          hintmask 11101100
          -102 callsubr
          hintmask 11011010
          -94 callsubr
          282 381 -74 callsubr
          endchar
        </CharString>
        <CharString name="ecircumflex">
          -20 callgsubr
          -32 195 hstemhm
          34 45 79 callgsubr
          hintmask 11101100
          -102 callsubr
          hintmask 11011010
          -94 callsubr
          283 251 -10 callgsubr
          94 -25 -23 -104 -94 -83 callsubr
          14 59 53 33 46 hvcurveto
          103 callsubr
        </CharString>
        <CharString name="edieresis">
          -20 callgsubr
          33 83 -60 83 hstemhm
          34 45 26 121 callgsubr
          -2 43 -20 34 hintmask 1111011010000000
          -102 callsubr
          hintmask 1110111101000000
          -94 callsubr
          24 316 rmoveto
          -105 callgsubr
          207 -23 rmoveto
          hintmask 1111011101000000
          -56 callsubr
        </CharString>
        <CharString name="edotaccent">
          -20 callgsubr
          61 83 hstemhm
          34 45 131 75 100 43 -20 34 hintmask 11111110
          -102 callsubr
          hintmask 11111101
          -94 callsubr
          129 321 rmoveto
          -56 callsubr
        </CharString>
        <CharString name="egrave">
          -20 callgsubr
          -32 195 hstemhm
          34 45 79 callgsubr
          hintmask 11101100
          -102 callsubr
          hintmask 11011010
          -94 callsubr
          107 359 -39 callsubr
        </CharString>
        <CharString name="eight">
          -24 -20 31 381 47 362 31 hstemhm
          40 45 -23 45 341 34 -34 47 hintmask 11110010
          40 191 rmoveto
          -142 119 -69 107 125 104 107 112 105 -90 90 -76 22 vhcurveto
          hintmask 11101100
          56 17 97 75 117 vvcurveto
          95 -64 112 -136 -131 -89 -104 -111 -99 70 -76 62 -26 vhcurveto
          hintmask 11110100
          -57 -28 -97 -72 -125 vvcurveto
          45 7 rmoveto
          127 97 67 86 86 94 -67 -121 -121 -89 -72 -100 -111 -63 89 98 vhcurveto
          hintmask 11101100
          22 414 rmoveto
          84 46 105 128 129 27 -108 -65 -117 -86 -72 -83 -73 -88 56 117 vhcurveto
          endchar
        </CharString>
        <CharString name="eightinferior">
          -299 -12 82 callgsubr
          71 -97 callsubr
          endchar
        </CharString>
        <CharString name="eightsuperior">
          -299 496 82 callgsubr
          579 -97 callsubr
          endchar
        </CharString>
        <CharString name="ellipsis">
          -17 -4 78 hstem
          54 87 87 87 87 87 cntrmask 01110000
          54 34 -55 callsubr
          174 hmoveto
          -77 callsubr
          174 hmoveto
          -77 callsubr
          endchar
        </CharString>
        <CharString name="emacron">
          -20 callgsubr
          33 22 callsubr
          34 45 79 callgsubr
          hintmask 1111001100000000
          -102 callsubr
          hintmask 1110011010000000
          -94 callsubr
          hintmask 1110011100000000
          304 283 rmoveto
          hintmask 1111001100000000
          35 callgsubr
          hintmask 1110101100000000
          -34 -68 -37 callsubr
          hintmask 1111001100000000
          -61 callgsubr
          hintmask 1110011100000000
          -14 callsubr
        </CharString>
        <CharString name="emdash">
          153 253 9 callsubr
          641 285 rmoveto
          hintmask 10000000
          -32 -196 -3 -55 hhcurveto
          hintmask 00100000
          -34 -227 16 callsubr
          455 29 callsubr
        </CharString>
        <CharString name="endash">
          -78 253 9 callsubr
          406 285 -2 callgsubr
        </CharString>
        <CharString name="eng">
          -14 -217 31 -31 162 69 28 378 35 62 callsubr
          70 31 -31 87 119 40 hintmask 0111101010000000
          329 -85 rmoveto
          73 callsubr
          -17 -44 -61 34 -40 71 134 7 124 139 vhcurveto
          25 -2 47 37 36 2 37 37 vvcurveto
          152 -83 38 -69 -67 -61 -37 -61 -31 vhcurveto
          -3 68 rlineto
          22 -1 -7 4 -16 hhcurveto
          -40 -114 -1 -19 -9 31 -2 24 hvcurveto
          69 hlineto
          12 3 -9 -13 hvcurveto
          hintmask 1011011010000000
          -110 -2 -68 -3 -125 vhcurveto
          -1 -42 -7 -8 -20 -1 -45 -3 rcurveline
          -16 -1 -11 -7 -9 vvcurveto
          -7 8 -3 23 vhcurveto
          13 155 1 10 hhcurveto
          22 12 3 11 12 -15 3 -19 hvcurveto
          -67 142 hlineto
          49 0 45 23 49 vhcurveto
          63 30 57 33 54 hhcurveto
          106 6 -125 -104 hvcurveto
          -133 vlineto
          -235 -32 -14 -64 -41 -35 24 23 14 6 4 10 1 vhcurveto
          hintmask 1011100110000000
          72 callsubr
          endchar
        </CharString>
        <CharString name="eogonek">
          -93 -166 27 -27 67 89 31 238 32 154 32 hstemhm
          34 45 93 44 169 43 -20 34 hintmask 0111111100000000
          81 -5 callsubr
          -119 -95 -103 -148 -128 64 -100 128 -8 vhcurveto
          -20 -12 -34 -28 -43 -58 callgsubr
          hintmask 1011111010000000
          106 callgsubr
          45 36 22 hvcurveto
          104 8 78 89 100 vvcurveto
          11 -6 7 -11 -10 -7 -7 -11 -86 -56 -80 -109 -120 -44 102 95 12 1 15 1 14 vhcurveto
          4 30 rmoveto
          74 14 46 82 100 hhcurveto
          hintmask 1011111100000000
          106 callsubr
        </CharString>
        <CharString name="equal">
          -189 269 29 -7 -21 167 22 callsubr
          hintmask 10100000
          303 301 rmoveto
          -32 -41 -3 -55 -34 -48 2 -19 10 callgsubr
          hintmask 01001000
          47 121 1 53 110 callsubr
          168 vmoveto
          hintmask 10100000
          35 callgsubr
          hintmask 10010000
          -34 -48 -37 callsubr
          hintmask 10100000
          27 callgsubr
          47 121 -28 callgsubr
          hvcurveto
          hintmask 10001000
          -14 callsubr
        </CharString>
        <CharString name="eth">
          -24 -19 31 423 31 364 -20 hstem
          33 45 378 44 vstem
          434 732 rmoveto
          -8 -40 -27 -25 -40 hvcurveto
          -47 66 -47 43 -37 30 rrcurveto
          8 -10 -9 3 -9 hhcurveto
          -5 -15 -2 -14 -15 8 -6 15 -10 hvcurveto
          43 -28 42 -44 38 -51 -79 -41 rcurveline
          -11 -6 -1 -7 -6 vvcurveto
          -13 12 -3 8 6 41 22 25 44 vhcurveto
          63 -95 49 -117 17 -105 rrcurveto
          119 -51 -91 33 -68 hhcurveto
          -116 -103 -91 -145 -113 74 -136 167 175 51 147 92 132 -48 147 -52 95 hvcurveto
          -11 20 -12 19 -11 18 30 17 28 17 17 9 rrcurveto
          9 5 3 12 4 vvcurveto
          14 -15 3 -4 vhcurveto
          -166 -720 rmoveto
          -85 -105 66 157 112 53 88 115 153 57 -150 -89 -67 -47 -117 -141 hvcurveto
          endchar
        </CharString>
        <CharString name="etilde">
          -20 callgsubr
          33 36 8 35 hstemhm
          34 45 79 callgsubr
          hintmask 11111110
          -102 callsubr
          hintmask 11111101
          -94 callsubr
          2 285 rmoveto
          -12 3 -13 16 vhcurveto
          19 29 35 18 45 48 -44 56 hhcurveto
          18 79 16 34 16 -9 7 -11 hvcurveto
          -21 -31 -37 -25 -50 -54 43 -50 hhcurveto
          -24 -56 -22 -23 hvcurveto
          endchar
        </CharString>
        <CharString name="exclam">
          -339 -13 69 770 -20 hstemhm
          88 40 -40 62 hintmask 11100000
          98 127 rmoveto
          -22 2 5 -4 7 hhcurveto
          14 2 24 47 hvcurveto
          623 vlineto
          31 -9 0 -12 -16 -3 -5 -26 -139 7 -500 3 -29 vhcurveto
          hintmask 11010000
          52 -107 rmoveto
          20 -14 16 -19 -19 -19 -10 -25 -24 18 -10 17 16 20 11 22 vhcurveto
          endchar
        </CharString>
        <CharString name="exclamdown">
          -340 -182 -21 795 69 hstemhm
          87 42 -42 63 hintmask 11100000
          97 496 rmoveto
          -3 -29 -7 -500 -139 vvcurveto
          -26 4 -5 16 12 10 0 31 vhcurveto
          623 vlineto
          47 -3 24 -14 -7 -6 -4 -22 -2 vhcurveto
          hintmask 11010000
          53 132 rmoveto
          22 -20 11 -16 -17 -18 -10 -24 -25 19 -10 19 19 14 16 20 vhcurveto
          endchar
        </CharString>
        <CharString name="f">
          -264 3 21 -3 -21 22 -21 434 28 204 158 -26 26 hstemhm
          7 152 -43 43 208 72 -42 42 hintmask 1001101010000000
          113 45 rmoveto
          -1 -15 -20 -2 -53 -60 callgsubr
          hintmask 0101101010000000
          -30 callgsubr
          hintmask 1001101010000000
          15 53 3 36 hhcurveto
          hintmask 0011011001000000
          30 56 -2 24 hhcurveto
          34 -3 callgsubr
          -109 394 hlineto
          7 2 4 16 7 callgsubr
          104 0 211 158 59 21 -28 -21 -9 -4 -4 -11 -8 hvcurveto
          hintmask 1001100110000000
          71 callgsubr
          -182 -10 -230 -104 -4 vhcurveto
          86 callgsubr
          -47 callgsubr
          -64 2 -64 -64 vvcurveto
          -58 -2 -57 -4 -57 vhcurveto
          endchar
        </CharString>
        <CharString name="f_b">
          244 -9 102 callgsubr
          356 26 hstemhm
          117 38 225 40 307 43 hintmask 1000011111000000
          420 693 rmoveto
          71 -3 61 -103 -184 -8 -191 -143 -5 vhcurveto
          -15 -1 -13 -11 vhcurveto
          -74 hlineto
          -24 -8 -1 -10 hvcurveto
          hintmask 0100101111000000
          -8 7 -9 22 vhcurveto
          77 62 callgsubr
          -109 vlineto
          -101 0 -119 -5 -35 vhcurveto
          -2 -16 -8 -1 -53 -60 callgsubr
          hintmask 0001101111000000
          -30 callgsubr
          hintmask 0100101111000000
          -62 callgsubr
          42 -2 12 hhcurveto
          15 14 3 11 hvcurveto
          hintmask 0010011111000000
          110 callgsubr
          vhcurveto
          -78 1 callgsubr
          111 0 204 156 50 17 -21 -73 1 hvcurveto
          -54 1 -34 -91 -274 -9 -157 -59 vvcurveto
          -34 3 -14 15 15 4 12 68 4 vhcurveto
          hintmask 1000101111000000
          -36 22 35 38 callsubr
          -76 -62 -45 -79 -37 hvcurveto
          -1 -155 rmoveto
          55 callsubr
          endchar
        </CharString>
        <CharString name="f_f">
          -59 -57 21 -3 -21 22 -21 62 27 -9 -21 435 28 204 158 -76 19 callsubr
          173 40 208 72 -42 42 hintmask 1000111001011000
          318 45 rmoveto
          -1 -17 -18 -2 -25 -2 rrcurveto
          -14 -1 -18 -1 -11 vvcurveto
          -30 callgsubr
          hintmask 1001010111010100
          15 23 3 36 30 57 -2 22 hhcurveto
          35 -3 callgsubr
          -109 394 hlineto
          7 2 4 16 7 callgsubr
          105 0 210 159 58 21 -28 -21 -9 -4 -4 -11 -8 hvcurveto
          hintmask 1001011001011000
          71 callgsubr
          -66 -44 -31 -43 -29 vhcurveto
          hintmask 1001010110111000
          13 -17 -20 11 -39 hhcurveto
          -180 -13 -229 -55 61 callgsubr
          hintmask 1001011001011000
          -60 callsubr
          hintmask 0101011001011000
          -30 callgsubr
          hintmask 1001011001011000
          100 callsubr
          hintmask 0011010111011000
          -38 callsubr
          10 103 -2 39 hhcurveto
          1 -69 2 -79 -64 vvcurveto
          -64 -2 -55 -4 -57 vhcurveto
          -167 439 rmoveto
          41 0 224 157 31 16 -9 -10 10 vhcurveto
          -40 -75 -4 -104 -88 vvcurveto
          -162 1 callgsubr
          hvcurveto
          endchar
        </CharString>
        <CharString name="f_f_b">
          432 -57 21 -3 -21 22 -21 50 102 callgsubr
          306 19 callsubr
          174 37 206 41 306 43 hintmask 1001000011101111
          607 340 rmoveto
          102 2 99 98 vvcurveto
          127 -6 59 -90 -61 -38 -26 -50 -34 vhcurveto
          13 -16 -21 13 -42 hhcurveto
          -179 -13 -230 -54 61 callgsubr
          hintmask 1001000101110111
          -21 callsubr
          10 3 -6 -17 hvcurveto
          -13 2 -157 -36 vvcurveto
          -36 -2 -128 -4 -57 vhcurveto
          -1 -14 -17 -3 -56 -60 callgsubr
          hintmask 0101000101110111
          -30 callgsubr
          hintmask 1001000101110111
          100 callsubr
          hintmask 0010100101110111
          -38 callsubr
          10 109 -2 36 hhcurveto
          -3 1 -36 -108 vvcurveto
          -2 0 -211 -4 -28 vhcurveto
          -2 -16 -17 -2 -45 -3 rrcurveto
          -14 -1 -18 -1 -11 vvcurveto
          hintmask 1000001101110111
          -30 callgsubr
          hintmask 1000100101110111
          -62 callgsubr
          42 -2 12 hhcurveto
          15 14 3 11 hvcurveto
          hintmask 1001000011110111
          110 callgsubr
          vhcurveto
          -78 hlineto
          -7 -1 5 26 87 11 218 130 64 0 -53 -63 hvcurveto
          -89 1 -123 -64 vvcurveto
          -183 -8 -60 -1 -140 vhcurveto
          hintmask 1000010101110111
          114 callgsubr
          hintmask 1001000101110111
          -36 22 35 -41 80 hhcurveto
          94 127 57 171 101 -45 138 -126 -117 -63 -118 0 hvcurveto
          -161 vmoveto
          55 callsubr
          hintmask 1001000011110111
          -284 284 rmoveto
          -164 1 callgsubr
          43 0 222 157 33 95 callsubr
        </CharString>
        <CharString name="f_f_h">
          452 -57 21 -4 -21 22 -21 63 21 -3 -21 399 29 7 28 286 19 callsubr
          185 37 124 130 108 callgsubr
          hintmask 1001011110111010
          519 825 rmoveto
          -75 -30 -39 -44 -27 hvcurveto
          16 -17 -21 17 -49 hhcurveto
          -178 -13 -230 -54 61 callgsubr
          hintmask 1001011111011010
          -60 callsubr
          hintmask 0011011111011010
          -30 callgsubr
          hintmask 1001011111011010
          15 33 3 36 -38 callsubr
          12 137 -2 17 hhcurveto
          -8 1 -7 -135 vvcurveto
          -136 -1 -73 -4 -29 vhcurveto
          -2 -13 -1 -4 -60 -60 callgsubr
          hintmask 1000111111011010
          -30 callgsubr
          hintmask 1001011111010110
          15 38 3 36 30 4 64 callgsubr
          4 9 9 -9 5 -20 hvcurveto
          -57 20 callsubr
          12 62 0 callsubr
          110 callgsubr
          hvcurveto
          -98 hlineto
          -7 -1 5 27 99 13 205 131 55 15 -36 -38 56 callsubr
          hintmask 1000111111011010
          105 callsubr
          hintmask 1001011111011010
          30 8 3 31 hhcurveto
          hintmask 0100111111011010
          -74 callgsubr
          -11 callsubr
          333 1 32 21 vvcurveto
          35 -3 77 -106 vhcurveto
          -185 -362 rmoveto
          -175 1 callgsubr
          33 0 232 153 39 19 -15 -18 12 hvcurveto
          -35 -82 -5 -88 -83 vvcurveto
          endchar
        </CharString>
        <CharString name="f_f_i">
          163 -57 21 -3 -21 22 -21 62 65 callgsubr
          175 37 203 82 -51 33 -33 51 hintmask 1001010111011000
          635 428 rmoveto
          21 -6 14 -16 vhcurveto
          -242 hlineto
          7 callsubr
          -52 -40 8 -35 vvcurveto
          hintmask 1001011001010010
          18 callgsubr
          -65 -42 -29 -42 -27 vhcurveto
          hintmask 1001010110111000
          11 -16 -21 10 -33 90 callsubr
          hintmask 1001011001011000
          -47 callgsubr
          -64 2 -64 -64 vvcurveto
          -58 -2 -117 -4 -57 vhcurveto
          -1 -15 -20 -2 -53 -60 callgsubr
          hintmask 0101011001011000
          -30 callgsubr
          hintmask 1001011001011000
          100 callsubr
          hintmask 0011011001011000
          48 callsubr
          111 -2 35 hhcurveto
          -10 1 -6 -117 vvcurveto
          -101 0 -119 -5 -35 vhcurveto
          -2 -16 -8 -1 -53 -60 callgsubr
          hintmask 1000111001011000
          -30 callgsubr
          hintmask 0011010111010100
          -72 callsubr
          -102 hlineto
          -1 7 -8 58 58 29 2 230 46 callgsubr
          -141 -119 vvcurveto
          -84 -1 -27 -4 -39 2 callgsubr
          -310 35 rmoveto
          -166 1 callgsubr
          44 0 221 158 27 16 -7 -9 10 hvcurveto
          -29 -59 -8 -123 -88 vvcurveto
          endchar
        </CharString>
        <CharString name="f_f_j">
          146 87 callsubr
          2 21 39 65 callgsubr
          189 37 -19 34 -34 87 135 82 -55 35 -22 42 hintmask 101101011101000010000000
          644 410 rmoveto
          39 0 14 -22 vhcurveto
          -237 hlineto
          7 callsubr
          hintmask 101101100101001000000000
          -52 -40 8 -35 vvcurveto
          hintmask 101101100101000010000000
          18 callgsubr
          -69 -43 -32 -47 -27 vhcurveto
          hintmask 101101011011001000000000
          15 -17 -21 14 -44 hhcurveto
          -180 -12 -232 -52 61 callgsubr
          hintmask 011101100101001000000000
          -60 callsubr
          -30 callgsubr
          15 33 3 36 -38 callsubr
          13 143 -3 14 hhcurveto
          1 -12 0 -3 -8 vvcurveto
          -109 vlineto
          -95 0 -128 -5 -32 vhcurveto
          -2 -15 -6 -2 -55 -60 callgsubr
          hintmask 101011100101001000000000
          -30 callgsubr
          hintmask 101101100101000100000000
          -72 callsubr
          -102 hlineto
          -1 7 -8 65 59 29 2 222 101 callsubr
          75 -1 8 hhcurveto
          15 7 -10 -11 -196 -1 -169 -7 -86 hvcurveto
          -141 -12 -73 -8 -33 hhcurveto
          hintmask 101101100100101000000000
          -74 -15 31 15 17 8 1 8 1 hvcurveto
          hintmask 011101011100010100000000
          15 2 22 4 29 vvcurveto
          73 callsubr
          -23 -39 -51 32 -49 89 63 77 26 151 16 vhcurveto
          7 68 -1 47 1 155 rrcurveto
          1 168 1 -7 23 vvcurveto
          -305 53 rmoveto
          -180 76 callgsubr
          -33 -85 0 -89 -85 vvcurveto
          endchar
        </CharString>
        <CharString name="f_f_k">
          466 -55 30 -14 -21 22 -21 62 21 -3 -21 408 27 0 28 286 19 callsubr
          186 37 235 36 hintmask 1001010111011000
          701 239 rmoveto
          36 callgsubr
          hintmask 0011010111011000
          105 43 0 17 hvcurveto
          hintmask 1001010110111000
          10 -15 3 -31 -55 -25 1 10 -8 vhcurveto
          -38 callgsubr
          7 5 -4 -3 -12 -72 -70 -94 -81 hvcurveto
          311 vlineto
          79 1 57 30 vvcurveto
          35 0 77 -106 -72 -52 -35 -48 -28 vhcurveto
          19 -23 -19 14 -44 hhcurveto
          -180 -13 -231 -53 -1 hvcurveto
          hintmask 0101001111011000
          86 callgsubr
          -60 callsubr
          -30 callgsubr
          100 callsubr
          hintmask 0011010111011000
          -38 callsubr
          12 140 -2 15 hhcurveto
          -9 1 -7 -8 vvcurveto
          -109 vlineto
          21 callgsubr
          -15 -9 -2 -53 -60 callgsubr
          hintmask 1000110111011000
          -30 callgsubr
          hintmask 0011001111011000
          -79 callsubr
          34 callgsubr
          36 -1 84 99 vvcurveto
          -310 304 rmoveto
          -1 -25 0 2 -5 vvcurveto
          -176 1 callgsubr
          41 0 224 157 44 16 -18 -15 7 hvcurveto
          -32 -73 -4 -64 -3 -88 rrcurveto
          endchar
        </CharString>
        <CharString name="f_f_l">
          162 -57 21 -3 -21 22 -21 62 88 callgsubr
          286 19 callsubr
          174 37 235 36 hintmask 1001011101110000
          532 825 rmoveto
          -73 -48 -30 -46 -31 hvcurveto
          13 -16 -22 13 -38 90 callsubr
          hintmask 1001011110110000
          -47 callgsubr
          -64 2 -64 -64 vvcurveto
          -58 -2 -117 -4 -57 vhcurveto
          -1 -15 -20 -2 -53 -60 callgsubr
          hintmask 0101011110110000
          -30 callgsubr
          hintmask 1001011110110000
          100 callsubr
          hintmask 0011011110110000
          48 callsubr
          109 -2 36 hhcurveto
          -9 1 -7 -117 vvcurveto
          21 callgsubr
          -14 -11 -4 -51 -3 rrcurveto
          -14 -1 -18 -1 -11 vvcurveto
          hintmask 1000111110110000
          -30 callgsubr
          hintmask 1001011110110000
          16 34 3 42 23 62 -2 21 hhcurveto
          34 9 4 8 10 -8 5 -21 hvcurveto
          -109 396 hlineto
          7 3 4 13 vhcurveto
          17 36 -2 17 hhcurveto
          14 13 3 12 8 -11 7 -16 hvcurveto
          -78 1 callgsubr
          110 1 205 164 70 0 -60 -56 hvcurveto
          -34 1 -101 -112 vvcurveto
          -146 0 -204 -5 -89 vhcurveto
          -1 -19 -24 -9 -37 -2 -23 -1 rcurveline
          -15 -1 -6 -4 -8 vvcurveto
          -6 7 -5 17 vhcurveto
          43 23 1 41 hhcurveto
          hintmask 0011011110110000
          27 45 -2 28 hhcurveto
          15 8 9 6 8 -7 4 -21 hvcurveto
          -78 hlineto
          79 -2 297 203 79 1 57 30 vvcurveto
          30 0 82 -102 vhcurveto
          -209 -362 rmoveto
          -164 1 callgsubr
          44 0 221 158 32 95 callsubr
        </CharString>
        <CharString name="f_f_t">
          263 -57 21 -3 -21 22 -21 48 91 callsubr
          304 19 callsubr
          188 37 187 42 hintmask 1000101001110110
          563 -85 callsubr
          hintmask 1001001001110110
          24 callgsubr
          hintmask 1001000011101110
          114 callsubr
          15 vvcurveto
          32 -5 84 -99 -62 -33 -33 -46 -24 vhcurveto
          15 -17 -21 14 -44 hhcurveto
          -180 -12 -232 -52 -1 hvcurveto
          hintmask 1001000101110110
          86 callgsubr
          -21 callgsubr
          -90 -31 vvcurveto
          -42 -2 -136 -4 -57 vhcurveto
          -1 -14 -17 -3 -56 -60 callgsubr
          hintmask 0101001001110110
          -30 callgsubr
          hintmask 1001001001110110
          100 callsubr
          hintmask 0010011001110110
          -38 callsubr
          12 146 -2 12 hhcurveto
          -133 vlineto
          21 callgsubr
          -15 -9 -2 -53 -60 callgsubr
          -30 callgsubr
          -62 callgsubr
          128 -2 30 hhcurveto
          -188 62 rmoveto
          99 12 205 112 64 0 -68 -48 vhcurveto
          hintmask 1001000101110110
          111 callgsubr
          -39 -32 rmoveto
          -178 76 callgsubr
          -27 -73 -4 -61 -3 -97 rrcurveto
          endchar
        </CharString>
        <CharString name="f_h">
          254 -61 30 34 21 -3 -21 399 29 7 97 callsubr
          144 130 108 callgsubr
          hintmask 1101111101000000
          317 825 rmoveto
          -176 -19 -196 -123 -3 hvcurveto
          -26 -1 -1 -17 -12 hhcurveto
          -74 -56 callgsubr
          hintmask 1011111101000000
          -30 callgsubr
          hintmask 1101111011000000
          15 38 3 36 30 14 64 callgsubr
          4 9 9 -9 5 -20 hvcurveto
          -67 396 hlineto
          9 5 2 13 7 callgsubr
          98 1 217 157 59 17 -30 -44 56 callsubr
          hintmask 1011111101000000
          105 callsubr
          hintmask 1101111101000000
          30 8 3 31 hhcurveto
          hintmask 1011111101000000
          -74 callgsubr
          -11 callsubr
          334 1 28 24 vvcurveto
          35 -2 77 -111 vhcurveto
          endchar
        </CharString>
        <CharString name="f_i">
          -45 -59 28 34 78 callgsubr
          -30 30 hstemhm
          118 37 203 82 -51 33 -33 51 hintmask 1101011100000000
          427 428 rmoveto
          21 -6 14 -16 vhcurveto
          -242 hlineto
          7 callsubr
          -52 -40 8 -35 vvcurveto
          hintmask 1101101001000000
          -9 callgsubr
          -3 -15 -3 -2 -57 -60 callgsubr
          hintmask 1011101100000000
          -30 callgsubr
          hintmask 1101101010000000
          -72 callsubr
          -102 hlineto
          -1 7 -8 61 59 29 2 226 46 callgsubr
          -146 -107 vvcurveto
          -75 -1 -55 -4 -27 2 callgsubr
          endchar
        </CharString>
        <CharString name="f_j">
          -77 87 callsubr
          62 78 callgsubr
          -30 30 hstemhm
          117 37 -19 34 -34 87 135 82 -55 34 -21 42 hintmask 0110110010010000
          222 -89 rmoveto
          73 callsubr
          -23 -38 -52 34 -49 87 69 71 33 144 16 vhcurveto
          3 26 3 52 27 29 3 305 30 vvcurveto
          25 -2 13 -21 vhcurveto
          -236 hlineto
          hintmask 1010101100001000
          7 callsubr
          hintmask 1010110100100000
          -52 -40 8 -35 vvcurveto
          hintmask 1010110100001000
          -9 callgsubr
          -2 -15 -6 -2 -55 -60 callgsubr
          hintmask 1001110100100000
          -30 callgsubr
          hintmask 1010110100010000
          -72 callsubr
          -102 hlineto
          -1 7 -8 65 59 29 2 222 14 vvcurveto
          54 callsubr
          22 57 -3 28 hhcurveto
          80 hlineto
          16 9 -7 -14 hvcurveto
          -133 vlineto
          -57 -2 -191 -6 -70 vhcurveto
          -113 -10 -44 -36 -68 hhcurveto
          hintmask 1010110010100000
          -52 -33 21 25 14 6 4 10 1 hvcurveto
          hintmask 1010110001100000
          72 callsubr
          endchar
        </CharString>
        <CharString name="f_k">
          247 -55 30 -13 -21 22 -21 61 21 -3 -21 408 27 0 97 callsubr
          235 36 hintmask 1001010111000000
          482 239 rmoveto
          36 callgsubr
          hintmask 0101010111000000
          105 43 0 17 hvcurveto
          hintmask 1001010111000000
          10 -15 3 -31 -55 -25 1 10 -8 vhcurveto
          -38 callgsubr
          7 5 -4 -3 -12 -72 -70 -94 -81 hvcurveto
          311 vlineto
          79 1 57 30 vvcurveto
          38 0 74 -109 -179 -17 -200 -117 -3 vhcurveto
          hintmask 1001001111000000
          -28 -1 -1 -17 -12 hhcurveto
          -74 -56 callgsubr
          hintmask 1000110111000000
          -30 callgsubr
          hintmask 0011001111000000
          -79 callsubr
          hhcurveto
          hintmask 0101010111000000
          34 callgsubr
          36 -1 84 99 vvcurveto
          endchar
        </CharString>
        <CharString name="f_l">
          -45 -58 25 -5 -21 62 21 -3 -21 435 97 callsubr
          235 36 hintmask 10101111
          318 825 rmoveto
          -179 -17 -200 -117 -3 hvcurveto
          -28 -1 -2 -17 -12 hhcurveto
          -73 -56 callgsubr
          hintmask 10011111
          -30 callgsubr
          hintmask 10101111
          -79 callsubr
          hhcurveto
          hintmask 01101111
          34 callgsubr
          70 -2 326 165 117 1 28 39 vvcurveto
          38 0 74 -109 vhcurveto
          endchar
        </CharString>
        <CharString name="f_t">
          42 -11 91 callsubr
          354 26 hstemhm
          117 38 187 42 hintmask 0101001110000000
          342 -85 callsubr
          hintmask 1001001110000000
          24 callgsubr
          hintmask 1000011110000000
          114 callsubr
          14 vvcurveto
          32 -5 85 -98 -147 -12 -190 -144 -6 vhcurveto
          hintmask 0010101110000000
          -13 -1 -15 -11 vhcurveto
          -74 -56 callgsubr
          -30 callgsubr
          -72 callsubr
          -109 20 callsubr
          hintmask 1001001110000000
          12 128 -2 30 hhcurveto
          -188 62 rmoveto
          99 12 205 112 64 0 -68 -48 vhcurveto
          hintmask 1000101110000000
          111 callgsubr
          endchar
        </CharString>
        <CharString name="five">
          -39 -12 33 402 69 -38 38 281 39 hstemhm
          32 33 -33 91 326 45 hintmask 11011010
          420 812 rmoveto
          -56 -187 -6 -12 -69 hvcurveto
          -12 -2 -6 -8 -1 -9 -9 -128 -3 -31 -15 -111 rrcurveto
          -2 -17 -2 -20 -8 vvcurveto
          -21 14 -16 18 vhcurveto
          hintmask 10111010
          26 87 31 76 hhcurveto
          135 35 -96 -84 -123 -76 -130 -177 -63 -68 20 52 hvcurveto
          hintmask 11010110
          37 58 -34 45 vvcurveto
          25 -17 9 -16 -23 -35 -19 -52 -115 129 -1 19 221 93 150 131 100 -54 123 -151 -73 -99 -24 -5 -19 vhcurveto
          33 291 rlineto
          17 44 196 2 54 hhcurveto
          21 17 7 12 17 -24 3 -19 hvcurveto
          endchar
        </CharString>
        <CharString name="fiveeighths">
          17 49 callgsubr
          160 26 148 26 146 -20 hstemhm
          33 25 -25 45 -28 179 -38 38 122 27 125 37 hintmask 0111111001011000
          55 -100 callsubr
          146 809 rmoveto
          -37 -35 -84 12 -12 -21 -3 -4 -8 -66 -8 -58 rrcurveto
          -1 -6 -1 -10 -4 vvcurveto
          hintmask 1011111100111000
          -8 5 -5 6 vhcurveto
          16 29 39 42 hhcurveto
          42 4 -38 -17 -44 -25 -49 -64 -24 -20 7 15 hvcurveto
          hintmask 1011111010111000
          14 20 -6 16 vvcurveto
          hintmask 1011111100111000
          12 -8 5 -12 -13 -12 -12 -22 -24 18 -31 49 vhcurveto
          hintmask 1011111001011000
          65 64 54 67 50 -35 29 -48 -30 -17 -11 -13 -19 hvcurveto
          17 104 18 6 71 11 16 9 rlinecurve
          9 5 10 15 8 vvcurveto
          5 -3 7 -7 -4 -3 -3 -3 -3 vhcurveto
          140 -756 -97 callsubr
          endchar
        </CharString>
        <CharString name="fiveinferior">
          -316 -12 66 callgsubr
          328 -50 callgsubr
        </CharString>
        <CharString name="fivesuperior">
          -316 487 66 callgsubr
          827 -50 callgsubr
        </CharString>
        <CharString name="florin">
          92 -202 27 610 28 204 158 -26 26 hstemhm
          22 33 -33 89 182 20 -20 46 220 73 -41 41 hintmask 1101100101000000
          336 424 rmoveto
          7 3 4 16 118 callsubr
          10 -13 6 -13 hvcurveto
          -78 hlineto
          -6 -1 5 20 85 17 226 159 57 19 -29 -20 -9 -4 -4 -12 -8 hvcurveto
          hintmask 1110101010000000
          -11 -8 -5 -7 -13 vvcurveto
          -20 12 -14 19 24 18 23 32 36 -22 67 -99 -184 -21 -231 -103 -9 vhcurveto
          -14 -1 -2 -14 -11 hhcurveto
          -64 hlineto
          -23 -9 -1 -9 -8 6 -10 22 hvcurveto
          67 hlineto
          11 0 -7 -19 -127 -7 -120 -14 -117 hvcurveto
          -186 -22 -32 -34 -77 hhcurveto
          -85 -1 41 4 hvcurveto
          hintmask 1110011010000000
          31 56 -22 46 vvcurveto
          30 -23 0 -7 -10 -49 -12 -55 -55 51 -35 66 89 72 52 206 13 vhcurveto
          endchar
        </CharString>
        <CharString name="four">
          -7 0 25 219 34 543 -20 hstemhm
          367 34 -12 25 hintmask 11101000
          515 244 rmoveto
          11 8 8 7 11 -5 5 -21 1 hvcurveto
          -94 4 rlineto
          6 157 23 357 10 vvcurveto
          15 -12 2 -10 -22 -12 -17 -6 -4 vhcurveto
          -144 -180 -46 -71 -191 -256 rrcurveto
          -8 -11 -2 -8 -8 vvcurveto
          -18 19 -12 23 30 104 6 4 204 vhcurveto
          -9 -175 -1 -26 -19 -9 -29 -3 rlinecurve
          -10 -1 -52 45 callgsubr
          hintmask 11110000
          -30 1 -41 -3 18 vvcurveto
          18 5 119 5 62 vhcurveto
          -356 24 rmoveto
          -11 -4 4 4 7 10 9 3 4 hvcurveto
          351 467 -30 -483 rlineto
          -6 -115 -192 -6 -12 hhcurveto
          endchar
        </CharString>
        <CharString name="fourinferior">
          -294 0 74 callsubr
          98 -67 callsubr
        </CharString>
        <CharString name="foursuperior">
          -295 503 74 callsubr
          601 -67 callsubr
        </CharString>
        <CharString name="fraction">
          -209 43 -21 638 -20 hstem
          291 602 rmoveto
          -2 -5 -294 -539 -26 callgsubr
          -3 -18 -40 -19 vhcurveto
          endchar
        </CharString>
        <CharString name="g">
          3 callsubr
          70 -20 100 callgsubr
          254 43 82 43 hintmask 1111101110000000
          -63 callgsubr
          hintmask 1111110110000000
          -57 callsubr
          hintmask 1111101110000000
          -92 callsubr
          hintmask 1111110110000000
          -51 callgsubr
          hintmask 1111101110000000
          18 callsubr
          endchar
        </CharString>
        <CharString name="g.salt">
          -91 -250 31 218 28 110 30 269 24 28 29 100 callgsubr
          254 43 -43 115 10 43 hintmask 1111101101000000
          -63 callgsubr
          hintmask 1111110101000000
          -57 callsubr
          hintmask 1111101101000000
          -124 3 -60 3 62 vvcurveto
          31 16 10 34 14 vhcurveto
          -9 22 26 -4 25 hhcurveto
          110 64 81 83 71 -46 50 -51 24 hvcurveto
          28 23 21 14 22 42 -19 -52 42 hhcurveto
          hintmask 1111110011000000
          24 14 18 17 26 -34 20 -43 -45 -42 -22 -39 -33 hvcurveto
          3 -10 -10 1 -13 hhcurveto
          50 -461 rmoveto
          21 169 -1 -97 -67 -79 -53 -123 -51 callgsubr
          hintmask 1111101101000000
          18 callsubr
          endchar
        </CharString>
        <CharString name="gbreve">
          3 callsubr
          50 20 -20 103 100 callgsubr
          13 121 callsubr
          22 43 82 43 hintmask 1111100111110000
          -63 callgsubr
          hintmask 1111101011110000
          -57 callsubr
          hintmask 1111100111110000
          -92 callsubr
          hintmask 1111101011110000
          -51 callgsubr
          hintmask 1111010111110000
          18 callsubr
          101 159 rmoveto
          21 -9 3 -10 -11 -6 -8 -15 21 callsubr
          -46 callgsubr
        </CharString>
        <CharString name="gcircumflex">
          3 callsubr
          76 104 100 callgsubr
          1 224 29 -75 callgsubr
          86 106 -3 callsubr
          -72 68 -25 -23 -104 -94 -83 callsubr
          14 59 53 33 46 hvcurveto
          -33 46 19 -27 24 hhcurveto
          endchar
        </CharString>
        <CharString name="gcommaaccent">
          3 callsubr
          49 136 100 callgsubr
          95 82 -46 46 77 43 82 43 hintmask 1111101101100000
          -63 callgsubr
          hintmask 1111110101100000
          -57 callsubr
          hintmask 1111101011100000
          -92 callsubr
          hintmask 1111110011100000
          -51 callgsubr
          hintmask 1111101011100000
          18 callsubr
          hintmask 1111110101100000
          -36 181 rmoveto
          hintmask 1111110011100000
          -94 callgsubr
          vhcurveto
          hintmask 1111110101100000
          -9 callsubr
        </CharString>
        <CharString name="gdotaccent">
          3 callsubr
          78 83 100 callgsubr
          91 75 88 -75 callgsubr
          -40 150 rmoveto
          -56 callsubr
        </CharString>
        <CharString name="germandbls">
          20 0 30 -16 -21 806 26 hstemhm
          100 43 102 43 104 41 90 43 hintmask 10111110
          392 700 rmoveto
          -127 -147 -43 -101 vvcurveto
          -95 100 -57 35 -20 vhcurveto
          89 -50 54 -36 -69 vvcurveto
          -47 -50 -25 -67 -51 -45 16 42 -21 vhcurveto
          -8 16 -2 16 -4 21 -15 callsubr
          hintmask 01111110
          25 callgsubr
          hintmask 10111110
          -32 21 59 -18 45 hhcurveto
          52 111 25 89 82 -95 62 -65 34 hvcurveto
          -61 32 -57 44 64 77 145 69 120 vvcurveto
          38 -37 89 -100 -182 -14 -227 -107 vhcurveto
          -90 2 -52 -86 vvcurveto
          -61 -1 -96 -4 -61 vhcurveto
          -1 -15 -20 -2 -53 -60 callgsubr
          -30 callgsubr
          15 48 3 29 hhcurveto
          13 13 5 22 hvcurveto
          454 vlineto
          104 0 211 158 59 32 -53 -46 vhcurveto
          endchar
        </CharString>
        <CharString name="grave">
          -407 531 -21 170 -20 hstem
          23 653 rmoveto
          -21 84 -122 63 callgsubr
          -63 134 -24 -17 -7 -8 -19 vhcurveto
          endchar
        </CharString>
        <CharString name="greater">
          -296 273 -21 253 -20 hstem
          54 496 rmoveto
          -16 72 -49 33 -53 vhcurveto
          -33 -53 -72 -48 -16 vvcurveto
          -6 2 -3 9 24 133 100 26 29 -133 98 -24 -9 -2 -3 -6 vhcurveto
          endchar
        </CharString>
        <CharString name="guillemotleft">
          -192 104 callgsubr
          hstemhm
          173 516 rmoveto
          -13 callsubr
          hintmask 11000000
          143 hmoveto
          -13 callsubr
          endchar
        </CharString>
        <CharString name="guillemotright">
          -192 104 callgsubr
          hstem
          196 516 rmoveto
          -15 callgsubr
          -143 hmoveto
          -15 callgsubr
          endchar
        </CharString>
        <CharString name="guilsinglleft">
          -335 104 callgsubr
          hstem
          173 516 rmoveto
          -13 callsubr
          endchar
        </CharString>
        <CharString name="guilsinglright">
          -335 104 callgsubr
          hstem
          53 516 rmoveto
          -15 callgsubr
          endchar
        </CharString>
        <CharString name="h">
          96 callgsubr
          357 33 hstemhm
          -30 173 108 callgsubr
          hintmask 11111010
          445 293 rmoveto
          -11 callsubr
          418 6 callgsubr
          hintmask 11110110
          -116 1 -136 -65 33 callgsubr
          -82 callsubr
          endchar
        </CharString>
        <CharString name="hbar">
          96 callgsubr
          118 31 208 33 hstemhm
          -30 173 -152 152 108 callgsubr
          hintmask 1111110010000000
          445 293 rmoveto
          -11 callsubr
          219 vlineto
          41 41 1 23 46 callsubr
          119 callsubr
          hvcurveto
          -29 -37 -3 -47 hhcurveto
          168 6 callgsubr
          -176 vlineto
          -35 -46 2 -15 hhcurveto
          hintmask 1111101010000000
          73 callgsubr
          -9 9 hvcurveto
          96 hlineto
          hintmask 1111100110000000
          -44 1 -40 -26 33 callgsubr
          hintmask 1111101010000000
          -82 callsubr
          endchar
        </CharString>
        <CharString name="hcircumflex">
          96 callgsubr
          338 33 -33 205 hstemhm
          -30 173 108 callgsubr
          hintmask 11110101
          445 293 rmoveto
          -11 callsubr
          399 6 callgsubr
          hintmask 11101011
          -116 1 -117 -65 33 callgsubr
          -82 callsubr
          -252 548 -10 callgsubr
          94 -25 -23 -104 -94 -83 callsubr
          14 59 53 33 46 hvcurveto
          103 callsubr
        </CharString>
        <CharString name="hungarumlaut">
          -258 531 -21 170 -20 hstemhm
          131 653 rmoveto
          13 callsubr
          hintmask 11000000
          152 hmoveto
          13 callsubr
          endchar
        </CharString>
        <CharString name="hyphen">
          -24 callsubr
        </CharString>
        <CharString name="i">
          15 callgsubr
          102 83 hstemhm
          102 75 -45 40 hintmask 11001000
          -105 callsubr
          hintmask 00110000
          -70 552 rmoveto
          -56 callsubr
        </CharString>
        <CharString name="iacute">
          15 callgsubr
          204 -20 hstemhm
          91 114 -73 40 hintmask 11101000
          -105 callsubr
          hintmask 11110000
          33 590 17 callgsubr
          endchar
        </CharString>
        <CharString name="ibreve">
          15 callgsubr
          74 25 -25 103 hstemhm
          43 34 55 40 54 36 hintmask 11011110
          -105 callsubr
          90 561 -39 callgsubr
          hintmask 11101110
          21 callsubr
          vhcurveto
          hintmask 11011110
          -46 callgsubr
        </CharString>
        <CharString name="icircumflex">
          15 callgsubr
          -35 239 hstemhm
          -9 181 -40 40 hintmask 11001000
          -105 callsubr
          66 482 rmoveto
          -34 callgsubr
          hvcurveto
          hintmask 10110000
          -1 callgsubr
        </CharString>
        <CharString name="idieresis">
          15 callgsubr
          74 83 -60 83 hstemhm
          2 82 48 40 44 75 hintmask 11011110
          -105 callsubr
          -163 547 rmoveto
          -105 callgsubr
          207 -23 rmoveto
          hintmask 11101110
          -56 callsubr
        </CharString>
        <CharString name="igrave">
          15 callgsubr
          -35 239 hstemhm
          hintmask 11000000
          -105 callsubr
          -80 590 117 callsubr
          hintmask 10100000
          25 -76 94 -19 -11 -8 -3 -19 vhcurveto
          endchar
        </CharString>
        <CharString name="ij">
          -39 87 callsubr
          59 26 375 35 -27 31 98 83 hstemhm
          102 75 -45 40 1 34 -34 87 19 177 -71 71 -34 34 hintmask 0011000100000000
          -105 callsubr
          hintmask 0000011000000000
          -70 552 rmoveto
          -105 callgsubr
          hintmask 0100110010100000
          158 -669 -40 callsubr
          hintmask 1000110010001000
          -18 callsubr
          hintmask 1000110001010000
          29 callgsubr
        </CharString>
        <CharString name="imacron">
          15 callgsubr
          74 22 callsubr
          2 170 -40 150 hintmask 11100100
          172 401 rmoveto
          21 -2 14 -16 -17 -43 -3 -2 -29 vhcurveto
          -46 -3 -17 -4 -12 vvcurveto
          -11 18 0 10 vhcurveto
          12 57 5 14 hhcurveto
          11 3 -6 -11 1 hvcurveto
          hintmask 11100010
          3 -60 1 -55 -61 vvcurveto
          -48 0 -67 -4 -51 vhcurveto
          -1 -14 -10 -5 -29 -2 rrcurveto
          -44 -3 -20 -3 -8 vvcurveto
          -12 37 0 32 vhcurveto
          159 hlineto
          14 16 1 12 11 -19 4 -29 hvcurveto
          hintmask 11001100
          -62 hlineto
          92 514 rmoveto
          hintmask 11100100
          35 callgsubr
          hintmask 11010100
          -34 -68 -37 callsubr
          hintmask 11100100
          -61 callgsubr
          hintmask 11001100
          -14 callsubr
        </CharString>
        <CharString name="iogonek">
          -289 -159 27 -27 67 92 26 375 35 hstemhm
          78 44 10 40 hintmask 01111100
          172 401 rmoveto
          21 -2 14 -16 -17 -43 -3 -2 -29 vhcurveto
          -46 -3 -17 -4 -12 vvcurveto
          -11 18 0 10 vhcurveto
          12 57 5 14 hhcurveto
          11 3 -6 -11 1 hvcurveto
          3 -60 1 -55 -61 vvcurveto
          -48 0 -67 -4 -51 vhcurveto
          -1 -14 -10 -5 -29 -2 rrcurveto
          -44 -3 -20 -3 -8 vvcurveto
          -12 37 0 32 vhcurveto
          45 hlineto
          -18 -10 -42 -28 -48 -58 callgsubr
          hintmask 10111100
          -29 callgsubr
          16 9 50 43 19 hvcurveto
          78 hlineto
          14 16 1 12 11 -19 4 -29 hvcurveto
          -62 hlineto
          endchar
        </CharString>
        <CharString name="itilde">
          15 callgsubr
          87 22 callgsubr
          132 40 hintmask 11000010
          -105 callsubr
          hintmask 00011000
          -211 509 -61 callsubr
          hintmask 00100100
          -93 callgsubr
          hintmask 00011000
          27 callsubr
          hintmask 00100100
          -69 callsubr
        </CharString>
        <CharString name="j">
          -336 87 callsubr
          468 31 98 83 83 callgsubr
          -71 71 -34 34 hintmask 0111101000000000
          -37 -89 -40 callsubr
          hintmask 1011100010000000
          -18 callsubr
          hintmask 1011010100000000
          29 callgsubr
        </CharString>
        <CharString name="jcircumflex">
          -336 -217 27 -27 158 468 31 -31 231 83 callgsubr
          -34 34 hintmask 01101010
          -37 -89 rmoveto
          73 callsubr
          -17 -44 -52 40 -45 85 60 65 23 150 25 vhcurveto
          5 31 3 29 30 29 3 297 30 vvcurveto
          25 -2 13 -21 -69 -88 -1 -20 -7 12 -3 26 vhcurveto
          80 hlineto
          hintmask 10101001
          17 8 -5 -16 hvcurveto
          -110 vlineto
          -66 0 -148 -12 -104 vhcurveto
          -144 -17 -46 -6 -44 hhcurveto
          -81 -15 24 23 14 6 4 10 1 hvcurveto
          hintmask 10010110
          72 callsubr
          283 599 -10 callgsubr
          94 -25 -23 -104 -94 -83 callsubr
          14 59 53 33 46 hvcurveto
          103 callsubr
        </CharString>
        <CharString name="k">
          -98 -56 34 16 27 -4 -21 232 29 147 27 350 36 hstemhm
          93 38 176 40 67 31 hintmask 1101111110000000
          -52 callgsubr
          hintmask 1011111110000000
          18 34 2 21 hhcurveto
          hintmask 1101111110000000
          50 30 -2 29 hhcurveto
          16 13 5 6 8 -11 8 -31 hvcurveto
          -61 164 hlineto
          51 43 rlineto
          105 20 -27 -85 hvcurveto
          -66 vlineto
          -77 21 -29 39 45 33 29 36 17 -5 10 -10 vhcurveto
          hintmask 1011111110000000
          -10 -6 -6 -13 -27 -15 -12 -21 -21 -10 8 82 hvcurveto
          48 vlineto
          118 -50 23 -88 vhcurveto
          136 129 7 7 11 5 13 1 rlinecurve
          69 6 12 3 11 vvcurveto
          10 -35 2 -119 -49 -26 -5 -9 -8 6 -4 14 85 callgsubr
          -3 -5 -10 -67 -68 -96 -82 hvcurveto
          endchar
        </CharString>
        <CharString name="k.salt">
          -51 -59 92 callgsubr
          hintmask 11011100
          -52 callgsubr
          hintmask 10111100
          18 34 2 21 hhcurveto
          hintmask 11011100
          -79 callgsubr
          endchar
        </CharString>
        <CharString name="kcommaaccent">
          -51 -204 136 9 92 callgsubr
          75 82 -60 60 -46 46 hintmask 1110111100000000
          -52 callgsubr
          hintmask 1101111100000000
          18 34 2 21 hhcurveto
          hintmask 1110111010000000
          -79 callgsubr
          hintmask 1110111100000000
          75 -336 rmoveto
          hintmask 1110111001000000
          -94 callgsubr
          vhcurveto
          hintmask 1110111100000000
          -9 callsubr
        </CharString>
        <CharString name="kgreenlandic">
          -15 -59 30 23 27 -4 -21 408 27 -10 36 hstemhm
          126 41 hintmask 11001100
          167 428 rmoveto
          21 -7 8 -18 vhcurveto
          hintmask 11010100
          -79 -68 -12 -14 hvcurveto
          hintmask 11001100
          -6 12 -4 16 vhcurveto
          80 hlineto
          16 6 -6 -17 hvcurveto
          -76 1 -10 -74 -85 -2 -52 -26 vvcurveto
          -38 -7 -9 -37 -5 vhcurveto
          -46 -7 -8 -4 -6 vvcurveto
          -8 11 -4 22 vhcurveto
          hintmask 10110100
          18 34 2 21 hhcurveto
          hintmask 11010100
          -79 callgsubr
          endchar
        </CharString>
        <CharString name="l">
          -324 0 25 -5 -21 791 86 callsubr
          hintmask 10110000
          142 785 -45 callsubr
          hintmask 10101000
          -70 callgsubr
          120 callgsubr
          hhcurveto
          hintmask 01110000
          -54 callsubr
          endchar
        </CharString>
        <CharString name="l_l">
          -131 -66 25 -5 -21 67 25 -5 -21 725 30 36 86 callsubr
          59 145 -38 38 hintmask 1010111010000000
          346 719 rmoveto
          34 -15 1 -26 -37 -68 -2 -19 -7 14 -2 22 vhcurveto
          51 hlineto
          17 2 -7 -21 hvcurveto
          hintmask 1010111001000000
          -82 1 -71 -183 vvcurveto
          -183 -1 -108 -4 -80 vhcurveto
          -1 -16 -18 -12 -43 -2 -23 -1 rcurveline
          -15 -1 -6 -4 -8 vvcurveto
          -8 7 -3 26 vhcurveto
          120 callgsubr
          hhcurveto
          hintmask 0110111010000000
          34 47 -3 19 hhcurveto
          21 7 4 7 8 -7 9 -33 hvcurveto
          -61 hlineto
          86 -2 215 319 vvcurveto
          2 0 33 1 103 vhcurveto
          -204 66 -45 callsubr
          hintmask 1010110110000000
          -70 callgsubr
          120 callgsubr
          hhcurveto
          hintmask 1001111010000000
          -54 callsubr
          endchar
        </CharString>
        <CharString name="lacute">
          -324 0 25 -5 -21 791 30 152 -20 hstemhm
          -30 171 -80 114 -72 38 hintmask 10110100
          175 950 rmoveto
          -84 callsubr
          -33 -165 rmoveto
          34 -15 1 -27 vhcurveto
          hintmask 10111000
          -37 -93 -2 -19 -7 14 -2 22 hvcurveto
          77 hlineto
          17 2 -7 -21 hvcurveto
          hintmask 10110010
          -70 callgsubr
          120 callgsubr
          hhcurveto
          hintmask 01111000
          -54 callsubr
          endchar
        </CharString>
        <CharString name="lcaron">
          -324 0 25 -5 -21 716 135 -60 86 callsubr
          60 78 -52 52 hintmask 10011010
          142 785 -45 callsubr
          hintmask 10100110
          -70 callgsubr
          120 callgsubr
          hhcurveto
          hintmask 01101010
          -54 callsubr
          59 31 rmoveto
          hintmask 10101001
          5 callgsubr
          hintmask 10101010
          99 callgsubr
        </CharString>
        <CharString name="lcommaaccent">
          -324 -201 136 65 25 -5 -21 791 30 hstemhm
          -30 171 -61 82 -59 38 -25 46 hintmask 11011000
          142 785 -45 callsubr
          hintmask 11010010
          -70 callgsubr
          hintmask 10110001
          120 callgsubr
          34 47 -3 19 hhcurveto
          21 7 4 7 8 -7 9 -33 hvcurveto
          -61 hlineto
          hintmask 11011000
          94 -2 188 317 vvcurveto
          2 0 91 1 66 vhcurveto
          hintmask 11010100
          -62 -884 rmoveto
          hintmask 11010001
          -94 callgsubr
          vhcurveto
          hintmask 11010100
          -9 callsubr
        </CharString>
        <CharString name="ldot">
          -262 0 25 -5 -21 358 78 355 86 callsubr
          86 87 hintmask 10111010
          142 785 -45 callsubr
          hintmask 10110110
          -70 callgsubr
          120 callgsubr
          hhcurveto
          hintmask 01111010
          -54 callsubr
          85 -390 -55 callsubr
          endchar
        </CharString>
        <CharString name="less">
          -296 273 -21 253 -20 hstem
          211 496 rmoveto
          6 -2 3 -9 -24 -133 -98 -29 -26 133 -100 24 9 2 3 6 16 -72 48 -33 53 vhcurveto
          33 53 72 49 16 vvcurveto
          endchar
        </CharString>
        <CharString name="logicalnot">
          -186 161 123 -33 33 2 -20 21 -20 hstemhm
          280 37 hintmask 00101000
          78 286 rmoveto
          -9 -11 -2 -15 hvcurveto
          hintmask 01001000
          -10 10 -8 9 vhcurveto
          162 hlineto
          38 3 -14 -22 hvcurveto
          -32 vlineto
          hintmask 10001000
          -7 0 -15 18 18 1 19 0 vhcurveto
          72 vlineto
          hintmask 00011000
          35 -19 0 -10 vhcurveto
          hintmask 10001000
          -10 -60 -3 -31 hhcurveto
          hintmask 00101000
          -31 -77 2 -1 hhcurveto
          endchar
        </CharString>
        <CharString name="lslash">
          -303 0 25 -5 -21 791 30 hstemhm
          -8 171 -38 38 hintmask 10110000
          164 785 -45 callsubr
          hintmask 10101000
          -82 1 -87 -180 vvcurveto
          -110 -78 rlineto
          -9 -6 -3 -7 -5 vvcurveto
          -8 6 -4 8 11 45 30 36 52 vhcurveto
          -153 -2 -90 -3 -73 vhcurveto
          -1 -17 -20 -11 -41 -2 -23 -1 rcurveline
          -15 -1 -6 -4 -8 vvcurveto
          -8 7 -3 26 vhcurveto
          120 callgsubr
          hhcurveto
          hintmask 01110000
          34 47 -3 19 hhcurveto
          21 7 4 7 8 -7 9 -33 hvcurveto
          -61 hlineto
          68 -2 122 181 vvcurveto
          49 35 48 36 26 18 rrcurveto
          11 8 3 8 7 vvcurveto
          9 -6 3 -7 -6 -57 -39 -44 -61 vhcurveto
          187 vlineto
          2 0 91 1 66 vhcurveto
          endchar
        </CharString>
        <CharString name="m">
          246 -21 27 -4 27 375 24 -24 40 hstemhm
          134 38 232 40 241 38 hintmask 10011110
          723 282 rmoveto
          114 -57 48 -76 -62 -55 -32 -65 -38 vhcurveto
          57 -20 -43 30 -60 hhcurveto
          -65 -54 -35 -58 -24 hvcurveto
          -3 65 rlineto
          hintmask 01101110
          17 -1 -5 5 -11 hhcurveto
          -83 -64 -8 -13 -8 24 -4 49 hvcurveto
          33 hlineto
          14 12 -12 -119 -98 -8 -80 -3 -26 hvcurveto
          -4 -39 -2 10 -62 -5 rrcurveto
          -18 -1 -8 -4 -6 vvcurveto
          -7 9 -6 11 vhcurveto
          178 9 -1 11 hhcurveto
          13 8 4 7 8 -13 9 -43 hvcurveto
          -40 216 hlineto
          104 65 55 74 69 20 -47 -92 4 vhcurveto
          1 -30 0 -31 -2 vvcurveto
          -50 -1 -21 -1 -22 vhcurveto
          -2 -39 -1 -30 -28 -3 -35 -4 rcurveline
          -20 -2 -9 -4 -6 vvcurveto
          -9 16 -3 31 vhcurveto
          18 126 1 11 hhcurveto
          12 10 6 7 6 -6 6 -31 hvcurveto
          -51 275 hlineto
          54 25 42 50 77 hhcurveto
          80 17 -55 -139 -75 -5 -80 -2 -24 hvcurveto
          -3 -28 -7 -2 -13 -1 -64 -5 rcurveline
          -14 -1 -9 -6 -7 vvcurveto
          hintmask 10101110
          -9 12 -3 56 32 91 1 1 22 vhcurveto
          27 1 13 4 8 vvcurveto
          7 -7 5 -44 vhcurveto
          -47 hlineto
          endchar
        </CharString>
        <CharString name="macron">
          -245 510 9 callsubr
          285 542 104 callsubr
          -68 16 callsubr
          141 29 callsubr
        </CharString>
        <CharString name="minus">
          -164 391 34 5 -20 hstemhm
          hintmask 01000000
          341 430 rmoveto
          hintmask 10000000
          0 callgsubr
          15 4 13 6 hvcurveto
          hintmask 01000000
          119 callsubr
          vhcurveto
          endchar
        </CharString>
</ttFont>
